<?xml version="1.0" encoding="UTF-8"?>
<svg version="1.1" xmlns="http://www.w3.org/2000/svg" width="162" height="168">
<path d="M0 0 C53.46 0 106.92 0 162 0 C162 55.44 162 110.88 162 168 C108.54 168 55.08 168 0 168 C0 112.56 0 57.12 0 0 Z " fill="#2471CE" transform="translate(0,0)"/>
<path d="M0 0 C3.11128072 0.220034 5.11916455 1.02167291 7.94921875 2.3203125 C13.1654072 4.59998005 18.41424025 6.45104723 23.82421875 8.1953125 C36.66372684 12.4240606 45.33723506 16.52688027 54.28735352 26.9765625 C59.36862046 32.87561282 64.83285466 38.30182507 70.41601562 43.72265625 C71.10630859 44.40199219 71.79660156 45.08132812 72.5078125 45.78125 C73.13357178 46.3901709 73.75933105 46.9990918 74.40405273 47.62646484 C75.76171875 49.1953125 75.76171875 49.1953125 75.76171875 51.1953125 C76.42171875 51.1953125 77.08171875 51.1953125 77.76171875 51.1953125 C80.30065765 53.61730672 80.74948691 55.07989044 81.1224823 58.59954834 C81.13114657 59.97227919 81.12327574 61.34517559 81.10229492 62.71777344 C81.10295204 63.845187 81.10295204 63.845187 81.10362244 64.99537659 C81.10153641 67.47374668 81.07821478 69.95143593 81.0546875 72.4296875 C81.04909087 74.15032583 81.04482109 75.87096895 81.04182434 77.59161377 C81.03038083 82.11595911 81.00091795 86.64001462 80.9677124 91.16424561 C80.93700085 95.78263427 80.92331669 100.40106986 80.90820312 105.01953125 C80.87604774 114.0782522 80.82485737 123.13675823 80.76171875 132.1953125 C73.28598601 132.31131607 65.81044826 132.40008234 58.33399677 132.45437336 C54.86207026 132.48043477 51.39076083 132.51576637 47.91918945 132.57250977 C43.92523376 132.63738084 39.93192317 132.66152112 35.9375 132.68359375 C34.69462723 132.70940018 33.45175446 132.7352066 32.17121887 132.76179504 C23.5488612 132.76460018 23.5488612 132.76460018 19.90454102 130.12890625 C19.19740967 129.16082031 18.49027832 128.19273437 17.76171875 127.1953125 C16.61751066 126.02110512 15.45360124 124.86593166 14.27587891 123.7253418 C10.73811933 120.20548807 7.2035003 116.68249814 3.66992188 113.15844727 C2.15226803 111.64582414 0.63371813 110.13409949 -0.88574219 108.62329102 C-3.09681644 106.42444722 -5.30455563 104.22230013 -7.51171875 102.01953125 C-8.1817392 101.35467209 -8.85175964 100.68981293 -9.54208374 100.00480652 C-13.42348316 96.12386231 -17.11588941 92.13641376 -20.68722534 87.9677887 C-22.99923761 85.32572616 -25.47740589 82.89944492 -27.98828125 80.4453125 C-36.40970456 72.21207742 -36.40970456 72.21207742 -37.3359375 65.34765625 C-37.49674805 64.19370361 -37.65755859 63.03975098 -37.82324219 61.85083008 C-38.05962402 60.01041138 -38.05962402 60.01041138 -38.30078125 58.1328125 C-38.4699707 56.87815186 -38.63916016 55.62349121 -38.81347656 54.33081055 C-39.77862652 47.0656861 -40.68946028 39.79320972 -41.48828125 32.5078125 C-41.60828491 31.42584595 -41.60828491 31.42584595 -41.73071289 30.32202148 C-42.24422633 25.26245632 -42.29816576 20.28050526 -42.23828125 15.1953125 C-37.29974085 13.02184029 -32.33269461 11.09447157 -27.23828125 9.3203125 C-26.50931641 9.06419189 -25.78035156 8.80807129 -25.02929688 8.54418945 C-18.71991606 6.33767846 -12.3769568 4.23927337 -6.01953125 2.17578125 C-3.4093827 1.25563057 -2.63559541 0.22998215 0 0 Z " fill="#1B58A4" transform="translate(81.23828125,35.8046875)"/>
<path d="M0 0 C3.11128072 0.220034 5.11916455 1.02167291 7.94921875 2.3203125 C13.20513746 4.61652451 18.4992471 6.4945038 23.94921875 8.2578125 C30.07297809 10.24706322 35.9497601 12.39696204 41.76171875 15.1953125 C42.02687554 24.11006658 41.15141893 32.83780722 40.2175293 41.69067383 C39.94957871 44.25436849 39.69809463 46.81934635 39.44726562 49.38476562 C39.27574288 51.04177083 39.10324938 52.69867589 38.9296875 54.35546875 C38.85767624 55.10885025 38.78566498 55.86223175 38.71147156 56.63844299 C37.25776013 69.88794241 37.25776013 69.88794241 32.46850586 74.31518555 C31.58428955 74.77449463 30.70007324 75.23380371 29.7890625 75.70703125 C28.80615234 76.23748047 27.82324219 76.76792969 26.81054688 77.31445312 C25.78380859 77.83201172 24.75707031 78.34957031 23.69921875 78.8828125 C21.68686649 79.94802282 19.67514249 81.01442088 17.6640625 82.08203125 C16.18462158 82.84459229 16.18462158 82.84459229 14.67529297 83.62255859 C10.98652623 85.61376316 7.4976087 87.86770336 4.01782227 90.20239258 C1.07220509 91.49877014 -0.19867811 91.18937669 -3.23828125 90.1953125 C-5.24549766 89.26391996 -7.22049875 88.26154226 -9.16796875 87.2109375 C-10.29332031 86.60507813 -11.41867188 85.99921875 -12.578125 85.375 C-13.15933105 85.05756836 -13.74053711 84.74013672 -14.33935547 84.41308594 C-16.09662971 83.45439682 -17.86079767 82.50837934 -19.625 81.5625 C-21.86645258 80.34827312 -24.09634359 79.11240225 -26.31274414 77.85302734 C-28.02687281 76.88174021 -29.76178647 75.94320707 -31.53686523 75.08837891 C-34.75781938 73.32814359 -35.96749229 72.0374966 -37.10742188 68.4921875 C-37.77038432 65.02052295 -38.19277952 61.58640095 -38.55078125 58.0703125 C-38.70192383 56.82016357 -38.85306641 55.57001465 -39.00878906 54.28198242 C-39.44802088 50.5890674 -39.845692 46.89343162 -40.23828125 43.1953125 C-40.46346986 41.27702772 -40.69104786 39.35902071 -40.921875 37.44140625 C-41.79018011 29.97213034 -42.32692847 22.72293866 -42.23828125 15.1953125 C-37.29974085 13.02184029 -32.33269461 11.09447157 -27.23828125 9.3203125 C-26.50931641 9.06419189 -25.78035156 8.80807129 -25.02929688 8.54418945 C-18.71991606 6.33767846 -12.3769568 4.23927337 -6.01953125 2.17578125 C-3.4093827 1.25563057 -2.63559541 0.22998215 0 0 Z " fill="#D81830" transform="translate(81.23828125,35.8046875)"/>
<path d="M0 0 C4.00416847 -0.24441962 6.55951451 0.46021012 10.1875 2.125 C15.44341871 4.42121201 20.73752835 6.2991913 26.1875 8.0625 C32.31125934 10.05175072 38.18804135 12.20164954 44 15 C44.26515679 23.91475408 43.38970018 32.64249472 42.45581055 41.49536133 C42.18785996 44.05905599 41.93637588 46.62403385 41.68554688 49.18945312 C41.51402413 50.84645833 41.34153063 52.50336339 41.16796875 54.16015625 C41.09595749 54.91353775 41.02394623 55.66691925 40.94975281 56.44313049 C39.49604138 69.69262991 39.49604138 69.69262991 34.70678711 74.11987305 C33.8225708 74.57918213 32.93835449 75.03849121 32.02734375 75.51171875 C31.04443359 76.04216797 30.06152344 76.57261719 29.04882812 77.11914062 C28.02208984 77.63669922 26.99535156 78.15425781 25.9375 78.6875 C23.92514774 79.75271032 21.91342374 80.81910838 19.90234375 81.88671875 C18.42677002 82.64927979 18.42677002 82.64927979 16.92138672 83.42724609 C13.18234475 85.4401918 9.61829491 87.69074409 6.06079102 90.00708008 C4 91 4 91 1 90 C1.33 78.45 1.66 66.9 2 55 C5.63 55 9.26 55 13 55 C17 63.625 17 63.625 17 67 C19.97 67 22.94 67 26 67 C25.55720703 66.00371582 25.11441406 65.00743164 24.65820312 63.98095703 C20.52441406 54.67993164 20.52441406 54.67993164 16.390625 45.37890625 C16.04286011 44.59691864 15.69509521 43.81493103 15.33679199 43.00924683 C14.63067183 41.41949654 13.92600995 39.82909777 13.22277832 38.23806763 C11.41589764 34.15518237 9.5835592 30.08726266 7.70117188 26.03857422 C7.33181519 25.23459198 6.9624585 24.43060974 6.58190918 23.6022644 C5.8825818 22.08180138 5.17457437 20.56528751 4.45617676 19.05374146 C1.70744209 13.03752872 1.06888413 7.59540411 2 1 C1.34 0.67 0.68 0.34 0 0 Z " fill="#BF142F" transform="translate(79,36)"/>
<path d="M0 0 C3 1 3 1 4.71411133 4.21191406 C5.34765518 5.64170241 5.96946721 7.0767234 6.58203125 8.515625 C6.91869308 9.28243591 7.25535492 10.04924683 7.60221863 10.83929443 C8.68241087 13.30526383 9.74779012 15.77731181 10.8125 18.25 C11.86654246 20.67112852 12.92358162 23.09093232 13.98092651 25.51062012 C14.67108901 27.09215547 15.35919371 28.67459049 16.04519653 30.25793457 C18.56935636 36.07272581 21.223875 41.81115938 23.9753418 47.52246094 C25 50 25 50 25 53 C22.03 53 19.06 53 16 53 C15.3291288 51.3767313 14.66342971 49.75132422 14 48.125 C13.62875 47.22007813 13.2575 46.31515625 12.875 45.3828125 C12 43 12 43 12 41 C1.605 41.495 1.605 41.495 -9 42 C-10.65 45.63 -12.3 49.26 -14 53 C-16.64 53 -19.28 53 -22 53 C-21.42197134 48.13278373 -19.89882681 44.08410734 -17.83203125 39.6875 C-17.51473557 38.99672363 -17.19743988 38.30594727 -16.87052917 37.59423828 C-15.85795028 35.39296231 -14.83570734 33.19635289 -13.8125 31 C-12.48278975 28.12632868 -11.15703175 25.25084544 -9.83203125 22.375 C-9.50888947 21.67536133 -9.18574768 20.97572266 -8.85281372 20.25488281 C-5.77103224 13.55807104 -2.86066373 6.79399224 0 0 Z " fill="#FCF5F6" transform="translate(80,50)"/>
<path d="M0 0 C2.44786227 2.44786227 3.30080644 4.74317342 4.625 7.9375 C5.07101563 8.99839844 5.51703125 10.05929688 5.9765625 11.15234375 C7 14 7 14 7 17 C2.38 17 -2.24 17 -7 17 C-5.11994266 10.98381653 -2.93937169 5.57467045 0 0 Z " fill="#C7243C" transform="translate(81,67)"/>
<path d="M0 0 C2 2 2 2 2.1953125 4.6015625 C2.17210938 5.59929687 2.14890625 6.59703125 2.125 7.625 C2.10695313 8.62789062 2.08890625 9.63078125 2.0703125 10.6640625 C2.03550781 11.82035156 2.03550781 11.82035156 2 13 C4.31 13 6.62 13 9 13 C9 13.33 9 13.66 9 14 C4.38 14 -0.24 14 -5 14 C-1.85714286 4.42857143 -1.85714286 4.42857143 0 0 Z " fill="#DE3C4F" transform="translate(79,70)"/>
</svg>
