<?xml version="1.0" encoding="UTF-8"?>
<svg version="1.1" xmlns="http://www.w3.org/2000/svg" width="35" height="35">
<path d="M0 0 C4.88006234 2.62528299 8.1174457 6.04374335 9.86328125 11.28125 C10.5609433 18.463738 10.25864329 23.46036514 5.86328125 29.28125 C0.68922816 34.07671383 -3.49885434 34.63483707 -10.34375 34.5625 C-15.70872664 34.0222506 -18.84963691 31.66994356 -22.51171875 27.71875 C-25.91114242 22.61961449 -25.73412558 17.21383176 -25.13671875 11.28125 C-23.49502873 6.40079107 -20.38748178 3.11509202 -16.13671875 0.28125 C-11.04065361 -1.41743838 -5.14382507 -1.73028119 0 0 Z " fill="#F8F8F8" transform="translate(25.13671875,0.71875)"/>
<path d="M0 0 C0 3.3 0 6.6 0 10 C-3.63 10 -7.26 10 -11 10 C-11 8.02 -11 6.04 -11 4 C-9.35500958 3.33125616 -7.70898352 2.66505926 -6.0625 2 C-5.14597656 1.62875 -4.22945312 1.2575 -3.28515625 0.875 C-1 0 -1 0 0 0 Z " fill="#0B0B0B" transform="translate(23,3)"/>
<path d="M0 0 C3.63 0 7.26 0 11 0 C11 1.98 11 3.96 11 6 C9.73160474 6.50615298 8.46016898 7.00469099 7.1875 7.5 C6.12595703 7.91765625 6.12595703 7.91765625 5.04296875 8.34375 C3 9 3 9 0 9 C0 6.03 0 3.06 0 0 Z " fill="#070707" transform="translate(12,22)"/>
</svg>
