<?xml version="1.0" encoding="UTF-8"?>
<svg version="1.1" xmlns="http://www.w3.org/2000/svg" width="35" height="35">
<path d="M0 0 C4.88006234 2.62528299 8.1174457 6.04374335 9.86328125 11.28125 C10.5609433 18.463738 10.25864329 23.46036514 5.86328125 29.28125 C0.68922816 34.07671383 -3.49885434 34.63483707 -10.34375 34.5625 C-15.70872664 34.0222506 -18.84963691 31.66994356 -22.51171875 27.71875 C-25.91114242 22.61961449 -25.73412558 17.21383176 -25.13671875 11.28125 C-23.49502873 6.40079107 -20.38748178 3.11509202 -16.13671875 0.28125 C-11.04065361 -1.41743838 -5.14382507 -1.73028119 0 0 Z " fill="#7A7A7A" transform="translate(25.13671875,0.71875)"/>
<path d="M0 0 C1.5631897 0.00785522 1.5631897 0.00785522 3.15795898 0.01586914 C4.28266602 0.0190918 5.40737305 0.02231445 6.56616211 0.02563477 C7.75016602 0.03401367 8.93416992 0.04239258 10.15405273 0.05102539 C11.34192383 0.05553711 12.52979492 0.06004883 13.75366211 0.06469727 C16.69967499 0.07652864 19.64558954 0.09301252 22.59155273 0.11352539 C22.92155273 2.09352539 23.25155273 4.07352539 23.59155273 6.11352539 C22.38499023 6.08258789 22.38499023 6.08258789 21.15405273 6.05102539 C18.65800388 5.81718918 18.65800388 5.81718918 17.59155273 7.11352539 C18.91155273 7.11352539 20.23155273 7.11352539 21.59155273 7.11352539 C21.59155273 8.43352539 21.59155273 9.75352539 21.59155273 11.11352539 C14.00155273 11.11352539 6.41155273 11.11352539 -1.40844727 11.11352539 C-1.73844727 9.46352539 -2.06844727 7.81352539 -2.40844727 6.11352539 C-2.61469727 5.20602539 -2.82094727 4.29852539 -3.03344727 3.36352539 C-3.15719727 2.62102539 -3.28094727 1.87852539 -3.40844727 1.11352539 C-2.40844727 0.11352539 -2.40844727 0.11352539 0 0 Z " fill="#ACACAC" transform="translate(7.408447265625,11.886474609375)"/>
<path d="M0 0 C0.74886475 0.00523682 1.49772949 0.01047363 2.26928711 0.01586914 C3.07817383 0.0190918 3.88706055 0.02231445 4.72045898 0.02563477 C5.5705957 0.03401367 6.42073242 0.04239258 7.29663086 0.05102539 C8.15063477 0.05553711 9.00463867 0.06004883 9.88452148 0.06469727 C12.00108749 0.07652166 14.11761771 0.0944577 16.23413086 0.11352539 C16.23413086 2.09352539 16.23413086 4.07352539 16.23413086 6.11352539 C15.90413086 6.11352539 15.57413086 6.11352539 15.23413086 6.11352539 C15.23413086 4.46352539 15.23413086 2.81352539 15.23413086 1.11352539 C14.90413086 2.76352539 14.57413086 4.41352539 14.23413086 6.11352539 C13.59475586 5.92790039 12.95538086 5.74227539 12.29663086 5.55102539 C11.27569336 5.33446289 11.27569336 5.33446289 10.23413086 5.11352539 C9.90413086 5.44352539 9.57413086 5.77352539 9.23413086 6.11352539 C7.38125584 6.18579041 5.52579208 6.19733759 3.67163086 6.17602539 C2.6597168 6.16700195 1.64780273 6.15797852 0.60522461 6.14868164 C-0.17723633 6.13708008 -0.95969727 6.12547852 -1.76586914 6.11352539 C-2.14805681 4.45737882 -2.47982016 2.78895515 -2.76586914 1.11352539 C-1.76586914 0.11352539 -1.76586914 0.11352539 0 0 Z " fill="#C3C3C3" transform="translate(6.765869140625,11.886474609375)"/>
<path d="M0 0 C1.98 0 3.96 0 6 0 C6.33 1.98 6.66 3.96 7 6 C4.69 6 2.38 6 0 6 C0 4.02 0 2.04 0 0 Z " fill="#D5D5D5" transform="translate(24,12)"/>
<path d="M0 0 C2.64 0 5.28 0 8 0 C8 1.98 8 3.96 8 6 C7.67 6 7.34 6 7 6 C7 4.35 7 2.7 7 1 C6.67 2.65 6.34 4.3 6 6 C5.38125 5.814375 4.7625 5.62875 4.125 5.4375 C1.95839822 4.76313824 1.95839822 4.76313824 0 6 C0 4.02 0 2.04 0 0 Z " fill="#DADADA" transform="translate(15,12)"/>
</svg>
