<?xml version="1.0" encoding="UTF-8"?>
<svg version="1.1" xmlns="http://www.w3.org/2000/svg" width="35" height="35">
<path d="M0 0 C4.88006234 2.62528299 8.1174457 6.04374335 9.86328125 11.28125 C10.5609433 18.463738 10.25864329 23.46036514 5.86328125 29.28125 C0.68922816 34.07671383 -3.49885434 34.63483707 -10.34375 34.5625 C-15.70872664 34.0222506 -18.84963691 31.66994356 -22.51171875 27.71875 C-25.91114242 22.61961449 -25.73412558 17.21383176 -25.13671875 11.28125 C-23.49502873 6.40079107 -20.38748178 3.11509202 -16.13671875 0.28125 C-11.04065361 -1.41743838 -5.14382507 -1.73028119 0 0 Z " fill="#FCFCFC" transform="translate(25.13671875,0.71875)"/>
<path d="M0 0 C1.18916016 0.02707031 1.18916016 0.02707031 2.40234375 0.0546875 C4.35208348 0.10166918 6.30119878 0.17340956 8.25 0.25 C8.25 3.22 8.25 6.19 8.25 9.25 C4.62 9.25 0.99 9.25 -2.75 9.25 C-2.75 11.89 -2.75 14.53 -2.75 17.25 C0.88 17.25 4.51 17.25 8.25 17.25 C8.25 20.22 8.25 23.19 8.25 26.25 C5.49894578 26.35812003 2.75214913 26.43734945 0 26.5 C-1.16595703 26.55027344 -1.16595703 26.55027344 -2.35546875 26.6015625 C-5.92117744 26.66251479 -8.13501201 26.60524151 -11.265625 24.796875 C-13.48377651 20.99099399 -13.33298 17.57879009 -13.25 13.25 C-13.26546875 12.44304688 -13.2809375 11.63609375 -13.296875 10.8046875 C-13.27298881 7.18592954 -13.10851067 4.86512884 -11.265625 1.703125 C-7.53209295 -0.45351152 -4.22684833 -0.18225217 0 0 Z " fill="#A3A3A3" transform="translate(17.75,3.75)"/>
<path d="M0 0 C5.28 0 10.56 0 16 0 C16 1.65 16 3.3 16 5 C12.37 5 8.74 5 5 5 C5 7.64 5 10.28 5 13 C8.63 13 12.26 13 16 13 C16 14.65 16 16.3 16 18 C10.72 18 5.44 18 0 18 C0 12.06 0 6.12 0 0 Z " fill="#CECECE" transform="translate(10,8)"/>
</svg>
