<?xml version="1.0" encoding="UTF-8"?>
<svg version="1.1" xmlns="http://www.w3.org/2000/svg" width="91" height="15">
<path d="M0 0 C0.66 0.33 1.32 0.66 2 1 C2.33 1.99 2.66 2.98 3 4 C4.65 4.33 6.3 4.66 8 5 C7.505 5.37125 7.01 5.7425 6.5 6.125 C4.40244486 8.74694393 4.78256165 10.73842472 5 14 C4.2575 13.62875 3.515 13.2575 2.75 12.875 C0.05716353 11.70484137 0.05716353 11.70484137 -2.3125 12.875 C-3.1478125 13.431875 -3.1478125 13.431875 -4 14 C-3.9071875 12.6078125 -3.9071875 12.6078125 -3.8125 11.1875 C-3.69105736 8.01604897 -3.69105736 8.01604897 -5.5 6.125 C-5.995 5.75375 -6.49 5.3825 -7 5 C-5.02 5 -3.04 5 -1 5 C-0.67 3.35 -0.34 1.7 0 0 Z " fill="#EA9A00" transform="translate(83,0)"/>
<path d="M0 0 C0.66 0.33 1.32 0.66 2 1 C2.33 1.99 2.66 2.98 3 4 C4.65 4.33 6.3 4.66 8 5 C7.505 5.37125 7.01 5.7425 6.5 6.125 C4.40244486 8.74694393 4.78256165 10.73842472 5 14 C4.2575 13.62875 3.515 13.2575 2.75 12.875 C0.05716353 11.70484137 0.05716353 11.70484137 -2.3125 12.875 C-3.1478125 13.431875 -3.1478125 13.431875 -4 14 C-3.9071875 12.6078125 -3.9071875 12.6078125 -3.8125 11.1875 C-3.69105736 8.01604897 -3.69105736 8.01604897 -5.5 6.125 C-5.995 5.75375 -6.49 5.3825 -7 5 C-5.02 5 -3.04 5 -1 5 C-0.67 3.35 -0.34 1.7 0 0 Z " fill="#EA9A00" transform="translate(64,0)"/>
<path d="M0 0 C0.66 0.33 1.32 0.66 2 1 C2.33 1.99 2.66 2.98 3 4 C4.65 4.33 6.3 4.66 8 5 C7.505 5.37125 7.01 5.7425 6.5 6.125 C4.40244486 8.74694393 4.78256165 10.73842472 5 14 C4.2575 13.62875 3.515 13.2575 2.75 12.875 C0.05716353 11.70484137 0.05716353 11.70484137 -2.3125 12.875 C-3.1478125 13.431875 -3.1478125 13.431875 -4 14 C-3.9071875 12.6078125 -3.9071875 12.6078125 -3.8125 11.1875 C-3.69105736 8.01604897 -3.69105736 8.01604897 -5.5 6.125 C-5.995 5.75375 -6.49 5.3825 -7 5 C-5.02 5 -3.04 5 -1 5 C-0.67 3.35 -0.34 1.7 0 0 Z " fill="#EA9A00" transform="translate(45,0)"/>
<path d="M0 0 C0.66 0.33 1.32 0.66 2 1 C2.33 1.99 2.66 2.98 3 4 C4.65 4.33 6.3 4.66 8 5 C7.505 5.37125 7.01 5.7425 6.5 6.125 C4.40244486 8.74694393 4.78256165 10.73842472 5 14 C4.2575 13.62875 3.515 13.2575 2.75 12.875 C0.05716353 11.70484137 0.05716353 11.70484137 -2.3125 12.875 C-3.1478125 13.431875 -3.1478125 13.431875 -4 14 C-3.9071875 12.6078125 -3.9071875 12.6078125 -3.8125 11.1875 C-3.69105736 8.01604897 -3.69105736 8.01604897 -5.5 6.125 C-5.995 5.75375 -6.49 5.3825 -7 5 C-5.02 5 -3.04 5 -1 5 C-0.67 3.35 -0.34 1.7 0 0 Z " fill="#EA9A00" transform="translate(26,0)"/>
<path d="M0 0 C0.66 0.33 1.32 0.66 2 1 C2.33 1.99 2.66 2.98 3 4 C4.65 4.33 6.3 4.66 8 5 C7.505 5.37125 7.01 5.7425 6.5 6.125 C4.40244486 8.74694393 4.78256165 10.73842472 5 14 C4.2575 13.62875 3.515 13.2575 2.75 12.875 C0.05716353 11.70484137 0.05716353 11.70484137 -2.3125 12.875 C-3.1478125 13.431875 -3.1478125 13.431875 -4 14 C-3.9071875 12.6078125 -3.9071875 12.6078125 -3.8125 11.1875 C-3.69105736 8.01604897 -3.69105736 8.01604897 -5.5 6.125 C-5.995 5.75375 -6.49 5.3825 -7 5 C-5.02 5 -3.04 5 -1 5 C-0.67 3.35 -0.34 1.7 0 0 Z " fill="#EA9A00" transform="translate(7,0)"/>
</svg>
