<?xml version="1.0" encoding="UTF-8"?>
<svg version="1.1" xmlns="http://www.w3.org/2000/svg" width="246" height="345">
<path d="M0 0 C81.18 0 162.36 0 246 0 C246 113.85 246 227.7 246 345 C164.82 345 83.64 345 0 345 C0 231.15 0 117.3 0 0 Z " fill="#FDFDFD" transform="translate(0,0)"/>
<path d="M0 0 C31.68 0 63.36 0 96 0 C96 12.21 96 24.42 96 37 C95.34 37 94.68 37 94 37 C92.2734375 35.25 92.2734375 35.25 90.375 33 C89.74335938 32.2575 89.11171875 31.515 88.4609375 30.75 C87.73777344 29.88375 87.73777344 29.88375 87 29 C83.41165583 31.99382561 79.93357698 35.00869795 76.6875 38.375 C74 41 74 41 72 41 C74.37048171 45.3607155 77.31043701 48.73102463 80.6875 52.3125 C81.17927734 52.84294922 81.67105469 53.37339844 82.17773438 53.91992188 C82.67982422 54.45810547 83.18191406 54.99628906 83.69921875 55.55078125 C84.18948044 56.08451859 84.67974213 56.61825592 85.18486023 57.16816711 C86.96577634 59.04259514 86.96577634 59.04259514 89.0448761 60.59794617 C92.46700211 63.4302695 94.68072809 65.62200164 95.70219421 70.03071594 C95.92427971 73.68019861 95.90045811 77.2520989 95.78125 80.90625 C95.77319336 82.07768555 95.76513672 83.24912109 95.75683594 84.45605469 C95.7151846 88.80467976 95.60349231 93.15240708 95.5 97.5 C95.335 107.235 95.17 116.97 95 127 C63.65 127 32.3 127 0 127 C-0.33 105.55 -0.66 84.1 -1 62 C-8.81501178 72.04787229 -16.58554751 82.06436072 -24.1953125 92.2578125 C-27.99048013 97.33453296 -31.86188374 102.35135688 -35.73828125 107.36621094 C-38.03849298 110.34473588 -40.33117407 113.32905641 -42.625 116.3125 C-43.4713241 117.41278354 -44.31767533 118.51304622 -45.1640625 119.61328125 C-45.76992188 120.40089844 -46.37578125 121.18851562 -47 122 C-50.34430737 121.27633685 -52.34262343 120.18284504 -55 118 C-54.39787221 114.06301063 -52.46657385 111.67638827 -50.0625 108.5625 C-49.65845947 108.03519287 -49.25441895 107.50788574 -48.83813477 106.96459961 C-47.56463857 105.3051063 -46.28268044 103.65240001 -45 102 C-43.47892284 100.02102072 -41.95809452 98.04185015 -40.4375 96.0625 C-39.60027911 94.97654809 -38.76303841 93.89061145 -37.92578125 92.8046875 C-34.31105436 88.11000517 -30.71751507 83.39918918 -27.125 78.6875 C-26.44147461 77.79192383 -25.75794922 76.89634766 -25.05371094 75.97363281 C-21.81392551 71.72208715 -18.58968077 67.46090945 -15.41015625 63.1640625 C-14.86278809 62.42583252 -14.31541992 61.68760254 -13.75146484 60.92700195 C-12.73574114 59.55372955 -11.7241013 58.17742371 -10.71728516 56.79760742 C-8.62096247 53.96430216 -6.96243923 51.97495949 -4 50 C-3.236875 50.639375 -2.47375 51.27875 -1.6875 51.9375 C0.88246713 54.14232781 0.88246713 54.14232781 4 55 C4.309375 53.865625 4.61875 52.73125 4.9375 51.5625 C6 48 6 48 7 47 C8.34267413 46.91368126 9.68974322 46.89293527 11.03515625 46.90234375 C11.84404297 46.90556641 12.65292969 46.90878906 13.48632812 46.91210938 C14.33646484 46.92048828 15.18660156 46.92886719 16.0625 46.9375 C16.91650391 46.94201172 17.77050781 46.94652344 18.65039062 46.95117188 C20.76695663 46.96299627 22.88348685 46.98093231 25 47 C25 46.34 25 45.68 25 45 C23.81921875 45.01160156 22.6384375 45.02320313 21.421875 45.03515625 C19.86458492 45.04453752 18.30729312 45.05363736 16.75 45.0625 C15.97269531 45.07087891 15.19539063 45.07925781 14.39453125 45.08789062 C13.26337891 45.09272461 13.26337891 45.09272461 12.109375 45.09765625 C11.07248535 45.10551147 11.07248535 45.10551147 10.01464844 45.11352539 C8 45 8 45 5.99316406 44.36889648 C3.56926065 43.71326788 3.56926065 43.71326788 0 46 C0 30.82 0 15.64 0 0 Z " fill="#4E494D" transform="translate(70,118)"/>
<path d="M0 0 C3.3 0 6.6 0 10 0 C10 113.85 10 227.7 10 345 C6.7 345 3.4 345 0 345 C0 231.15 0 117.3 0 0 Z " fill="#5F7AB3" transform="translate(0,0)"/>
<path d="M0 0 C1.15224028 0.92961422 2.29659176 1.8690125 3.4375 2.8125 C4.07558594 3.33457031 4.71367187 3.85664063 5.37109375 4.39453125 C7 6 7 6 8 9 C9.32159366 9.68964659 10.65643647 10.35419874 12 11 C13.52734375 12.55078125 13.52734375 12.55078125 14.9375 14.3125 C17.44472338 17.42033956 20.15362133 20.19728962 23 23 C25.62821374 25.60093745 28.25182312 28.20648409 30.875 30.8125 C31.89787109 31.82280273 31.89787109 31.82280273 32.94140625 32.85351562 C36.93016174 36.82327704 40.70988395 40.90048893 44.38330078 45.1628418 C46.646062 47.73416136 49.04908139 50.10675006 51.5 52.5 C54.54135575 55.46979443 57.42493156 58.46055797 60.19140625 61.6875 C64.68543617 66.87754603 69.56258504 71.67071059 74.4375 76.5 C75.35982422 77.4178125 76.28214844 78.335625 77.23242188 79.28125 C79.48599899 81.52315055 81.74189075 83.762666 84 86 C82.13013095 90.09451971 79.39687963 92.79562297 76.125 95.8125 C75.59519531 96.32748047 75.06539062 96.84246094 74.51953125 97.37304688 C70.65155401 100.95788434 70.65155401 100.95788434 67.9453125 101.1328125 C65.11467154 99.48444728 63.04137556 97.39742509 60.75 95.0625 C59.85796875 94.16660156 58.9659375 93.27070313 58.046875 92.34765625 C56 90 56 90 56 88 C55.34 88 54.68 88 54 88 C52.58984375 86.56640625 52.58984375 86.56640625 50.9375 84.5625 C47.42929345 80.41038212 43.64549595 76.64192767 39.72265625 72.8828125 C38 71 38 71 38 69 C37.17048828 68.67708984 37.17048828 68.67708984 36.32421875 68.34765625 C33.23648188 66.55728781 31.13738828 64.09075768 28.8125 61.4375 C27.84019881 60.35137882 26.86621795 59.26675912 25.890625 58.18359375 C25.16456055 57.37704346 25.16456055 57.37704346 24.42382812 56.55419922 C21.08209431 52.90648361 17.52831553 49.46543465 14 46 C12.68 44.68 11.36 43.36 10 42 C10 61.14 10 80.28 10 100 C-21.68 100 -53.36 100 -86 100 C-86 99.67 -86 99.34 -86 99 C-54.65 99 -23.3 99 9 99 C9.165 89.43 9.33 79.86 9.5 70 C9.59345703 67.01324219 9.68691406 64.02648437 9.78320312 60.94921875 C10.14446717 44.9361332 10.14446717 44.9361332 2.46374512 31.50317383 C-0.2488359 29.01346778 -3.07147751 26.75683961 -6.02905273 24.56640625 C-9.0990032 22.12656949 -11.87978219 19.31247606 -14 16 C-14 13 -14 13 -12.4609375 11.38671875 C-11.77257812 10.82597656 -11.08421875 10.26523438 -10.375 9.6875 C-6.7083062 6.62104789 -3.33703776 3.4204637 0 0 Z " fill="#F1C77B" transform="translate(156,146)"/>
<path d="M0 0 C0 34.98 0 69.96 0 106 C-0.66 106 -1.32 106 -2 106 C-3.44874573 104.50158691 -3.44874573 104.50158691 -5.13110352 102.44726562 C-8.75777591 98.18344268 -12.70988391 94.53815979 -16.90234375 90.84375 C-43.78297594 66.47275917 -43.78297594 66.47275917 -44.59790039 54.45507812 C-44.18620219 46.54947002 -42.86632901 41.08304248 -37.42211914 35.16650391 C-36 34 -36 34 -34 34 C-33.67 33.01 -33.34 32.02 -33 31 C-29.09981858 26.72238166 -24.66149492 22.98970076 -20.35546875 19.12890625 C-15.76709897 14.9818722 -11.6921469 10.53034394 -7.640625 5.87109375 C-2.49269311 0 -2.49269311 0 0 0 Z " fill="#516EAC" transform="translate(246,3)"/>
<path d="M0 0 C0 19.8 0 39.6 0 60 C-4.4543919 56.1819498 -8.60776397 52.51309612 -12.71484375 48.3828125 C-13.21544815 47.88079315 -13.71605255 47.3787738 -14.23182678 46.86154175 C-15.80278598 45.28506329 -17.37019877 43.70511427 -18.9375 42.125 C-20.01343727 41.04403726 -21.08960731 39.96330617 -22.16601562 38.8828125 C-24.78003292 36.25787359 -27.39088596 33.62981372 -30 31 C-28.34632885 26.72113402 -25.13020426 23.8599365 -21.93359375 20.703125 C-21.33950211 20.10949158 -20.74541046 19.51585815 -20.13331604 18.90423584 C-18.88071283 17.65464684 -17.62568693 16.40748226 -16.3684082 15.16259766 C-14.43574928 13.24826588 -12.51128287 11.32598142 -10.58789062 9.40234375 C-9.37026394 8.1896298 -8.15218082 6.97737392 -6.93359375 5.765625 C-6.3544371 5.18758118 -5.77528046 4.60953735 -5.17857361 4.01397705 C-1.11606324 0 -1.11606324 0 0 0 Z " fill="#F1C577" transform="translate(246,26)"/>
<path d="M0 0 C2.97 1.65 5.94 3.3 9 5 C7.3389289 8.12672207 5.42930917 10.70900991 3.0625 13.3125 C-2.22645973 19.22763679 -6.8334147 25.67748103 -11.55273438 32.04736328 C-17.84281902 40.53388436 -24.23536585 48.93997859 -30.68994141 57.30175781 C-33.00497657 60.30276128 -35.31463061 63.30790408 -37.625 66.3125 C-38.47133161 67.41277777 -39.3176836 68.51303986 -40.1640625 69.61328125 C-40.76992188 70.40089844 -41.37578125 71.18851562 -42 72 C-45.34430737 71.27633685 -47.34262343 70.18284504 -50 68 C-49.39787221 64.06301063 -47.46657385 61.67638827 -45.0625 58.5625 C-44.65845947 58.03519287 -44.25441895 57.50788574 -43.83813477 56.96459961 C-42.56463857 55.3051063 -41.28268044 53.65240001 -40 52 C-38.47892284 50.02102072 -36.95809452 48.04185015 -35.4375 46.0625 C-34.60027911 44.97654809 -33.76303841 43.89061145 -32.92578125 42.8046875 C-29.31105546 38.1100066 -25.71724699 33.39939193 -22.125 28.6875 C-21.44219971 27.79192383 -20.75939941 26.89634766 -20.0559082 25.97363281 C-15.21004853 19.60916208 -10.39717894 13.22080767 -5.62939453 6.79760742 C-3.84516775 4.40328814 -2.11466308 2.11466308 0 0 Z " fill="#5577B9" transform="translate(65,168)"/>
<path d="M0 0 C31.68 0 63.36 0 96 0 C96 12.21 96 24.42 96 37 C95.34 36.67 94.68 36.34 94 36 C94.33 26.76 94.66 17.52 95 8 C63.65 8 32.3 8 0 8 C0 5.36 0 2.72 0 0 Z " fill="#8A8688" transform="translate(70,118)"/>
<path d="M0 0 C2.5625 1.8125 2.5625 1.8125 5 4 C6.66324401 5.00568242 8.32936253 6.00664799 10 7 C12 9 12 9 12.3125 11.875 C11.96903084 15.30969162 11.41312854 16.58687146 9 19 C6.11788698 19.96070434 4.30149956 20.10581883 1.3125 20.0625 C0.10013672 20.04896484 0.10013672 20.04896484 -1.13671875 20.03515625 C-1.75160156 20.02355469 -2.36648437 20.01195313 -3 20 C-3 18.68 -3 17.36 -3 16 C-2.34 16 -1.68 16 -1 16 C-1.66 15.01 -2.32 14.02 -3 13 C-6.11785113 13.64644661 -6.11785113 13.64644661 -7 16 C-6.34 16 -5.68 16 -5 16 C-5 17.32 -5 18.64 -5 20 C-6.79093191 20.08086147 -8.58289628 20.13912702 -10.375 20.1875 C-11.87160156 20.23970703 -11.87160156 20.23970703 -13.3984375 20.29296875 C-14.25695313 20.19628906 -15.11546875 20.09960938 -16 20 C-18.33458635 16.49812047 -18.67260727 15.11971953 -18 11 C-15.1875 8.9375 -15.1875 8.9375 -12 7 C-10.94895617 5.36504293 -9.94011682 3.70116376 -9 2 C-5.48746854 -0.34168764 -4.13530644 -0.49623677 0 0 Z " fill="#82CEF0" transform="translate(49,94)"/>
<path d="M0 0 C1.32 0.66 2.64 1.32 4 2 C4 2.66 4 3.32 4 4 C3.34 4 2.68 4 2 4 C2 5.32 2 6.64 2 8 C4.64 8 7.28 8 10 8 C10 8.33 10 8.66 10 9 C7.36 9 4.72 9 2 9 C2.14019692 11.81288705 2.28687955 14.62516885 2.4375 17.4375 C2.47681641 18.23994141 2.51613281 19.04238281 2.55664062 19.86914062 C2.4054296 23.75239561 2.4054296 23.75239561 4 27 C5.55948542 27.15686249 7.12542668 27.25076639 8.69140625 27.31640625 C9.63564453 27.35830078 10.57988281 27.40019531 11.55273438 27.44335938 C13.04256836 27.50233398 13.04256836 27.50233398 14.5625 27.5625 C15.55958984 27.60568359 16.55667969 27.64886719 17.58398438 27.69335938 C20.05581111 27.79980167 22.5278866 27.90043759 25 28 C25 24.37 25 20.74 25 17 C25.33 17 25.66 17 26 17 C26.495 36.8 26.495 36.8 27 57 C27.99 56.34 28.98 55.68 30 55 C31.93066406 55.35522461 31.93066406 55.35522461 34 56 C35.36676632 56.13929356 36.7374567 56.24365301 38.109375 56.31640625 C38.86347656 56.35830078 39.61757812 56.40019531 40.39453125 56.44335938 C41.17183594 56.48267578 41.94914062 56.52199219 42.75 56.5625 C43.54277344 56.60568359 44.33554688 56.64886719 45.15234375 56.69335938 C47.10137815 56.79902991 49.05066748 56.89997966 51 57 C51 57.66 51 58.32 51 59 C45.06 59.33 39.12 59.66 33 60 C32.01 62.31 31.02 64.62 30 67 C25.75177626 66.52797514 23.80010291 64.03344482 21 61 C21.99 60.34 22.98 59.68 24 59 C24.33 57.68 24.66 56.36 25 55 C17.74 55.33 10.48 55.66 3 56 C6 53 6 53 8.0847168 52.65942383 C8.86500244 52.67513428 9.64528809 52.69084473 10.44921875 52.70703125 C11.21322998 52.71452393 11.97724121 52.7220166 12.7644043 52.72973633 C14.21133667 52.77070435 14.21133667 52.77070435 15.6875 52.8125 C20.2971875 52.9053125 20.2971875 52.9053125 25 53 C25 45.08 25 37.16 25 29 C18.26721819 29.48599893 18.26721819 29.48599893 11.53808594 30.01855469 C4.78362704 30.42408052 4.78362704 30.42408052 1.34375 28.5625 C-0.63871295 24.78198927 -0.43096995 21.44711087 -0.25 17.25 C-0.23195313 16.45722656 -0.21390625 15.66445312 -0.1953125 14.84765625 C-0.14833082 12.89791652 -0.07659044 10.94880122 0 9 C-2.97 9 -5.94 9 -9 9 C-9 8.67 -9 8.34 -9 8 C-6.03 8 -3.06 8 0 8 C0 6.68 0 5.36 0 4 C-0.66 4 -1.32 4 -2 4 C-1.34 2.68 -0.68 1.36 0 0 Z " fill="#F4F4F4" transform="translate(44,106)"/>
<path d="M0 0 C0.99773438 0.02320313 1.99546875 0.04640625 3.0234375 0.0703125 C4.52777344 0.09738281 4.52777344 0.09738281 6.0625 0.125 C6.83335938 0.14820313 7.60421875 0.17140625 8.3984375 0.1953125 C8.3984375 1.5153125 8.3984375 2.8353125 8.3984375 4.1953125 C9.3884375 3.5353125 10.3784375 2.8753125 11.3984375 2.1953125 C12.3884375 2.5253125 13.3784375 2.8553125 14.3984375 3.1953125 C13.4084375 4.1853125 12.4184375 5.1753125 11.3984375 6.1953125 C12.3884375 6.1953125 13.3784375 6.1953125 14.3984375 6.1953125 C14.3984375 5.5353125 14.3984375 4.8753125 14.3984375 4.1953125 C15.3471875 4.3809375 16.2959375 4.5665625 17.2734375 4.7578125 C20.29712543 5.48217882 20.29712543 5.48217882 22.3984375 4.1953125 C22.3984375 5.1853125 22.3984375 6.1753125 22.3984375 7.1953125 C19.4284375 7.1953125 16.4584375 7.1953125 13.3984375 7.1953125 C13.3984375 7.8553125 13.3984375 8.5153125 13.3984375 9.1953125 C12.7384375 9.1953125 12.0784375 9.1953125 11.3984375 9.1953125 C11.7284375 9.8553125 12.0584375 10.5153125 12.3984375 11.1953125 C13.7184375 10.2053125 15.0384375 9.2153125 16.3984375 8.1953125 C16.3984375 8.8553125 16.3984375 9.5153125 16.3984375 10.1953125 C17.0584375 10.1953125 17.7184375 10.1953125 18.3984375 10.1953125 C18.7284375 9.5353125 19.0584375 8.8753125 19.3984375 8.1953125 C22.3684375 8.5253125 25.3384375 8.8553125 28.3984375 9.1953125 C28.3984375 10.5153125 28.3984375 11.8353125 28.3984375 13.1953125 C26.4184375 13.8553125 24.4384375 14.5153125 22.3984375 15.1953125 C22.0684375 14.5353125 21.7384375 13.8753125 21.3984375 13.1953125 C20.36783203 13.23011719 20.36783203 13.23011719 19.31640625 13.265625 C17.96482422 13.29269531 17.96482422 13.29269531 16.5859375 13.3203125 C15.69261719 13.34351563 14.79929687 13.36671875 13.87890625 13.390625 C11.3984375 13.1953125 11.3984375 13.1953125 8.3984375 11.1953125 C8.3984375 12.5153125 8.3984375 13.8353125 8.3984375 15.1953125 C6.79464409 15.24947438 5.19032344 15.28817888 3.5859375 15.3203125 C2.69261719 15.34351563 1.79929687 15.36671875 0.87890625 15.390625 C-1.6015625 15.1953125 -1.6015625 15.1953125 -4.6015625 13.1953125 C-4.96484375 10.6640625 -4.96484375 10.6640625 -4.9140625 7.6953125 C-4.91019531 6.715625 -4.90632813 5.7359375 -4.90234375 4.7265625 C-4.47824756 1.15754524 -3.5888546 0.26943353 0 0 Z " fill="#FDF7E7" transform="translate(28.6015625,316.8046875)"/>
<path d="M0 0 C3.96 0 7.92 0 12 0 C12.33 1.32 12.66 2.64 13 4 C14.15628906 3.96519531 14.15628906 3.96519531 15.3359375 3.9296875 C16.33882812 3.91164062 17.34171875 3.89359375 18.375 3.875 C19.37273437 3.85179687 20.37046875 3.82859375 21.3984375 3.8046875 C24 4 24 4 26 6 C26.4140625 8.3828125 26.4140625 8.3828125 26.625 11.125 C26.69976562 12.03507812 26.77453125 12.94515625 26.8515625 13.8828125 C26.90054688 14.58148438 26.94953125 15.28015625 27 16 C25.68 16 24.36 16 23 16 C23 13.03 23 10.06 23 7 C21.68 7.33 20.36 7.66 19 8 C18.67 10.97 18.34 13.94 18 17 C12.72 17 7.44 17 2 17 C2 12.38 2 7.76 2 3 C1.34 3 0.68 3 0 3 C0 2.01 0 1.02 0 0 Z " fill="#E1DFDE" transform="translate(98,46)"/>
<path d="M0 0 C2.97 0 5.94 0 9 0 C9 0.99 9 1.98 9 3 C12.3 3 15.6 3 19 3 C19 3.99 19 4.98 19 6 C14.545 6.495 14.545 6.495 10 7 C12.97 7.495 12.97 7.495 16 8 C16 8.66 16 9.32 16 10 C6.76 10 -2.48 10 -12 10 C-12 8.68 -12 7.36 -12 6 C-13.65 6 -15.3 6 -17 6 C-17 5.01 -17 4.02 -17 3 C-11.39 3 -5.78 3 0 3 C0 2.01 0 1.02 0 0 Z " fill="#668596" transform="translate(103,147)"/>
<path d="M0 0 C3.63 0 7.26 0 11 0 C11 1.32 11 2.64 11 4 C14.3 4 17.6 4 21 4 C21 4.99 21 5.98 21 7 C20.360625 7.165 19.72125 7.33 19.0625 7.5 C16.83880759 8.781786 16.83880759 8.781786 16.51171875 10.9140625 C16.2724022 12.93575155 16.13106972 14.96841939 16 17 C14.68 17 13.36 17 12 17 C11.67 14.69 11.34 12.38 11 10 C9.02 10 7.04 10 5 10 C5 12.31 5 14.62 5 17 C3.68 17 2.36 17 1 17 C0.67 11.39 0.34 5.78 0 0 Z " fill="#49423F" transform="translate(29,46)"/>
<path d="M0 0 C1.65 0 3.3 0 5 0 C5.33 5.61 5.66 11.22 6 17 C4.411875 17.061875 2.82375 17.12375 1.1875 17.1875 C-0.15248047 17.23970703 -0.15248047 17.23970703 -1.51953125 17.29296875 C-4 17 -4 17 -5.80078125 15.70703125 C-7.79958597 12.86182713 -7.35896649 10.35035393 -7 7 C-5.4530279 4.67954185 -4.46104026 4.14489837 -1.8125 3.3125 C-1.214375 3.209375 -0.61625 3.10625 0 3 C0 2.01 0 1.02 0 0 Z " fill="#28201D" transform="translate(134,46)"/>
<path d="M0 0 C8.91 0 17.82 0 27 0 C26.67 2.31 26.34 4.62 26 7 C18.74 7 11.48 7 4 7 C4 6.01 4 5.02 4 4 C2.68 3.67 1.36 3.34 0 3 C0 2.01 0 1.02 0 0 Z " fill="#9C6F69" transform="translate(86,182)"/>
<path d="M0 0 C0.90492187 0.02320313 1.80984375 0.04640625 2.7421875 0.0703125 C4.10730469 0.09738281 4.10730469 0.09738281 5.5 0.125 C6.19867188 0.14820313 6.89734375 0.17140625 7.6171875 0.1953125 C7.6171875 1.8453125 7.6171875 3.4953125 7.6171875 5.1953125 C5.6371875 5.1953125 3.6571875 5.1953125 1.6171875 5.1953125 C1.6171875 6.5153125 1.6171875 7.8353125 1.6171875 9.1953125 C3.5971875 9.1953125 5.5771875 9.1953125 7.6171875 9.1953125 C7.6171875 11.1753125 7.6171875 13.1553125 7.6171875 15.1953125 C6.1801066 15.24954197 4.74243288 15.28820973 3.3046875 15.3203125 C2.50417969 15.34351563 1.70367187 15.36671875 0.87890625 15.390625 C-1.3828125 15.1953125 -1.3828125 15.1953125 -4.3828125 13.1953125 C-4.74609375 10.6640625 -4.74609375 10.6640625 -4.6953125 7.6953125 C-4.69144531 6.715625 -4.68757813 5.7359375 -4.68359375 4.7265625 C-4.27843645 1.31692707 -3.46707085 0.28418614 0 0 Z " fill="#EA903D" transform="translate(28.3828125,316.8046875)"/>
<path d="M0 0 C8.25 0 16.5 0 25 0 C25 0.66 25 1.32 25 2 C27.475 2.495 27.475 2.495 30 3 C30 3.33 30 3.66 30 4 C27.03 4 24.06 4 21 4 C21 4.99 21 5.98 21 7 C14.07 7 7.14 7 0 7 C0 4.69 0 2.38 0 0 Z " fill="#805E5C" transform="translate(82,143)"/>
<path d="M0 0 C3.375 0.875 3.375 0.875 5.375 2.875 C5.75 6.3125 5.75 6.3125 5.375 9.875 C3.29808202 12.25960953 1.96943084 12.7709746 -1.125 13.3125 C-4.49150098 12.72336233 -5.62608769 11.61425021 -7.625 8.875 C-8.28974877 5.55125617 -7.92761443 4.33497394 -6.0625 1.5 C-3.625 -0.125 -3.625 -0.125 0 0 Z " fill="#312B29" transform="translate(57.625,50.125)"/>
<path d="M0 0 C0.66 0.33 1.32 0.66 2 1 C2 1.99 2 2.98 2 4 C0.700625 3.979375 -0.59875 3.95875 -1.9375 3.9375 C-3.29165633 3.91600546 -4.64756083 3.92851801 -6 4 C-7.40432936 5.17718985 -7.40432936 5.17718985 -7.125 8.5 C-7.40432936 11.82281015 -7.40432936 11.82281015 -6 13 C-4.00041636 13.04080783 -1.99954746 13.04254356 0 13 C0 11.35 0 9.7 0 8 C1.32 8 2.64 8 4 8 C4 10.97 4 13.94 4 17 C-6.12055838 17.62817259 -6.12055838 17.62817259 -9.625 15.125 C-11.96038452 11.51576938 -12.51106065 9.34401556 -12 5 C-8.48936888 0.10639298 -5.90378005 -0.66835246 0 0 Z " fill="#3E3936" transform="translate(40,25)"/>
<path d="M0 0 C3.96 0 7.92 0 12 0 C12 1.32 12 2.64 12 4 C9.69 3.67 7.38 3.34 5 3 C5 4.32 5 5.64 5 7 C6.65 7 8.3 7 10 7 C10 7.99 10 8.98 10 10 C8.35 10 6.7 10 5 10 C5 11.32 5 12.64 5 14 C8.465 13.505 8.465 13.505 12 13 C12 14.32 12 15.64 12 17 C8.7 17 5.4 17 2 17 C2 12.38 2 7.76 2 3 C1.34 3 0.68 3 0 3 C0 2.01 0 1.02 0 0 Z " fill="#3B3432" transform="translate(98,46)"/>
<path d="M0 0 C1.36676632 0.13929356 2.7374567 0.24365301 4.109375 0.31640625 C5.24052734 0.37924805 5.24052734 0.37924805 6.39453125 0.44335938 C7.56048828 0.50233398 7.56048828 0.50233398 8.75 0.5625 C9.93916016 0.62727539 9.93916016 0.62727539 11.15234375 0.69335938 C13.10137815 0.79902991 15.05066748 0.89997966 17 1 C17 1.66 17 2.32 17 3 C11.06 3.33 5.12 3.66 -1 4 C-1.99 6.31 -2.98 8.62 -4 11 C-8.24822374 10.52797514 -10.19989709 8.03344482 -13 5 C-11.59447701 3.96387729 -10.17508306 2.94655075 -8.75 1.9375 C-7.96109375 1.36902344 -7.1721875 0.80054688 -6.359375 0.21484375 C-3.5025698 -1.25612714 -2.97505957 -0.84017886 0 0 Z " fill="#CCD7D9" transform="translate(78,162)"/>
<path d="M0 0 C0.38218767 1.65614657 0.71395102 3.32457024 1 5 C0 6 0 6 -3.5625 6.0625 C-4.696875 6.041875 -5.83125 6.02125 -7 6 C-7.66 4.68 -8.32 3.36 -9 2 C-9 3.32 -9 4.64 -9 6 C-13.62 6 -18.24 6 -23 6 C-23 5.34 -23 4.68 -23 4 C-22.01 4 -21.02 4 -20 4 C-20 3.34 -20 2.68 -20 2 C-20.99 2.33 -21.98 2.66 -23 3 C-23 2.34 -23 1.68 -23 1 C-22.1646875 1.01740234 -22.1646875 1.01740234 -21.3125 1.03515625 C-17.43019775 1.08106185 -13.66292698 1.02878204 -9.8125 0.5 C-6.47908024 0.0628302 -3.35408509 -0.08385213 0 0 Z " fill="#CBCAC9" transform="translate(108,68)"/>
<path d="M0 0 C6.15234375 -0.09765625 6.15234375 -0.09765625 8 0 C9 1 9 1 9.09765625 2.84765625 C9.04882812 5.92382812 9.04882812 5.92382812 9 9 C9.66 9 10.32 9 11 9 C11 9.99 11 10.98 11 12 C9.18757948 12.02687279 7.37504767 12.04633715 5.5625 12.0625 C4.55316406 12.07410156 3.54382813 12.08570313 2.50390625 12.09765625 C0 12 0 12 -1 11 C-1.04063832 9.33382885 -1.042721 7.66611905 -1 6 C1.31 5.34 3.62 4.68 6 4 C6 3.34 6 2.68 6 2 C4.02 2.33 2.04 2.66 0 3 C0 2.01 0 1.02 0 0 Z " fill="#38312F" transform="translate(69,30)"/>
<path d="M0 0 C5.28 0.33 10.56 0.66 16 1 C16 1.99 16 2.98 16 4 C15.360625 4.165 14.72125 4.33 14.0625 4.5 C11.83880759 5.781786 11.83880759 5.781786 11.51171875 7.9140625 C11.2724022 9.93575155 11.13106972 11.96841939 11 14 C9.68 14 8.36 14 7 14 C6.855625 12.906875 6.71125 11.81375 6.5625 10.6875 C6.11711896 7.06877013 6.11711896 7.06877013 5 4 C3.35 4 1.7 4 0 4 C0 2.68 0 1.36 0 0 Z " fill="#DEDDDC" transform="translate(34,49)"/>
<path d="M0 0 C10.89 0 21.78 0 33 0 C33 0.99 33 1.98 33 3 C22.11 3 11.22 3 0 3 C0 2.01 0 1.02 0 0 Z " fill="#A67872" transform="translate(94,226)"/>
<path d="M0 0 C1 1 1 1 1.09765625 2.84765625 C1.04882812 5.92382812 1.04882812 5.92382812 1 9 C1.66 9 2.32 9 3 9 C3 9.99 3 10.98 3 12 C1.35 11.67 -0.3 11.34 -2 11 C-2 8.03 -2 5.06 -2 2 C-3.32 2.33 -4.64 2.66 -6 3 C-6.33 5.97 -6.66 8.94 -7 12 C-7.99 12 -8.98 12 -10 12 C-10.33 8.04 -10.66 4.08 -11 0 C-6.99756684 -0.83771857 -3.95651739 -1.13043354 0 0 Z " fill="#352D2B" transform="translate(76,51)"/>
<path d="M0 0 C1.32 0 2.64 0 4 0 C4 2.97 4 5.94 4 9 C5.32 8.67 6.64 8.34 8 8 C8.33 5.36 8.66 2.72 9 0 C9.99 0 10.98 0 12 0 C12 2.97 12 5.94 12 9 C12.66 9 13.32 9 14 9 C14 9.99 14 10.98 14 12 C12.20866022 12.05391993 10.41686101 12.09275571 8.625 12.125 C7.62726562 12.14820313 6.62953125 12.17140625 5.6015625 12.1953125 C3 12 3 12 1 10 C0.5859375 7.6171875 0.5859375 7.6171875 0.375 4.875 C0.30023438 3.96492188 0.22546875 3.05484375 0.1484375 2.1171875 C0.09945312 1.41851563 0.05046875 0.71984375 0 0 Z " fill="#383230" transform="translate(46,30)"/>
<path d="M0 0 C-0.99 0.33 -1.98 0.66 -3 1 C-2.67 1.99 -2.34 2.98 -2 4 C-2.99 4 -3.98 4 -5 4 C-5 3.01 -5 2.02 -5 1 C-5.66 1 -6.32 1 -7 1 C-7 1.99 -7 2.98 -7 4 C-7.66 4 -8.32 4 -9 4 C-9 3.01 -9 2.02 -9 1 C-9.66 1 -10.32 1 -11 1 C-11 1.99 -11 2.98 -11 4 C-12.32 4 -13.64 4 -15 4 C-15 3.01 -15 2.02 -15 1 C-15.66 1 -16.32 1 -17 1 C-17.33 1.99 -17.66 2.98 -18 4 C-22.01804691 4.84098656 -25.01803543 5.05404945 -29 4 C-29 2.68 -29 1.36 -29 0 C-27.68 0.33 -26.36 0.66 -25 1 C-25.99 1 -26.98 1 -28 1 C-28 1.66 -28 2.32 -28 3 C-27.01 2.67 -26.02 2.34 -25 2 C-24.67 1.34 -24.34 0.68 -24 0 C-16.3866303 -2.14041355 -7.70582086 -1.40105834 0 0 Z " fill="#B8B7B6" transform="translate(66,69)"/>
<path d="M0 0 C1.66342837 1.66342837 1.36048097 3.7825709 1.5625 6.0625 C1.64628906 6.98160156 1.73007813 7.90070312 1.81640625 8.84765625 C1.87699219 9.55792969 1.93757813 10.26820312 2 11 C0.68 11 -0.64 11 -2 11 C-2 8.03 -2 5.06 -2 2 C-3.32 2.33 -4.64 2.66 -6 3 C-6.33 5.97 -6.66 8.94 -7 12 C-7.99 12 -8.98 12 -10 12 C-10.33 8.04 -10.66 4.08 -11 0 C-6.99756684 -0.83771857 -3.95651739 -1.13043354 0 0 Z " fill="#362F2C" transform="translate(123,51)"/>
<path d="M0 0 C9.24 0 18.48 0 28 0 C28 0.99 28 1.98 28 3 C18.76 3 9.52 3 0 3 C0 2.01 0 1.02 0 0 Z " fill="#BCBABB" transform="translate(94,174)"/>
<path d="M0 0 C0.99 0 1.98 0 3 0 C3 3.96 3 7.92 3 12 C0.36 12 -2.28 12 -5 12 C-5.36923077 7.44615385 -5.36923077 7.44615385 -3.5 5.1875 C-2.7575 4.5996875 -2.7575 4.5996875 -2 4 C-2.99 4.33 -3.98 4.66 -5 5 C-4.67 4.01 -4.34 3.02 -4 2 C-2.68 2 -1.36 2 0 2 C0 1.34 0 0.68 0 0 Z " fill="#A4A4A4" transform="translate(78,318)"/>
<path d="M0 0 C2.97 0 5.94 0 9 0 C9 0.99 9 1.98 9 3 C8.34 3 7.68 3 7 3 C7 3.66 7 4.32 7 5 C-0.59 5 -8.18 5 -16 5 C-16.33 4.34 -16.66 3.68 -17 3 C-11.39 3 -5.78 3 0 3 C0 2.01 0 1.02 0 0 Z " fill="#7E7A7F" transform="translate(103,147)"/>
<path d="M0 0 C0.80824219 0.11085938 1.61648437 0.22171875 2.44921875 0.3359375 C3.37154297 0.47902344 3.37154297 0.47902344 4.3125 0.625 C4.69468767 2.28114657 5.02645102 3.94957024 5.3125 5.625 C4.3125 6.625 4.3125 6.625 1.80859375 6.72265625 C0.29458984 6.70525391 0.29458984 6.70525391 -1.25 6.6875 C-2.26191406 6.67847656 -3.27382812 6.66945313 -4.31640625 6.66015625 C-5.09886719 6.64855469 -5.88132812 6.63695313 -6.6875 6.625 C-7.0175 4.975 -7.3475 3.325 -7.6875 1.625 C-4.33422361 -0.61051759 -3.78006343 -0.54783528 0 0 Z " fill="#BAB8B8" transform="translate(76.6875,67.375)"/>
<path d="M0 0 C5.28 0 10.56 0 16 0 C15.67 1.65 15.34 3.3 15 5 C13.39620659 5.05416188 11.79188594 5.09286638 10.1875 5.125 C9.29417969 5.14820313 8.40085938 5.17140625 7.48046875 5.1953125 C5 5 5 5 2 3 C2.33 2.34 2.66 1.68 3 1 C2.34 1 1.68 1 1 1 C0.67 1.99 0.34 2.98 0 4 C0 2.68 0 1.36 0 0 Z " fill="#CACACA" transform="translate(200,325)"/>
<path d="M0 0 C0.33 0.66 0.66 1.32 1 2 C1.66 2 2.32 2 3 2 C3.33 1.34 3.66 0.68 4 0 C6.97 0.33 9.94 0.66 13 1 C13 2.32 13 3.64 13 5 C11.02 5.66 9.04 6.32 7 7 C6.67 6.34 6.34 5.68 6 5 C2.7 5 -0.6 5 -4 5 C-4.33 3.68 -4.66 2.36 -5 1 C-4.34 1.66 -3.68 2.32 -3 3 C-2.01 2.01 -1.02 1.02 0 0 Z " fill="#8B8988" transform="translate(44,325)"/>
<path d="M0 0 C1.32 0.33 2.64 0.66 4 1 C3.01 1 2.02 1 1 1 C1 1.66 1 2.32 1 3 C1.86625 2.649375 2.7325 2.29875 3.625 1.9375 C7.24825242 0.931041 9.3853322 1.13936481 13 2 C13 3.65 13 5.3 13 7 C10.03 6.505 10.03 6.505 7 6 C7 5.01 7 4.02 7 3 C6.34 3 5.68 3 5 3 C5 4.32 5 5.64 5 7 C1.28400809 7.20086443 0.22791555 7.1519437 -3 5 C-3 4.34 -3 3.68 -3 3 C-2.34 3 -1.68 3 -1 3 C-0.67 2.01 -0.34 1.02 0 0 Z " fill="#C3C3C2" transform="translate(78,77)"/>
<path d="M0 0 C1.52519276 0.08937803 3.04681929 0.24537146 4.5625 0.4375 C5.38878906 0.53933594 6.21507813 0.64117187 7.06640625 0.74609375 C7.70449219 0.82988281 8.34257813 0.91367188 9 1 C9 2.65 9 4.3 9 6 C8.360625 5.814375 7.72125 5.62875 7.0625 5.4375 C6.0415625 5.2209375 6.0415625 5.2209375 5 5 C4.67 5.33 4.34 5.66 4 6 C1.66055264 5.71269945 -0.6739143 5.38063221 -3 5 C-3 4.01 -3 3.02 -3 2 C-3.66 2 -4.32 2 -5 2 C-4.67 2.99 -4.34 3.98 -4 5 C-4.66 5.66 -5.32 6.32 -6 7 C-6 5.02 -6 3.04 -6 1 C-4.7934375 1.0309375 -4.7934375 1.0309375 -3.5625 1.0625 C-1.06645115 1.29633621 -1.06645115 1.29633621 0 0 Z " fill="#BEBCBA" transform="translate(117,68)"/>
<path d="M0 0 C0.99 0 1.98 0 3 0 C3 0.99 3 1.98 3 3 C3.99 3 4.98 3 6 3 C6 3.99 6 4.98 6 6 C5.01 6 4.02 6 3 6 C3.34227572 8.97065509 3.34227572 8.97065509 4 12 C4.66 12.33 5.32 12.66 6 13 C6 13.99 6 14.98 6 16 C3.13275314 15.42655063 2.1385485 15.1385485 0 13 C-0.44921875 10.9765625 -0.44921875 10.9765625 -0.6875 8.625 C-0.77386719 7.85414062 -0.86023438 7.08328125 -0.94921875 6.2890625 C-1.00027694 3.98751626 -0.66593825 2.19308988 0 0 Z " fill="#2D2723" transform="translate(81,47)"/>
<path d="M0 0 C0.66 0 1.32 0 2 0 C2 7.59 2 15.18 2 23 C1.67 23 1.34 23 1 23 C0.67 16.73 0.34 10.46 0 4 C-3.86469098 7.94379739 -3.86469098 7.94379739 -7.71826172 11.8984375 C-9.1085825 13.30315853 -10.55326391 14.65345339 -12 16 C-12.66 16 -13.32 16 -14 16 C-14 14 -14 14 -12 11.8125 C-9.00907825 8.92471348 -5.84221906 6.23842255 -2.671875 3.55078125 C-0.89673637 2.08649533 -0.89673637 2.08649533 0 0 Z " fill="#6982B6" transform="translate(244,3)"/>
<path d="M0 0 C2.97 0 5.94 0 9 0 C9 0.66 9 1.32 9 2 C7.02 2 5.04 2 3 2 C3 3.32 3 4.64 3 6 C4.98 6 6.96 6 9 6 C9 6.99 9 7.98 9 9 C6.03 9 3.06 9 0 9 C0 6.03 0 3.06 0 0 Z " fill="#F9CC2D" transform="translate(27,320)"/>
<path d="M0 0 C1.32 0.33 2.64 0.66 4 1 C3.01 1 2.02 1 1 1 C1 1.66 1 2.32 1 3 C1.90363281 2.855625 2.80726562 2.71125 3.73828125 2.5625 C4.91777344 2.376875 6.09726562 2.19125 7.3125 2 C8.48425781 1.814375 9.65601562 1.62875 10.86328125 1.4375 C14 1 14 1 17 1 C17 2.65 17 4.3 17 6 C16.01 6 15.02 6 14 6 C14 5.01 14 4.02 14 3 C13.34 3 12.68 3 12 3 C12 3.99 12 4.98 12 6 C11.01 5.67 10.02 5.34 9 5 C9.33 4.34 9.66 3.68 10 3 C9.34 3 8.68 3 8 3 C8 3.99 8 4.98 8 6 C6.68 6 5.36 6 4 6 C4 5.34 4 4.68 4 4 C3.01 4 2.02 4 1 4 C0.67 4.66 0.34 5.32 0 6 C0 4.02 0 2.04 0 0 Z " fill="#B2B3B0" transform="translate(57,77)"/>
<path d="M0 0 C0.66 0.33 1.32 0.66 2 1 C2 1.99 2 2.98 2 4 C-0.64 4 -3.28 4 -6 4 C-6.66 6.31 -7.32 8.62 -8 11 C-8.66 10.01 -9.32 9.02 -10 8 C-10.66 8.99 -11.32 9.98 -12 11 C-12.46233492 7.0239197 -12.30954571 5.43148796 -9.9375 2.125 C-6.31955244 -0.49223866 -4.37362014 -0.49512681 0 0 Z " fill="#423A38" transform="translate(40,25)"/>
<path d="M0 0 C0.33 0 0.66 0 1 0 C1 2.31 1 4.62 1 7 C1.99 7 2.98 7 4 7 C4 4.69 4 2.38 4 0 C5.98 0 7.96 0 10 0 C9.34 2.97 8.68 5.94 8 9 C5.66705225 9.04241723 3.33297433 9.04092937 1 9 C0 8 0 8 -0.09765625 6.15234375 C-0.06510417 4.1015625 -0.03255208 2.05078125 0 0 Z " fill="#7A7A7A" transform="translate(82,321)"/>
<path d="M0 0 C2.64 0 5.28 0 8 0 C8 0.66 8 1.32 8 2 C7.01 2.66 6.02 3.32 5 4 C4.42251197 5.96361864 4.42251197 5.96361864 4.3125 8.125 C4.1578125 10.043125 4.1578125 10.043125 4 12 C3.01 12 2.02 12 1 12 C0.67 8.04 0.34 4.08 0 0 Z " fill="#332C29" transform="translate(41,51)"/>
<path d="M0 0 C1.32 0.66 2.64 1.32 4 2 C4 2.66 4 3.32 4 4 C3.34 4 2.68 4 2 4 C2 5.32 2 6.64 2 8 C4.64 8 7.28 8 10 8 C10 8.33 10 8.66 10 9 C3.73 9 -2.54 9 -9 9 C-9 8.67 -9 8.34 -9 8 C-6.03 8 -3.06 8 0 8 C0 6.68 0 5.36 0 4 C-0.66 4 -1.32 4 -2 4 C-1.34 2.68 -0.68 1.36 0 0 Z " fill="#D7F1FA" transform="translate(44,106)"/>
<path d="M0 0 C-0.33 1.32 -0.66 2.64 -1 4 C-4.05847848 4.54372951 -6.88772805 5 -10 5 C-10 3.35 -10 1.7 -10 0 C-6.30458414 -0.95024979 -3.69541586 -0.95024979 0 0 Z " fill="#BFBDBC" transform="translate(139,69)"/>
<path d="M0 0 C1.46484375 1.23697917 2.9296875 2.47395833 4.39453125 3.7109375 C5.8655046 4.89201099 7.43037794 5.95358529 9 7 C8.34 7 7.68 7 7 7 C7 7.66 7 8.32 7 9 C4.2351335 9.22417836 2.53722513 9.32233508 0.125 7.875 C-1.55290631 5.07848948 -0.74875648 3.06309468 0 0 Z " fill="#DEE0ED" transform="translate(14,234)"/>
<path d="M0 0 C4.29 0 8.58 0 13 0 C12.67 1.32 12.34 2.64 12 4 C5.25 5.125 5.25 5.125 3 4 C3 3.01 3 2.02 3 1 C2.34 1 1.68 1 1 1 C0.67 1.99 0.34 2.98 0 4 C0 2.68 0 1.36 0 0 Z " fill="#A9A8A7" transform="translate(42,79)"/>
<path d="M0 0 C1.32 0 2.64 0 4 0 C4.06058594 0.61488281 4.12117188 1.22976562 4.18359375 1.86328125 C4.26738281 2.67152344 4.35117188 3.47976562 4.4375 4.3125 C4.51871094 5.11300781 4.59992188 5.91351563 4.68359375 6.73828125 C4.95265693 9.16087179 4.95265693 9.16087179 6 12 C4.35 11.67 2.7 11.34 1 11 C0.67 7.37 0.34 3.74 0 0 Z " fill="#221916" transform="translate(61,30)"/>
<path d="M0 0 C1.65 0.33 3.3 0.66 5 1 C5 3.31 5 5.62 5 8 C3.35 8.33 1.7 8.66 0 9 C-0.33 7.35 -0.66 5.7 -1 4 C-0.01 3.67 0.98 3.34 2 3 C2.33 2.34 2.66 1.68 3 1 C1.68 1.33 0.36 1.66 -1 2 C-0.67 1.34 -0.34 0.68 0 0 Z " fill="#7A7A7A" transform="translate(94,321)"/>
<path d="M0 0 C1.67542976 0.28604898 3.34385343 0.61781233 5 1 C5 2.65 5 4.3 5 6 C2.625 6.625 2.625 6.625 0 7 C-0.66 6.34 -1.32 5.68 -2 5 C-1.46428571 1.46428571 -1.46428571 1.46428571 0 0 Z " fill="#EFEEEC" transform="translate(55,53)"/>
<path d="M0 0 C3.96 0 7.92 0 12 0 C12 1.32 12 2.64 12 4 C10.68 4 9.36 4 8 4 C8 3.01 8 2.02 8 1 C7.34 1 6.68 1 6 1 C6 1.99 6 2.98 6 4 C4.35 4.33 2.7 4.66 1 5 C0.67 3.35 0.34 1.7 0 0 Z " fill="#BDBDBC" transform="translate(28,79)"/>
<path d="M0 0 C3.375 1 3.375 1 4.8125 3.0625 C5.0909375 4.0215625 5.0909375 4.0215625 5.375 5 C3.38932292 4.70703125 1.40364583 4.4140625 -0.58203125 4.12109375 C-2.8275342 3.86095201 -2.8275342 3.86095201 -5.625 5 C-6.83382096 7.00016466 -6.83382096 7.00016466 -7.625 9 C-7.98151483 5.79136651 -7.86183549 4.35998994 -6.0625 1.625 C-3.625 0 -3.625 0 0 0 Z " fill="#494342" transform="translate(57.625,50)"/>
<path d="M0 0 C1.67542976 0.28604898 3.34385343 0.61781233 5 1 C5 2.65 5 4.3 5 6 C3.34385343 6.38218767 1.67542976 6.71395102 0 7 C-1 6 -1 6 -1.125 3.5 C-1 1 -1 1 0 0 Z " fill="#E8E7E5" transform="translate(131,53)"/>
<path d="M0 0 C2.125 0.375 2.125 0.375 4 1 C4.625 2.875 4.625 2.875 5 5 C4.34 5.66 3.68 6.32 3 7 C0.875 6.625 0.875 6.625 -1 6 C-1.625 4.125 -1.625 4.125 -2 2 C-1.34 1.34 -0.68 0.68 0 0 Z " fill="#D1D1CF" transform="translate(30,67)"/>
<path d="M0 0 C0.99 0 1.98 0 3 0 C4.20272819 2.40545638 4.10071472 3.94996953 4.0625 6.625 C4.05347656 7.44226562 4.04445313 8.25953125 4.03515625 9.1015625 C4.02355469 9.72804688 4.01195312 10.35453125 4 11 C3.01 11.495 3.01 11.495 2 12 C2 11.01 2 10.02 2 9 C1.34 9 0.68 9 0 9 C0 6.03 0 3.06 0 0 Z " fill="#E5E3E1" transform="translate(58,30)"/>
<path d="M0 0 C1.32 0 2.64 0 4 0 C4.33 3.63 4.66 7.26 5 11 C3.68 10.67 2.36 10.34 1 10 C0.67 6.7 0.34 3.4 0 0 Z " fill="#2C2525" transform="translate(46,30)"/>
<path d="M0 0 C0.99 0.33 1.98 0.66 3 1 C2.01 1.99 1.02 2.98 0 4 C0.99 4 1.98 4 3 4 C3 3.34 3 2.68 3 2 C3.94875 2.185625 4.8975 2.37125 5.875 2.5625 C8.89868793 3.28686632 8.89868793 3.28686632 11 2 C11 2.99 11 3.98 11 5 C8.03 5 5.06 5 2 5 C2 5.66 2 6.32 2 7 C1.34 7 0.68 7 0 7 C-0.38133299 5.0085944 -0.71325582 3.00720923 -1 1 C-0.67 0.67 -0.34 0.34 0 0 Z " fill="#8E8C8B" transform="translate(40,319)"/>
<path d="M0 0 C4.41657638 2.03841987 8.55257742 4.55257742 12 8 C12.125 11.125 12.125 11.125 12 14 C11.01 14.495 11.01 14.495 10 15 C9.95875 13.906875 9.9175 12.81375 9.875 11.6875 C9.58625 10.470625 9.2975 9.25375 9 8 C6.13343033 6.31668061 6.13343033 6.31668061 3 5 C1.125 2.3125 1.125 2.3125 0 0 Z " fill="#7CC6DE" transform="translate(49,95)"/>
<path d="M0 0 C0.99 0.33 1.98 0.66 3 1 C-0.96 4.96 -4.92 8.92 -9 13 C-9.99 12.67 -10.98 12.34 -12 12 C-11.34 12 -10.68 12 -10 12 C-9.67 11.01 -9.34 10.02 -9 9 C-7.3777546 7.29006566 -5.70586575 5.62652316 -4 4 C-3.236875 3.236875 -2.47375 2.47375 -1.6875 1.6875 C-1.130625 1.130625 -0.57375 0.57375 0 0 Z " fill="#6780B4" transform="translate(222,25)"/>
<path d="M0 0 C0.99 0.33 1.98 0.66 3 1 C3 1.99 3 2.98 3 4 C4.65 3.01 6.3 2.02 8 1 C7.34 2.32 6.68 3.64 6 5 C5.34 5 4.68 5 4 5 C4 5.66 4 6.32 4 7 C3.34 7 2.68 7 2 7 C2 6.34 2 5.68 2 5 C0.68 4.67 -0.64 4.34 -2 4 C-1.34 2.68 -0.68 1.36 0 0 Z " fill="#E4B96D" transform="translate(169,184)"/>
<path d="M0 0 C1.4540625 0.0309375 1.4540625 0.0309375 2.9375 0.0625 C2.9375 1.3825 2.9375 2.7025 2.9375 4.0625 C0.9575 4.7225 -1.0225 5.3825 -3.0625 6.0625 C-3.44468767 4.40635343 -3.77645102 2.73792976 -4.0625 1.0625 C-3.0625 0.0625 -3.0625 0.0625 0 0 Z " fill="#9E9C9A" transform="translate(54.0625,325.9375)"/>
<path d="M0 0 C2.31 0 4.62 0 7 0 C6.67 0.66 6.34 1.32 6 2 C6.33 2.99 6.66 3.98 7 5 C4.69 5 2.38 5 0 5 C0 3.35 0 1.7 0 0 Z " fill="#C1C1C1" transform="translate(218,325)"/>
<path d="M0 0 C2.625 0.375 2.625 0.375 5 1 C4.67 1.99 4.34 2.98 4 4 C3.01 4 2.02 4 1 4 C0.87625 4.639375 0.7525 5.27875 0.625 5.9375 C0.41875 6.618125 0.2125 7.29875 0 8 C-0.99 8.495 -0.99 8.495 -2 9 C-2.125 5.625 -2.125 5.625 -2 2 C-1.34 1.34 -0.68 0.68 0 0 Z " fill="#DCDCDC" transform="translate(92,321)"/>
<path d="M0 0 C0.33 0 0.66 0 1 0 C1.05437607 1.58294782 1.09296271 3.16644256 1.125 4.75 C1.14820313 5.63171875 1.17140625 6.5134375 1.1953125 7.421875 C0.99139502 10.1135858 0.36551721 11.69904974 -1 14 C-1.33 11.36 -1.66 8.72 -2 6 C-2.99 6 -3.98 6 -5 6 C-3.35830472 3.97945196 -1.69088222 1.97956942 0 0 Z " fill="#EFF1F5" transform="translate(47,208)"/>
<path d="M0 0 C2 2 2 2 2 5 C1.34 5 0.68 5 0 5 C0 5.66 0 6.32 0 7 C-1.65 7.33 -3.3 7.66 -5 8 C-5.33 9.98 -5.66 11.96 -6 14 C-6.33 14 -6.66 14 -7 14 C-7.36521739 7.54782609 -7.36521739 7.54782609 -5.75 5.125 C-3.83656302 3.89493337 -2.23288365 3.38497994 0 3 C0 2.01 0 1.02 0 0 Z " fill="#544F4D" transform="translate(134,46)"/>
<path d="M0 0 C0.268125 0.598125 0.53625 1.19625 0.8125 1.8125 C2.83614662 5.54027009 5.15900412 7.27817426 9 9 C7.72125 9.061875 6.4425 9.12375 5.125 9.1875 C4.40570313 9.22230469 3.68640625 9.25710937 2.9453125 9.29296875 C2.30335937 9.19628906 1.66140625 9.09960938 1 9 C-1.14809171 5.77786243 -1.29386153 4.72224599 -1 1 C-0.67 0.67 -0.34 0.34 0 0 Z " fill="#28211F" transform="translate(30,32)"/>
<path d="M0 0 C2.64 0 5.28 0 8 0 C8.625 2.3125 8.625 2.3125 9 5 C8.01 6.485 8.01 6.485 7 8 C6.67 6.35 6.34 4.7 6 3 C4.02 3 2.04 3 0 3 C0 2.01 0 1.02 0 0 Z " fill="#2C2521" transform="translate(69,30)"/>
<path d="M0 0 C0.33 0.99 0.66 1.98 1 3 C0.67 3.66 0.34 4.32 0 5 C5.28 5 10.56 5 16 5 C16 5.33 16 5.66 16 6 C13.22858283 6.08089542 10.45952181 6.14044062 7.6875 6.1875 C6.90181641 6.21263672 6.11613281 6.23777344 5.30664062 6.26367188 C4.54931641 6.27333984 3.79199219 6.28300781 3.01171875 6.29296875 C2.31522217 6.3086792 1.61872559 6.32438965 0.90112305 6.34057617 C-1.54489783 5.90238443 -2.42702086 4.86562642 -4 3 C-2.68 2.01 -1.36 1.02 0 0 Z " fill="#576871" transform="translate(79,157)"/>
<path d="M0 0 C0.99 0 1.98 0 3 0 C3 0.99 3 1.98 3 3 C3.99 3 4.98 3 6 3 C6 3.99 6 4.98 6 6 C3 5 3 5 1 4 C1 6.97 1 9.94 1 13 C0.67 13 0.34 13 0 13 C-0.19658808 11.58456585 -0.38187546 10.16755969 -0.5625 8.75 C-0.66691406 7.96109375 -0.77132812 7.1721875 -0.87890625 6.359375 C-1.00027349 3.99467126 -0.69633257 2.2488963 0 0 Z " fill="#4D4543" transform="translate(81,47)"/>
<path d="M0 0 C0.66 0 1.32 0 2 0 C2 0.99 2 1.98 2 3 C2.99 3 3.98 3 5 3 C5 2.34 5 1.68 5 1 C5.66 1 6.32 1 7 1 C7.33 1.33 7.66 1.66 8 2 C9.32 1.34 10.64 0.68 12 0 C11.67 1.32 11.34 2.64 11 4 C7.37 4 3.74 4 0 4 C0 2.68 0 1.36 0 0 Z " fill="#D5D4D3" transform="translate(70,70)"/>
<path d="M0 0 C-0.33 0.99 -0.66 1.98 -1 3 C-1 2.34 -1 1.68 -1 1 C-1.66 1 -2.32 1 -3 1 C-3.33 2.32 -3.66 3.64 -4 5 C-4 4.34 -4 3.68 -4 3 C-5.32 3 -6.64 3 -8 3 C-8.66 3.66 -9.32 4.32 -10 5 C-10.33 4.01 -10.66 3.02 -11 2 C-10.34 2 -9.68 2 -9 2 C-9 1.34 -9 0.68 -9 0 C-5.67465243 -1.10844919 -3.37817425 -0.84454356 0 0 Z " fill="#D5D4D3" transform="translate(51,324)"/>
<path d="M0 0 C0 0.99 0 1.98 0 3 C-0.66 3.66 -1.32 4.32 -2 5 C-1.34 5.66 -0.68 6.32 0 7 C0.66 6.67 1.32 6.34 2 6 C1.34 7.32 0.68 8.64 0 10 C-3.16115776 8.63016497 -3.9927092 8.0109362 -6 5 C-4.02 3.35 -2.04 1.7 0 0 Z " fill="#D4AF6B" transform="translate(161,170)"/>
<path d="M0 0 C3.96 0 7.92 0 12 0 C12 1.32 12 2.64 12 4 C10.906875 3.835 9.81375 3.67 8.6875 3.5 C5.12474127 2.93281816 5.12474127 2.93281816 2 3 C1.34 3 0.68 3 0 3 C0 2.01 0 1.02 0 0 Z " fill="#4C4644" transform="translate(98,46)"/>
<path d="M0 0 C1.98 0.66 3.96 1.32 6 2 C5.67 2.99 5.34 3.98 5 5 C2.69 5.33 0.38 5.66 -2 6 C-1.34 4.02 -0.68 2.04 0 0 Z " fill="#ACACAC" transform="translate(184,263)"/>
<path d="M0 0 C1.32 0.33 2.64 0.66 4 1 C3.01 1 2.02 1 1 1 C1 1.66 1 2.32 1 3 C2.98 2.67 4.96 2.34 7 2 C7.33 3.32 7.66 4.64 8 6 C6.68 6 5.36 6 4 6 C4 5.34 4 4.68 4 4 C3.01 4 2.02 4 1 4 C0.67 4.66 0.34 5.32 0 6 C0 4.02 0 2.04 0 0 Z " fill="#B9B9B9" transform="translate(57,77)"/>
<path d="M0 0 C2.64 0 5.28 0 8 0 C8 0.99 8 1.98 8 3 C7.67 2.67 7.34 2.34 7 2 C6.67 2.66 6.34 3.32 6 4 C2.9375 4.625 2.9375 4.625 0 5 C0 4.34 0 3.68 0 3 C0.99 3 1.98 3 3 3 C3 2.34 3 1.68 3 1 C2.01 1.33 1.02 1.66 0 2 C0 1.34 0 0.68 0 0 Z " fill="#B3B1AF" transform="translate(85,69)"/>
<path d="M0 0 C-0.99 0.33 -1.98 0.66 -3 1 C-2.67 1.99 -2.34 2.98 -2 4 C-2.99 4 -3.98 4 -5 4 C-5 3.01 -5 2.02 -5 1 C-5.66 1 -6.32 1 -7 1 C-7 1.99 -7 2.98 -7 4 C-7.66 4 -8.32 4 -9 4 C-9 3.01 -9 2.02 -9 1 C-9.99 1.33 -10.98 1.66 -12 2 C-12 1.34 -12 0.68 -12 0 C-7.91556885 -1.53166168 -4.20544343 -0.63081652 0 0 Z " fill="#AEABAA" transform="translate(66,69)"/>
<path d="M0 0 C1.65 0 3.3 0 5 0 C5 2.64 5 5.28 5 8 C4.34 7.67 3.68 7.34 3 7 C3.33 6.34 3.66 5.68 4 5 C3.01 5 2.02 5 1 5 C0.67 5.99 0.34 6.98 0 8 C0 4 0 4 1.5 2.25 C1.995 1.8375 2.49 1.425 3 1 C2.01 1.33 1.02 1.66 0 2 C0 1.34 0 0.68 0 0 Z " fill="#5A5B59" transform="translate(73,321)"/>
<path d="M0 0 C2.31 0.33 4.62 0.66 7 1 C7.33 2.32 7.66 3.64 8 5 C6.68 5 5.36 5 4 5 C4 4.01 4 3.02 4 2 C3.34 2 2.68 2 2 2 C1.67 2.99 1.34 3.98 1 5 C0.67 3.35 0.34 1.7 0 0 Z " fill="#C2C0BF" transform="translate(47,68)"/>
<path d="M0 0 C0.99 0.495 0.99 0.495 2 1 C2 2.65 2 4.3 2 6 C2.99 6 3.98 6 5 6 C5 6.99 5 7.98 5 9 C3.35 8.67 1.7 8.34 0 8 C0 5.36 0 2.72 0 0 Z " fill="#4A4444" transform="translate(74,54)"/>
<path d="M0 0 C2.125 0.375 2.125 0.375 4 1 C3.01 1 2.02 1 1 1 C1.33 1.66 1.66 2.32 2 3 C2.06996014 4.70702735 2.08440154 6.41668003 2.0625 8.125 C2.05347656 9.03507812 2.04445313 9.94515625 2.03515625 10.8828125 C2.02355469 11.58148438 2.01195313 12.28015625 2 13 C1.67 13 1.34 13 1 13 C0.67 11.35 0.34 9.7 0 8 C-0.33 8 -0.66 8 -1 8 C-1.625 5.125 -1.625 5.125 -2 2 C-1.34 1.34 -0.68 0.68 0 0 Z " fill="#C9C8C7" transform="translate(64,50)"/>
<path d="M0 0 C0.33 0 0.66 0 1 0 C1.33 5.61 1.66 11.22 2 17 C0.35 16.67 -1.3 16.34 -3 16 C-2.34 15.34 -1.68 14.68 -1 14 C-0.69940057 11.63490639 -0.50484988 9.25558119 -0.375 6.875 C-0.30023438 5.59367187 -0.22546875 4.31234375 -0.1484375 2.9921875 C-0.09945312 2.00476562 -0.05046875 1.01734375 0 0 Z " fill="#615A57" transform="translate(138,46)"/>
<path d="M0 0 C0.33 0.66 0.66 1.32 1 2 C0.0625 4.625 0.0625 4.625 -1 7 C-1.99 7 -2.98 7 -4 7 C-4 5.68 -4 4.36 -4 3 C-4.66 2.67 -5.32 2.34 -6 2 C-4.02 1.34 -2.04 0.68 0 0 Z " fill="#928B89" transform="translate(75,33)"/>
<path d="M0 0 C0.33 1.32 0.66 2.64 1 4 C3.64 3.67 6.28 3.34 9 3 C9 3.99 9 4.98 9 6 C6.03 6 3.06 6 0 6 C0 4.02 0 2.04 0 0 Z " fill="#221C1B" transform="translate(101,56)"/>
<path d="M0 0 C3.63 0 7.26 0 11 0 C11 1.32 11 2.64 11 4 C3.34782609 2.7826087 3.34782609 2.7826087 1 2 C0.67 1.34 0.34 0.68 0 0 Z " fill="#433D3B" transform="translate(29,46)"/>
<path d="M0 0 C-0.33 1.32 -0.66 2.64 -1 4 C-2.65 4 -4.3 4 -6 4 C-6 2.68 -6 1.36 -6 0 C-3.50907189 -1.24546405 -2.58919267 -0.7767578 0 0 Z " fill="#949392" transform="translate(59,321)"/>
<path d="M0 0 C0.66 0.33 1.32 0.66 2 1 C-0.3125 3.5 -0.3125 3.5 -3 6 C-3.99 6 -4.98 6 -6 6 C-5.67 4.68 -5.34 3.36 -5 2 C-3.68 2 -2.36 2 -1 2 C-0.67 1.34 -0.34 0.68 0 0 Z " fill="#E4BB6F" transform="translate(190,200)"/>
<path d="M0 0 C2.64 0 5.28 0 8 0 C7.67 0.99 7.34 1.98 7 3 C4.69 3 2.38 3 0 3 C0 2.01 0 1.02 0 0 Z " fill="#645B5F" transform="translate(90,186)"/>
<path d="M0 0 C3.63 0 7.26 0 11 0 C10.67 0.66 10.34 1.32 10 2 C7.93359375 2.4140625 7.93359375 2.4140625 5.4375 2.625 C4.61121094 2.69976562 3.78492188 2.77453125 2.93359375 2.8515625 C1.97646484 2.92503906 1.97646484 2.92503906 1 3 C0.67 2.01 0.34 1.02 0 0 Z " fill="#F5F2ED" transform="translate(170,159)"/>
<path d="M0 0 C2 0 4 0 6 0 C6 0.66 6 1.32 6 2 C6.66 2.66 7.32 3.32 8 4 C5.03 4 2.06 4 -1 4 C-0.67 2.68 -0.34 1.36 0 0 Z " fill="#D5D3D1" transform="translate(91,70)"/>
<path d="M0 0 C0.66 0.66 1.32 1.32 2 2 C1.69903201 6.13830989 1.32101984 8.51847024 -1 12 C-1.14285714 3.42857143 -1.14285714 3.42857143 0 0 Z " fill="#DDDBDB" transform="translate(45,30)"/>
<path d="M0 0 C2.31 0 4.62 0 7 0 C6.67 1.32 6.34 2.64 6 4 C4.68 3.67 3.36 3.34 2 3 C2.33 2.34 2.66 1.68 3 1 C2.34 1 1.68 1 1 1 C0.67 1.99 0.34 2.98 0 4 C0 2.68 0 1.36 0 0 Z " fill="#B2B2B2" transform="translate(200,325)"/>
<path d="M0 0 C0 0.66 0 1.32 0 2 C-1.65 1.67 -3.3 1.34 -5 1 C-5 1.99 -5 2.98 -5 4 C-5.99 3.67 -6.98 3.34 -8 3 C-7.67 2.34 -7.34 1.68 -7 1 C-7.99 0.67 -8.98 0.34 -10 0 C-2.25 -1.125 -2.25 -1.125 0 0 Z " fill="#A8A6A5" transform="translate(104,69)"/>
<path d="M0 0 C0.66 1.32 1.32 2.64 2 4 C0.02 4.99 0.02 4.99 -2 6 C-2.99 4.68 -3.98 3.36 -5 2 C-3.35 1.34 -1.7 0.68 0 0 Z " fill="#F5CF88" transform="translate(193,208)"/>
<path d="M0 0 C0.66 0 1.32 0 2 0 C1.67 1.32 1.34 2.64 1 4 C-1.31 4.33 -3.62 4.66 -6 5 C-5.67 3.68 -5.34 2.36 -5 1 C-3.35 1.33 -1.7 1.66 0 2 C0 1.34 0 0.68 0 0 Z " fill="#C4C3C2" transform="translate(53,79)"/>
<path d="M0 0 C1.98 0 3.96 0 6 0 C6 1.32 6 2.64 6 4 C5.01 4 4.02 4 3 4 C3 3.01 3 2.02 3 1 C2.34 1 1.68 1 1 1 C1.33 1.99 1.66 2.98 2 4 C1.34 4.66 0.68 5.32 0 6 C0 4.02 0 2.04 0 0 Z " fill="#B0AEAC" transform="translate(111,69)"/>
<path d="M0 0 C0.99 0.66 1.98 1.32 3 2 C2.67 4.64 2.34 7.28 2 10 C0.68 9.67 -0.64 9.34 -2 9 C-1.01 9 -0.02 9 1 9 C0.67 8.34 0.34 7.68 0 7 C-0.04022391 4.6670134 -0.04320247 2.33293334 0 0 Z " fill="#CCC9C7" transform="translate(124,53)"/>
<path d="M0 0 C0.33 0 0.66 0 1 0 C1.103125 0.94875 1.20625 1.8975 1.3125 2.875 C1.68539295 6.29107501 1.68539295 6.29107501 5 8 C5 8.66 5 9.32 5 10 C3.35 9.67 1.7 9.34 0 9 C0 6.03 0 3.06 0 0 Z " fill="#504A47" transform="translate(62,32)"/>
<path d="M0 0 C3.3 0 6.6 0 10 0 C8.515 1.485 8.515 1.485 7 3 C4.525 2.01 4.525 2.01 2 1 C2 1.66 2 2.32 2 3 C1.01 3 0.02 3 -1 3 C-0.67 2.01 -0.34 1.02 0 0 Z " fill="#DCDADA" transform="translate(41,320)"/>
<path d="M0 0 C0.33 0.66 0.66 1.32 1 2 C1.66 2 2.32 2 3 2 C2.34 3.32 1.68 4.64 1 6 C0.34 6 -0.32 6 -1 6 C-1.625 4.125 -1.625 4.125 -2 2 C-1.34 1.34 -0.68 0.68 0 0 Z " fill="#E7C070" transform="translate(219,235)"/>
</svg>
