<?xml version="1.0" encoding="UTF-8"?>
<svg version="1.1" xmlns="http://www.w3.org/2000/svg" width="35" height="35">
<path d="M0 0 C4.88006234 2.62528299 8.1174457 6.04374335 9.86328125 11.28125 C10.5609433 18.463738 10.25864329 23.46036514 5.86328125 29.28125 C0.68922816 34.07671383 -3.49885434 34.63483707 -10.34375 34.5625 C-15.70872664 34.0222506 -18.84963691 31.66994356 -22.51171875 27.71875 C-25.91114242 22.61961449 -25.73412558 17.21383176 -25.13671875 11.28125 C-23.49502873 6.40079107 -20.38748178 3.11509202 -16.13671875 0.28125 C-11.04065361 -1.41743838 -5.14382507 -1.73028119 0 0 Z " fill="#8D8D8D" transform="translate(25.13671875,0.71875)"/>
<path d="M0 0 C0.95310059 0.01047363 1.90620117 0.02094727 2.88818359 0.03173828 C4.43505859 0.04140625 4.43505859 0.04140625 6.01318359 0.05126953 C7.63353516 0.07640625 7.63353516 0.07640625 9.28662109 0.10205078 C10.37458984 0.11107422 11.46255859 0.12009766 12.58349609 0.12939453 C15.27642261 0.15301669 17.96891365 0.18595522 20.66162109 0.22705078 C20.88037109 5.88330078 20.88037109 5.88330078 18.91162109 8.97705078 C15.46162109 12.42705078 15.46162109 12.42705078 12.66162109 13.22705078 C8.14050735 12.98484826 4.92830233 12.49373202 1.66162109 9.22705078 C1.66162109 8.56705078 1.66162109 7.90705078 1.66162109 7.22705078 C0.01162109 7.22705078 -1.63837891 7.22705078 -3.33837891 7.22705078 C-3.96337891 4.85205078 -3.96337891 4.85205078 -4.33837891 2.22705078 C-2.33837891 0.22705078 -2.33837891 0.22705078 0 0 Z " fill="#F4F4F4" transform="translate(7.33837890625,16.77294921875)"/>
</svg>
