<?xml version="1.0" encoding="UTF-8"?>
<svg version="1.1" xmlns="http://www.w3.org/2000/svg" width="35" height="35">
<path d="M0 0 C5.82058504 2.8483714 9.11823557 7.33939129 12 13 C13.67886768 17.97131376 13.11925646 22.42099178 11.08984375 27.171875 C8.7118529 31.16076288 5.40355221 33.53214926 1 35 C-5.53422335 35.77245664 -9.71121222 34.94066541 -15 31 C-18.65355702 26.76956556 -20.25186083 22.59340922 -20 17 C-18.81109244 10.81539434 -16.14188025 7.50085464 -11 4 C-10.34 4 -9.68 4 -9 4 C-9 3.34 -9 2.68 -9 2 C-5.85395635 0.13567784 -3.6468902 -0.52098431 0 0 Z " fill="#B4B4B4" transform="translate(20,0)"/>
<path d="M0 0 C0.66 0 1.32 0 2 0 C2.06058594 0.63808594 2.12117187 1.27617188 2.18359375 1.93359375 C2.26738281 2.75988281 2.35117188 3.58617187 2.4375 4.4375 C2.51871094 5.26121094 2.59992187 6.08492187 2.68359375 6.93359375 C2.78930815 8.98662025 2.78930815 8.98662025 4 10 C4 8.02 4 6.04 4 4 C7.21391447 3.9107246 9.91489883 4.10432547 13 5 C13.7425 5.185625 14.485 5.37125 15.25 5.5625 C15.8275 5.706875 16.405 5.85125 17 6 C17 8.64 17 11.28 17 14 C14.16443413 15.41778293 12.0091294 14.86257622 8.875 14.5625 C7.23144531 14.40974609 7.23144531 14.40974609 5.5546875 14.25390625 C4.71164062 14.17011719 3.86859375 14.08632813 3 14 C3.33 14.86625 3.66 15.7325 4 16.625 C4.98731341 19.95718275 5.16420974 22.55159538 5 26 C5.66 26 6.32 26 7 26 C7 26.66 7 27.32 7 28 C2.56510237 27.49315456 0.11945264 26.2015435 -3 23 C-6.14619902 17.54255478 -6.46462169 13.05376963 -5 7 C-3.49050067 4.40554802 -2.12377517 2.12377517 0 0 Z " fill="#BABABA" transform="translate(6,6)"/>
<path d="M0 0 C3.3125 2 3.3125 2 6 4 C5.88648483 5.81325551 5.75887039 7.62563357 5.625 9.4375 C5.55539063 10.44683594 5.48578125 11.45617187 5.4140625 12.49609375 C5.27742188 13.32238281 5.14078125 14.14867187 5 15 C4.01 15.495 4.01 15.495 3 16 C2.67 14.68 2.34 13.36 2 12 C0.700625 12.061875 0.700625 12.061875 -0.625 12.125 C-4.12358468 11.99542279 -6.74551597 11.23980344 -10 10 C-10 11.98 -10 13.96 -10 16 C-10.66 15.67 -11.32 15.34 -12 15 C-12 11.7 -12 8.4 -12 5 C-11.01 4.67 -10.02 4.34 -9 4 C-9 3.34 -9 2.68 -9 2 C-5.85395635 0.13567784 -3.6468902 -0.52098431 0 0 Z " fill="#9D9D9D" transform="translate(20,0)"/>
<path d="M0 0 C0.97582031 0.0721875 1.95164062 0.144375 2.95703125 0.21875 C4.22933594 0.3115625 5.50164063 0.404375 6.8125 0.5 C8.07707031 0.5928125 9.34164063 0.685625 10.64453125 0.78125 C12.75978517 0.91914781 14.88025592 1 17 1 C16.57835981 2.98260599 16.13721222 4.96107245 15.6875 6.9375 C15.44386719 8.03964844 15.20023438 9.14179688 14.94921875 10.27734375 C14.63597656 11.17582031 14.32273437 12.07429688 14 13 C10.77390955 14.07536348 8.37822416 14.14375422 5 14 C4.34 13.67 3.68 13.34 3 13 C2.37330801 10.83532539 1.84572626 8.64135476 1.375 6.4375 C1.11460938 5.23996094 0.85421875 4.04242188 0.5859375 2.80859375 C0.39257812 1.88175781 0.19921875 0.95492188 0 0 Z " fill="#959595" transform="translate(8,19)"/>
<path d="M0 0 C3.63 0.33 7.26 0.66 11 1 C11.82810826 4.31243305 12.09278428 6.65976579 12 10 C9.3333581 11.33332095 7.83319697 10.67102033 5 10 C5.33 8.68 5.66 7.36 6 6 C4.02 5.34 2.04 4.68 0 4 C0 2.68 0 1.36 0 0 Z " fill="#E9E9E9" transform="translate(11,10)"/>
<path d="M0 0 C0.556875 0.350625 1.11375 0.70125 1.6875 1.0625 C4.57159181 2.23172641 6.05190765 1.85339516 9 1 C9.66 0.67 10.32 0.34 11 0 C11 1.98 11 3.96 11 6 C7.77390955 7.07536348 5.37822416 7.14375422 2 7 C1.34 6.67 0.68 6.34 0 6 C0 4.02 0 2.04 0 0 Z " fill="#7E7E7E" transform="translate(11,26)"/>
<path d="M0 0 C0.33 0.66 0.66 1.32 1 2 C-0.6396875 2.4021875 -0.6396875 2.4021875 -2.3125 2.8125 C-6.33875367 4.08561702 -6.33875367 4.08561702 -9 7 C-9.57323807 9.27161255 -9.57323807 9.27161255 -9.6875 11.6875 C-9.78611328 12.89986328 -9.78611328 12.89986328 -9.88671875 14.13671875 C-9.92410156 14.75160156 -9.96148437 15.36648438 -10 16 C-10.66 15.67 -11.32 15.34 -12 15 C-12 11.7 -12 8.4 -12 5 C-11.01 4.67 -10.02 4.34 -9 4 C-9 3.34 -9 2.68 -9 2 C-5.86501708 0.14223235 -3.62528568 -0.20140476 0 0 Z " fill="#767676" transform="translate(20,0)"/>
<path d="M0 0 C-0.6875 1.9375 -0.6875 1.9375 -2 4 C-4.375 4.9375 -4.375 4.9375 -7 5 C-9.3125 3.6875 -9.3125 3.6875 -11 2 C-11 1.34 -11 0.68 -11 0 C-7.01803543 -1.05404945 -4.01804691 -0.84098656 0 0 Z " fill="#A6A6A6" transform="translate(22,24)"/>
<path d="M0 0 C0 1.98 0 3.96 0 6 C-0.99 6.33 -1.98 6.66 -3 7 C-3.33 5.35 -3.66 3.7 -4 2 C-1 0 -1 0 0 0 Z " fill="#858585" transform="translate(22,26)"/>
<path d="M0 0 C0.66 0.33 1.32 0.66 2 1 C1.34 2.98 0.68 4.96 0 7 C-0.33 6.34 -0.66 5.68 -1 5 C-2.65 5 -4.3 5 -6 5 C-6.33 4.34 -6.66 3.68 -7 3 C-5.02 3 -3.04 3 -1 3 C-0.67 2.01 -0.34 1.02 0 0 Z " fill="#7F7F7F" transform="translate(23,19)"/>
</svg>
