<?xml version="1.0" encoding="UTF-8"?>
<svg version="1.1" xmlns="http://www.w3.org/2000/svg" width="35" height="35">
<path d="M0 0 C4.88006234 2.62528299 8.1174457 6.04374335 9.86328125 11.28125 C10.5609433 18.463738 10.25864329 23.46036514 5.86328125 29.28125 C0.68922816 34.07671383 -3.49885434 34.63483707 -10.34375 34.5625 C-15.70872664 34.0222506 -18.84963691 31.66994356 -22.51171875 27.71875 C-25.91114242 22.61961449 -25.73412558 17.21383176 -25.13671875 11.28125 C-23.49502873 6.40079107 -20.38748178 3.11509202 -16.13671875 0.28125 C-11.04065361 -1.41743838 -5.14382507 -1.73028119 0 0 Z " fill="#FDFDFD" transform="translate(25.13671875,0.71875)"/>
<path d="M0 0 C0.66 0.33 1.32 0.66 2 1 C1.505 1.7425 1.505 1.7425 1 2.5 C-0.43636358 6.09090894 -0.12851462 9.14456127 0 13 C1.98 12.34 3.96 11.68 6 11 C6 11.66 6 12.32 6 13 C6.99 13 7.98 13 9 13 C8.98839844 12.37351562 8.97679687 11.74703125 8.96484375 11.1015625 C8.95582031 10.28429688 8.94679688 9.46703125 8.9375 8.625 C8.92589844 7.81289062 8.91429687 7.00078125 8.90234375 6.1640625 C9 4 9 4 10 2 C9.34 2 8.68 2 8 2 C8.33 1.34 8.66 0.68 9 0 C9.99 0.66 10.98 1.32 12 2 C12 2.66 12 3.32 12 4 C12.99 4.33 13.98 4.66 15 5 C16.37474344 9.12423032 16.92416827 12.9216303 15.10546875 17.01171875 C14.13036715 18.71039398 13.07096959 20.36007781 12 22 C12.99 22 13.98 22 15 22 C15 23.65 15 25.3 15 27 C14.01 26.67 13.02 26.34 12 26 C12.33 25.34 12.66 24.68 13 24 C12.34 23.67 11.68 23.34 11 23 C11 24.32 11 25.64 11 27 C10.38511719 27.06058594 9.77023438 27.12117188 9.13671875 27.18359375 C8.32847656 27.26738281 7.52023438 27.35117187 6.6875 27.4375 C5.88699219 27.51871094 5.08648437 27.59992187 4.26171875 27.68359375 C1.83912821 27.95265693 1.83912821 27.95265693 -1 29 C-1 28.34 -1 27.68 -1 27 C-2.65 27 -4.3 27 -6 27 C-6 24.69 -6 22.38 -6 20 C-5.01 20 -4.02 20 -3 20 C-3.474375 19.67 -3.94875 19.34 -4.4375 19 C-6.80592958 15.96841014 -7.1204294 12.74039561 -7 9 C-5.48331008 4.76923338 -3.82257052 2.37262998 0 0 Z " fill="#C3C3C3" transform="translate(13,3)"/>
<path d="M0 0 C5.86737883 -0.4789697 9.42259463 0.47891895 14 4 C18.79440035 9.17290564 19.34859336 13.35707317 19.28515625 20.19921875 C18.85317763 24.44207728 17.58891923 26.62002212 15 30 C12.75 31.4375 12.75 31.4375 11 32 C11.33 29.69 11.66 27.38 12 25 C11.01 25 10.02 25 9 25 C9.61277612 22.03824877 10.25372522 20.61941217 12 18 C12.19850603 14.29455413 12.17664871 11.52994613 11 8 C9.24442763 6.40111704 9.24442763 6.40111704 7.125 4.9375 C6.42632812 4.43089844 5.72765625 3.92429688 5.0078125 3.40234375 C3.35332115 2.24677489 1.67915109 1.11943406 0 0 Z " fill="#FEFEFE" transform="translate(16,0)"/>
<path d="M0 0 C0 0.66 0 1.32 0 2 C0.99 2 1.98 2 3 2 C3 3.65 3 5.3 3 7 C2.01 6.67 1.02 6.34 0 6 C0.33 5.34 0.66 4.68 1 4 C0.34 3.67 -0.32 3.34 -1 3 C-1 4.32 -1 5.64 -1 7 C-1.61488281 7.06058594 -2.22976562 7.12117188 -2.86328125 7.18359375 C-4.07564453 7.30927734 -4.07564453 7.30927734 -5.3125 7.4375 C-6.11300781 7.51871094 -6.91351563 7.59992187 -7.73828125 7.68359375 C-10.16087179 7.95265693 -10.16087179 7.95265693 -13 9 C-13 8.34 -13 7.68 -13 7 C-14.65 7 -16.3 7 -18 7 C-18 4.69 -18 2.38 -18 0 C-16.02 0 -14.04 0 -12 0 C-12 0.66 -12 1.32 -12 2 C-10.35 2 -8.7 2 -7 2 C-7 1.34 -7 0.68 -7 0 C-7.66 -0.33 -8.32 -0.66 -9 -1 C-5.23375329 -2.25541557 -3.62811066 -1.37061958 0 0 Z " fill="#9D9D9D" transform="translate(25,23)"/>
<path d="M0 0 C0.556875 0.268125 1.11375 0.53625 1.6875 0.8125 C1.6875 1.8025 1.6875 2.7925 1.6875 3.8125 C2.3475 3.8125 3.0075 3.8125 3.6875 3.8125 C3.3575 7.4425 3.0275 11.0725 2.6875 14.8125 C-0.2825 14.8125 -3.2525 14.8125 -6.3125 14.8125 C-6.97115931 11.45398965 -7.43789685 8.240014 -7.3125 4.8125 C-3.79844378 -0.30798193 -3.79844378 -0.30798193 0 0 Z " fill="#D5D5D5" transform="translate(19.3125,1.1875)"/>
<path d="M0 0 C0.33 0 0.66 0 1 0 C1.08886184 3.19902639 0.91058531 5.92677456 0 9 C0.66 9.33 1.32 9.66 2 10 C2.28875 10.969375 2.5775 11.93875 2.875 12.9375 C3.6889291 16.10056957 3.6889291 16.10056957 6.125 17.375 C7.053125 17.684375 7.053125 17.684375 8 18 C8 18.66 8 19.32 8 20 C6.35 20 4.7 20 3 20 C3 19.34 3 18.68 3 18 C2.38125 17.87625 1.7625 17.7525 1.125 17.625 C-1 17 -1 17 -3 15 C-4.25959665 9.18647701 -4.29454133 6.19523825 -1 1 C-0.67 0.67 -0.34 0.34 0 0 Z " fill="#D0D0D0" transform="translate(10,5)"/>
<path d="M0 0 C0.66 0.33 1.32 0.66 2 1 C3.20190901 4.60572704 3.32670315 7.2102435 3 11 C1.3125 13.9375 1.3125 13.9375 -1 16 C-3.75 16.3125 -3.75 16.3125 -6 16 C-5.34 15.01 -4.68 14.02 -4 13 C-3.835 12.13375 -3.67 11.2675 -3.5 10.375 C-3.2525 9.199375 -3.2525 9.199375 -3 8 C-2.34 7.67 -1.68 7.34 -1 7 C-0.59270772 4.67843403 -0.25561323 2.3431213 0 0 Z " fill="#D3D3D3" transform="translate(26,7)"/>
<path d="M0 0 C2.97 0.33 5.94 0.66 9 1 C9 3.31 9 5.62 9 8 C6.03 8 3.06 8 0 8 C0 5.36 0 2.72 0 0 Z " fill="#E1E1E1" transform="translate(13,8)"/>
<path d="M0 0 C3.875 1.75 3.875 1.75 5 4 C5.04022391 6.3329866 5.04320247 8.66706666 5 11 C4.01 11.33 3.02 11.66 2 12 C2 13.65 2 15.3 2 17 C1.34 17.33 0.68 17.66 0 18 C0.14063135 15.70800823 0.28765943 13.41640814 0.4375 11.125 C0.51871094 9.84882813 0.59992187 8.57265625 0.68359375 7.2578125 C1 4 1 4 2 2 C1.34 2 0.68 2 0 2 C0 1.34 0 0.68 0 0 Z " fill="#999999" transform="translate(21,3)"/>
<path d="M0 0 C2.4375 0.375 2.4375 0.375 5 1 C5.33 1.66 5.66 2.32 6 3 C6.556875 3.99 6.556875 3.99 7.125 5 C7.41375 5.66 7.7025 6.32 8 7 C7.67 7.66 7.34 8.32 7 9 C6.34 9 5.68 9 5 9 C5 8.34 5 7.68 5 7 C3.35 7 1.7 7 0 7 C0 4.69 0 2.38 0 0 Z " fill="#AEAEAE" transform="translate(7,23)"/>
<path d="M0 0 C0.66 0.33 1.32 0.66 2 1 C1.67257813 1.53109375 1.34515625 2.0621875 1.0078125 2.609375 C-0.2642989 5.62694157 -0.1959363 7.98693023 -0.125 11.25 C-0.10695313 12.32765625 -0.08890625 13.4053125 -0.0703125 14.515625 C-0.04710937 15.33546875 -0.02390625 16.1553125 0 17 C-0.33 17 -0.66 17 -1 17 C-1 15.35 -1 13.7 -1 12 C-1.99 11.67 -2.98 11.34 -4 11 C-4.36630156 7.06225823 -4.30233203 5.43460229 -2 2.125 C-1.34 1.42375 -0.68 0.7225 0 0 Z " fill="#929292" transform="translate(13,3)"/>
<path d="M0 0 C0.66 0 1.32 0 2 0 C2 0.66 2 1.32 2 2 C3.65 2 5.3 2 7 2 C7.66 3.65 8.32 5.3 9 7 C3.25 7.125 3.25 7.125 1 6 C1 5.01 1 4.02 1 3 C0.01 2.67 -0.98 2.34 -2 2 C-1.34 1.34 -0.68 0.68 0 0 Z " fill="#848484" transform="translate(11,23)"/>
<path d="M0 0 C2.97 0.33 5.94 0.66 9 1 C9 1.99 9 2.98 9 4 C5.62182575 4.84454356 3.32534757 5.10844919 0 4 C0 2.68 0 1.36 0 0 Z " fill="#FDFDFD" transform="translate(13,8)"/>
<path d="M0 0 C0.99 0.33 1.98 0.66 3 1 C3.33 2.98 3.66 4.96 4 7 C2.02 7 0.04 7 -2 7 C-2 6.01 -2 5.02 -2 4 C-1.34 4 -0.68 4 0 4 C0 2.68 0 1.36 0 0 Z " fill="#D4D4D4" transform="translate(24,26)"/>
<path d="M0 0 C-0.33 0.99 -0.66 1.98 -1 3 C-2.65 3.33 -4.3 3.66 -6 4 C-6.66 3.01 -7.32 2.02 -8 1 C-4.93251126 -0.86240388 -3.40254489 -1.2151946 0 0 Z " fill="#DDDDDD" transform="translate(22,18)"/>
<path d="M0 0 C2.31 0 4.62 0 7 0 C6.67 0.99 6.34 1.98 6 3 C4.02 3 2.04 3 0 3 C0 2.01 0 1.02 0 0 Z " fill="#ECECEC" transform="translate(15,30)"/>
</svg>
