<?xml version="1.0" encoding="UTF-8"?>
<svg version="1.1" xmlns="http://www.w3.org/2000/svg" width="246" height="345">
<path d="M0 0 C81.18 0 162.36 0 246 0 C246 113.85 246 227.7 246 345 C164.82 345 83.64 345 0 345 C0 231.15 0 117.3 0 0 Z " fill="#FEFDFD" transform="translate(0,0)"/>
<path d="M0 0 C7.55095916 6.51411104 14.08187239 14.84239666 15.38598633 25.04907227 C15.49243044 27.26610751 15.53262696 29.47588126 15.5546875 31.6953125 C16.0698599 46.66327861 19.30779124 60.46312799 24.46582031 74.48461914 C26.61806165 80.36265259 28.41821546 86.26190495 29.9921875 92.3203125 C30.19513428 93.09898682 30.39808105 93.87766113 30.60717773 94.67993164 C37.40338039 121.47395328 32.59036809 151.54422697 20.1171875 175.9453125 C19.56289062 177.05390625 19.00859375 178.1625 18.4375 179.3046875 C18.00179687 180.17609375 17.56609375 181.0475 17.1171875 181.9453125 C17.66246094 182.04328125 18.20773438 182.14125 18.76953125 182.2421875 C26.56830476 183.78861096 33.42598874 186.62841007 40.1171875 190.9453125 C36.57576793 192.15438746 36.19094378 191.97964732 32.4921875 190.2578125 C31.80125 189.88914062 31.1103125 189.52046875 30.3984375 189.140625 C27.96526861 187.86571116 25.51514314 186.71950725 22.9921875 185.6328125 C22.20585937 185.28605469 21.41953125 184.93929687 20.609375 184.58203125 C15.39538049 183.2499292 10.36321986 185.40807177 5.3671875 186.9453125 C-0.47815209 188.62584763 -5.81251106 189.75612966 -11.8828125 189.9453125 C-12.53797852 189.96577637 -13.19314453 189.98624023 -13.86816406 190.00732422 C-27.61283363 190.37478003 -42.22208886 189.97509599 -54.8828125 183.9453125 C-57.8828125 179.91817263 -57.8828125 179.91817263 -57.8828125 176.9453125 C-82.50536424 179.65365068 -82.50536424 179.65365068 -106.8828125 183.9453125 C-107.594375 184.09871094 -108.3059375 184.25210938 -109.0390625 184.41015625 C-112.39635004 185.14608341 -115.74492232 185.91272944 -119.08984375 186.703125 C-124.6762585 188.01832664 -130.17930468 189.28211392 -135.8828125 189.9453125 C-135.8828125 189.2853125 -135.8828125 188.6253125 -135.8828125 187.9453125 C-122.36426062 183.82730169 -108.84320423 181.09270984 -94.8828125 178.9453125 C-93.90602539 178.79288086 -92.92923828 178.64044922 -91.92285156 178.48339844 C-81.2025413 176.83384588 -70.7542959 175.39148221 -59.8828125 175.9453125 C-60.34171875 174.92695313 -60.800625 173.90859375 -61.2734375 172.859375 C-67.62760153 158.36426294 -71.45379641 143.83756063 -71.8828125 127.9453125 C-71.90327637 127.30271484 -71.92374023 126.66011719 -71.94482422 125.99804688 C-72.43880226 108.70473288 -70.08579708 93.13242502 -64.4296875 76.703125 C-59.17144135 61.42495224 -55.73038841 47.05155426 -55.07421875 30.875 C-54.52423783 19.58355489 -50.39245521 9.32282191 -41.94140625 1.51171875 C-28.44888114 -8.75488954 -14.17461773 -10.10277632 0 0 Z " fill="#E66651" transform="translate(175.8828125,97.0546875)"/>
<path d="M0 0 C7.07168236 3.45205348 13.56919328 8.85819109 16.1875 16.4375 C16.97475788 20.0575405 17.18119278 23.6172423 17.375 27.3125 C18.00582087 37.4056339 18.84685315 49.93535039 24.625 58.5 C28.98413165 65.24659452 28.55069845 74.21688629 29 82 C29.07589355 83.03568115 29.07589355 83.03568115 29.15332031 84.09228516 C29.95353084 95.63776868 28.29364357 108.18264028 24 119 C22.46655273 120.64916992 22.46655273 120.64916992 21 122 C20.42092898 123.31751938 19.8803227 124.65247281 19.375 126 C18.16943728 128.50775451 17.44519195 129.74045133 15.0234375 131.15234375 C1.90690391 135.68228061 -17.2176466 136.65263908 -29.9921875 130.5546875 C-34.02807056 127.4296263 -35.35998232 122.68020857 -37 118 C-37.56225573 116.54157247 -38.12472421 115.08322693 -38.6875 113.625 C-39.120625 112.42875 -39.55375 111.2325 -40 110 C-40.37125 109.13375 -40.7425 108.2675 -41.125 107.375 C-48.19218787 88.19263291 -41.2379951 67.34809716 -34.93969727 49.07006836 C-34.01546253 46.05051734 -33.44479042 43.12290312 -33 40 C-32.34 40 -31.68 40 -31 40 C-30.99589111 39.35039307 -30.99178223 38.70078613 -30.98754883 38.03149414 C-30.95431764 35.04095288 -30.88364395 32.05237022 -30.8125 29.0625 C-30.80379883 27.53012695 -30.80379883 27.53012695 -30.79492188 25.96679688 C-30.55422415 17.59586474 -28.50276662 11.83726506 -22.83203125 5.625 C-22.16558594 5.08875 -21.49914062 4.5525 -20.8125 4 C-20.13832031 3.443125 -19.46414062 2.88625 -18.76953125 2.3125 C-13.6201292 -1.50692403 -6.13035783 -1.17678226 0 0 Z " fill="#57AC6D" transform="translate(164,149)"/>
<path d="M0 0 C1.43472656 -0.02126953 1.43472656 -0.02126953 2.8984375 -0.04296875 C6.82228113 0.28870285 8.74117767 1.30184781 11.51171875 4.078125 C16.22895855 10.25863007 17.21871712 14.77088271 17.39453125 22.46484375 C17.84313205 29.71088724 20.06154641 36.92413287 22.5546875 43.72265625 C27.10448406 56.35375813 25.29230576 71.52015488 21.625 84.1875 C20.965 85.1775 20.305 86.1675 19.625 87.1875 C18.965 87.1875 18.305 87.1875 17.625 87.1875 C17.48771484 88.12335938 17.48771484 88.12335938 17.34765625 89.078125 C16.625 91.1875 16.625 91.1875 13.0625 92.9375 C5.11690321 95.25496573 -5.27872359 95.60305057 -13.1875 92.9375 C-17.91592028 90.34150455 -19.55533335 87.19545002 -21.4375 82.25 C-21.75847656 81.41597656 -22.07945312 80.58195312 -22.41015625 79.72265625 C-22.72855469 78.88605469 -23.04695312 78.04945313 -23.375 77.1875 C-23.72087158 76.4150293 -24.06674316 75.64255859 -24.4230957 74.84667969 C-25.42060089 72.06011224 -25.60643813 70.04970772 -25.5703125 67.10546875 C-25.56386719 66.17412109 -25.55742187 65.24277344 -25.55078125 64.28320312 C-25.53402344 63.32349609 -25.51726562 62.36378906 -25.5 61.375 C-25.49097656 60.39595703 -25.48195312 59.41691406 -25.47265625 58.40820312 C-25.44917182 56.00104939 -25.4163284 53.59440257 -25.375 51.1875 C-24.715 51.1875 -24.055 51.1875 -23.375 51.1875 C-23.045 48.2175 -22.715 45.2475 -22.375 42.1875 C-21.715 42.1875 -21.055 42.1875 -20.375 42.1875 C-20.045 38.8875 -19.715 35.5875 -19.375 32.1875 C-18.715 32.1875 -18.055 32.1875 -17.375 32.1875 C-17.39820313 31.11371094 -17.42140625 30.03992188 -17.4453125 28.93359375 C-17.46408624 27.49740285 -17.4822847 26.06120435 -17.5 24.625 C-17.52513672 23.56829102 -17.52513672 23.56829102 -17.55078125 22.49023438 C-17.59522044 17.66858178 -16.90268004 13.76452562 -15.375 9.1875 C-14.715 9.1875 -14.055 9.1875 -13.375 9.1875 C-13.313125 8.61 -13.25125 8.0325 -13.1875 7.4375 C-11.06565107 1.56161066 -5.62337896 0.03769021 0 0 Z " fill="#EDA918" transform="translate(156.375,186.8125)"/>
<path d="M0 0 C3.3 0 6.6 0 10 0 C10 113.85 10 227.7 10 345 C6.7 345 3.4 345 0 345 C0 231.15 0 117.3 0 0 Z " fill="#1A1A1A" transform="translate(0,0)"/>
<path d="M0 0 C0 35.31 0 70.62 0 107 C-7.87309979 100.25162875 -7.87309979 100.25162875 -10.8840332 97.21362305 C-11.8946154 96.19808601 -11.8946154 96.19808601 -12.9256134 95.16203308 C-13.62691879 94.45242935 -14.32822418 93.74282562 -15.05078125 93.01171875 C-16.16080757 91.8960125 -16.16080757 91.8960125 -17.29325867 90.75776672 C-19.63546127 88.40343581 -21.97437236 86.04587744 -24.3125 83.6875 C-27.40991371 80.56356139 -30.51057741 77.44290221 -33.61328125 74.32421875 C-34.32470779 73.60449387 -35.03613434 72.88476898 -35.76911926 72.14323425 C-36.42707993 71.48197037 -37.08504059 70.82070648 -37.76293945 70.1394043 C-38.34139114 69.55571579 -38.91984283 68.97202728 -39.51582336 68.37065125 C-40.97262292 66.89773755 -40.97262292 66.89773755 -43 66 C-44.60900001 57.06024076 -45.92084599 47.16019242 -41.28448486 38.96923828 C-36.12999251 32.22265943 -29.89345399 26.52753524 -23.58868408 20.88244629 C-21.0196371 18.55535514 -18.52311362 16.15281962 -16.01757812 13.7578125 C-1.53998754 0 -1.53998754 0 0 0 Z " fill="#060606" transform="translate(246,2)"/>
<path d="M0 0 C3.38498681 1.27104248 5.1301962 2.91011202 7 6 C8.73459339 11.50442337 9.33541949 17.28771071 10 23 C10.18906432 24.51315112 10.37912024 26.02617878 10.5703125 27.5390625 C10.71210938 28.68117187 10.85390625 29.82328125 11 31 C11.66 31 12.32 31 13 31 C13.97032605 53.75638515 13.97032605 53.75638515 9.58203125 61.390625 C6.61483974 64.4091013 3.7404655 64.94995709 -0.41015625 65.23046875 C-2.21806641 65.20919922 -2.21806641 65.20919922 -4.0625 65.1875 C-5.87427734 65.17783203 -5.87427734 65.17783203 -7.72265625 65.16796875 C-12.73536528 64.91105994 -12.73536528 64.91105994 -15 64 C-21.02278582 55.14296204 -21.91911424 46.57522035 -21 36 C-20.12901652 32.14560254 -19.06924861 28.3974876 -17.93359375 24.61328125 C-17.0389811 21.15086826 -16.73699141 18.12382684 -16.625 14.5625 C-16.31535716 8.68722561 -14.19923756 5.06557483 -10 1 C-6.70783628 -0.64608186 -3.5443441 -0.6013869 0 0 Z " fill="#0B6FAE" transform="translate(160,214)"/>
<path d="M0 0 C0.66 0.33 1.32 0.66 2 1 C3.60451301 5.81353903 4.12027607 10.25356421 4.375 15.3125 C5.00582087 25.4056339 5.84685315 37.93535039 11.625 46.5 C15.98413165 53.24659452 15.55069845 62.21688629 16 70 C16.0505957 70.6904541 16.10119141 71.3809082 16.15332031 72.09228516 C16.95353084 83.63776868 15.29364357 96.18264028 11 107 C9.46655273 108.64916992 9.46655273 108.64916992 8 110 C7.42092898 111.31751938 6.8803227 112.65247281 6.375 114 C5.16943728 116.50775451 4.44519195 117.74045133 2.0234375 119.15234375 C-12.26189557 124.08593816 -30.09161144 123.81623522 -44 118 C-42.02 117.505 -42.02 117.505 -40 117 C-39.67 115.68 -39.34 114.36 -39 113 C-38.649375 113.61875 -38.29875 114.2375 -37.9375 114.875 C-34.53360786 118.60830106 -30.01062524 118.92139581 -25.1328125 119.30078125 C-23.79700328 119.31970206 -22.46089966 119.32328767 -21.125 119.3125 C-20.42753662 119.30903564 -19.73007324 119.30557129 -19.01147461 119.30200195 C-13.40337699 119.18406705 -9.05750602 118.39566075 -4 116 C-3.505 114.515 -3.505 114.515 -3 113 C-2.34 113 -1.68 113 -1 113 C-0.51526322 111.31409158 -0.03751074 109.62617455 0.4375 107.9375 C0.70433594 106.99777344 0.97117188 106.05804688 1.24609375 105.08984375 C4.67548899 91.03465392 3.88731721 77.51923358 -1 64 C-2.95376431 57.53558851 -4.08186895 51.63679231 -4.25 44.875 C-4.62436051 37.84014206 -6.87130661 32.88639292 -12 28 C-14.61689414 26.72248427 -14.61689414 26.72248427 -17 26 C-17 25.67 -17 25.34 -17 25 C-16.113125 25 -15.22625 25 -14.3125 25 C-10.0908183 23.72553005 -9.26284888 22.19800558 -7.16015625 18.47265625 C-5.44567174 14.81855291 -4.13514807 11.06064956 -2.89453125 7.22265625 C-2 5 -2 5 0 4 C0 2.68 0 1.36 0 0 Z " fill="#57AB6C" transform="translate(177,161)"/>
<path d="M0 0 C0 19.8 0 39.6 0 60 C-4.4543919 56.1819498 -8.60776397 52.51309612 -12.71484375 48.3828125 C-13.21544815 47.88079315 -13.71605255 47.3787738 -14.23182678 46.86154175 C-15.80278598 45.28506329 -17.37019877 43.70511427 -18.9375 42.125 C-20.01343727 41.04403726 -21.08960731 39.96330617 -22.16601562 38.8828125 C-24.78003292 36.25787359 -27.39088596 33.62981372 -30 31 C-28.34632885 26.72113402 -25.13020426 23.8599365 -21.93359375 20.703125 C-21.33950211 20.10949158 -20.74541046 19.51585815 -20.13331604 18.90423584 C-18.88071283 17.65464684 -17.62568693 16.40748226 -16.3684082 15.16259766 C-14.43574928 13.24826588 -12.51128287 11.32598142 -10.58789062 9.40234375 C-9.37026394 8.1896298 -8.15218082 6.97737392 -6.93359375 5.765625 C-6.3544371 5.18758118 -5.77528046 4.60953735 -5.17857361 4.01397705 C-1.11606324 0 -1.11606324 0 0 0 Z " fill="#B0B0B0" transform="translate(246,26)"/>
<path d="M0 0 C3.83926448 3.75534613 4.5962612 6.80323638 5.125 12.0625 C5.50878089 16.71328655 5.50878089 16.71328655 7.0390625 21.0390625 C10.18414388 27.45707409 8.16941618 36.49175147 6 43 C6.33 43.66 6.66 44.32 7 45 C3.32872046 46.14727486 -0.17041486 46.16721618 -4 46.1875 C-5.8253125 46.20876953 -5.8253125 46.20876953 -7.6875 46.23046875 C-10.7719563 46.01586625 -12.42673876 45.62758774 -15 44 C-14.01 43.505 -14.01 43.505 -13 43 C-13.7425 41.4221875 -13.7425 41.4221875 -14.5 39.8125 C-16.66742858 34.07035508 -16.61647255 28.05263961 -16 22 C-15.34705917 20.65989161 -14.68002751 19.32656881 -14 18 C-13.68036315 15.86089185 -13.4137888 13.71348693 -13.1875 11.5625 C-12.57777928 7.38825812 -12.16702802 5.25292815 -9.8125 1.6875 C-6.17428797 -0.49542722 -4.17050393 -0.75827344 0 0 Z " fill="#6368A7" transform="translate(160,233)"/>
<path d="M0 0 C1.43472656 -0.02126953 1.43472656 -0.02126953 2.8984375 -0.04296875 C5.65510017 0.19004428 7.27447395 0.77829836 9.625 2.1875 C6.55609813 3.72195094 3.92405734 2.73734289 0.625 2.1875 C-0.365 3.6725 -0.365 3.6725 -1.375 5.1875 C-3.1075 5.6515625 -3.1075 5.6515625 -4.875 6.125 C-8.31708498 6.83593354 -8.31708498 6.83593354 -9.8125 8.8125 C-10.86298964 13.24790071 -11.24560841 18.93611725 -9.375 23.1875 C-8.385 23.5175 -7.395 23.8475 -6.375 24.1875 C-6.0625 26.25 -6.0625 26.25 -6.375 29.1875 C-7.15875 30.095 -7.9425 31.0025 -8.75 31.9375 C-12.19567307 36.34137991 -12.22821729 41.42471958 -12.70214844 46.78735352 C-13.07284815 50.87702266 -13.603117 54.48183533 -15 58.375 C-18.42257935 68.6953931 -16.65160459 78.48355786 -12.375 88.1875 C-12.045 89.1775 -11.715 90.1675 -11.375 91.1875 C-8.47891407 91.24163245 -5.58384805 91.28123641 -2.6875 91.3125 C-1.87087891 91.32925781 -1.05425781 91.34601563 -0.21289062 91.36328125 C5.95250906 91.42572263 5.95250906 91.42572263 11.625 89.1875 C17.38415241 82.3950879 16.43270658 71.56187826 16.625 63.1875 C16.955 63.1875 17.285 63.1875 17.625 63.1875 C17.625 68.7975 17.625 74.4075 17.625 80.1875 C18.615 80.1875 19.605 80.1875 20.625 80.1875 C21.285 78.2075 21.945 76.2275 22.625 74.1875 C23.625 76.1875 23.625 76.1875 23.1015625 78.28125 C22.82054687 79.0753125 22.53953125 79.869375 22.25 80.6875 C21.97414062 81.4815625 21.69828125 82.275625 21.4140625 83.09375 C20.625 85.1875 20.625 85.1875 19.625 87.1875 C18.965 87.1875 18.305 87.1875 17.625 87.1875 C17.48771484 88.12335938 17.48771484 88.12335938 17.34765625 89.078125 C16.625 91.1875 16.625 91.1875 13.0625 92.9375 C5.11690321 95.25496573 -5.27872359 95.60305057 -13.1875 92.9375 C-17.91592028 90.34150455 -19.55533335 87.19545002 -21.4375 82.25 C-21.75847656 81.41597656 -22.07945312 80.58195312 -22.41015625 79.72265625 C-22.72855469 78.88605469 -23.04695312 78.04945313 -23.375 77.1875 C-23.72087158 76.4150293 -24.06674316 75.64255859 -24.4230957 74.84667969 C-25.42060089 72.06011224 -25.60643813 70.04970772 -25.5703125 67.10546875 C-25.56386719 66.17412109 -25.55742187 65.24277344 -25.55078125 64.28320312 C-25.53402344 63.32349609 -25.51726562 62.36378906 -25.5 61.375 C-25.49097656 60.39595703 -25.48195312 59.41691406 -25.47265625 58.40820312 C-25.44917182 56.00104939 -25.4163284 53.59440257 -25.375 51.1875 C-24.715 51.1875 -24.055 51.1875 -23.375 51.1875 C-23.045 48.2175 -22.715 45.2475 -22.375 42.1875 C-21.715 42.1875 -21.055 42.1875 -20.375 42.1875 C-20.045 38.8875 -19.715 35.5875 -19.375 32.1875 C-18.715 32.1875 -18.055 32.1875 -17.375 32.1875 C-17.39820313 31.11371094 -17.42140625 30.03992188 -17.4453125 28.93359375 C-17.46408624 27.49740285 -17.4822847 26.06120435 -17.5 24.625 C-17.52513672 23.56829102 -17.52513672 23.56829102 -17.55078125 22.49023438 C-17.59522044 17.66858178 -16.90268004 13.76452562 -15.375 9.1875 C-14.715 9.1875 -14.055 9.1875 -13.375 9.1875 C-13.313125 8.61 -13.25125 8.0325 -13.1875 7.4375 C-11.06565107 1.56161066 -5.62337896 0.03769021 0 0 Z " fill="#EBA81A" transform="translate(156.375,186.8125)"/>
<path d="M0 0 C2.67452115 2.340206 3.32607485 4.59490449 4 8 C4.25844962 13.74670331 4.30512179 19.54513702 3.5 25.25 C3.09998878 28.25008412 3.01819629 30.75949603 3.125 33.75 C3.13441982 36.4770368 3.00620864 37.98409035 2 40.5625 C-0.55837888 42.40133482 -2.75311172 42.68180797 -5.875 42.50390625 C-10.70547607 41.35844409 -13.61113104 38.04028538 -16.32421875 34.0546875 C-19.67170691 27.6885872 -19.98892445 21.04182414 -19 14 C-17.39416168 9.09034677 -15.10013887 5.28349535 -11.75 1.375 C-7.82931916 -0.58534042 -4.29893452 -0.82991014 0 0 Z " fill="#FDF8F7" transform="translate(152,101)"/>
<path d="M0 0 C4.11060592 0.73990907 5.4819263 2.4054953 8.125 5.5625 C10.97932005 9.84398007 10.73461421 13.53689997 10.125 18.5625 C8.83758116 22.51766303 7.07910945 25.57761283 4.1875 28.5625 C1.62706615 29.80392247 -0.06333587 29.93245581 -2.875 29.5625 C-4.875 27.5625 -4.875 27.5625 -5.03515625 25.5390625 C-5.00292969 24.76304687 -4.97070312 23.98703125 -4.9375 23.1875 C-4.8169024 20.05196246 -5.09793526 17.58896266 -5.875 14.5625 C-6.01358204 12.89951556 -6.09447922 11.23096957 -6.125 9.5625 C-6.15078125 8.716875 -6.1765625 7.87125 -6.203125 7 C-5.64215117 2.83276583 -4.13247111 0.80852696 0 0 Z " fill="#F6FBF8" transform="translate(162.875,155.4375)"/>
<path d="M0 0 C3.88730092 1.47449345 5.15020245 3.33064682 7 7 C7.6953125 10.26953125 7.6953125 10.26953125 8.125 13.8125 C8.35703125 15.65134766 8.35703125 15.65134766 8.59375 17.52734375 C8.7278125 18.67332031 8.861875 19.81929687 9 21 C9.20755981 22.62509898 9.41571345 24.25012249 9.625 25.875 C9.74875 26.90625 9.8725 27.9375 10 29 C10.66 29 11.32 29 12 29 C13.03194763 53.20155342 13.03194763 53.20155342 7 61 C5.68 60.67 4.36 60.34 3 60 C3.66 60 4.32 60 5 60 C6.60574316 51.36913054 7.43875866 42.24627489 3.734375 34.12109375 C2.17799374 29.62580106 2.22812297 24.7197855 2 20 C1.01 19.67 0.02 19.34 -1 19 C-1 18.34 -1 17.68 -1 17 C-2.65 17 -4.3 17 -6 17 C-5 15 -5 15 -2 13.9375 C-1.01 13.628125 -0.02 13.31875 1 13 C2.37375369 11.84354174 2.37375369 11.84354174 2.25 8.6875 C1.99337817 4.90232794 1.56295176 3.66974142 -1 1 C-0.67 0.67 -0.34 0.34 0 0 Z " fill="#126DA8" transform="translate(161,216)"/>
<path d="M0 0 C0.33 0.99 0.66 1.98 1 3 C2.65 2.34 4.3 1.68 6 1 C6 1.66 6 2.32 6 3 C6.598125 2.835 7.19625 2.67 7.8125 2.5 C10.2486161 1.94317346 12.51229386 2 15 2 C15.33 1.34 15.66 0.68 16 0 C16.66 0 17.32 0 18 0 C18.495 0.99 18.495 0.99 19 2 C21.02463255 2.65213292 21.02463255 2.65213292 23 3 C23 4.65 23 6.3 23 8 C18.60561085 9.08780557 14.31129921 9.14942787 9.8125 9.125 C9.08869141 9.12886719 8.36488281 9.13273437 7.61914062 9.13671875 C2.25347222 9.12673611 2.25347222 9.12673611 0 8 C-0.99 8.495 -0.99 8.495 -2 9 C-3.43679032 9.04516433 -4.87551946 9.03864149 -6.3125 9 C-9.03890249 8.95201532 -11.08639012 9.02159753 -13.75 9.6875 C-16.94149585 10.13076331 -18.45251154 8.81963461 -21 7 C-20.67 5.68 -20.34 4.36 -20 3 C-15.25 1.875 -15.25 1.875 -13 3 C-13 4.32 -13 5.64 -13 7 C-10.66924071 6.04134491 -10.66924071 6.04134491 -9 3 C-5.76650772 1.14246188 -3.75586417 0 0 0 Z " fill="#C3C2C0" transform="translate(87,47)"/>
<path d="M0 0 C2.9375 0.625 2.9375 0.625 4.8125 2.5 C5.9375 4.625 5.9375 4.625 5.9375 6.625 C7.2575 6.625 8.5775 6.625 9.9375 6.625 C9.9375 7.945 9.9375 9.265 9.9375 10.625 C8.2875 10.625 6.6375 10.625 4.9375 10.625 C4.87691406 11.26308594 4.81632813 11.90117187 4.75390625 12.55859375 C4.67011719 13.38488281 4.58632812 14.21117187 4.5 15.0625 C4.41878906 15.88621094 4.33757812 16.70992187 4.25390625 17.55859375 C3.9375 19.625 3.9375 19.625 2.9375 20.625 C0.625 20.9375 0.625 20.9375 -2.0625 20.625 C-4.30682982 18.75472515 -5.75693202 17.23613596 -7.0625 14.625 C-7.45729262 9.88748852 -7.45510958 7.47062064 -5.4375 3.125 C-3.0625 0.625 -3.0625 0.625 0 0 Z " fill="#FDF8ED" transform="translate(152.0625,191.375)"/>
<path d="M0 0 C0.33 0 0.66 0 1 0 C1 5.61 1 11.22 1 17 C1.99 17 2.98 17 4 17 C4.66 15.02 5.32 13.04 6 11 C7 13 7 13 6.4765625 15.09375 C6.19554687 15.8878125 5.91453125 16.681875 5.625 17.5 C5.34914062 18.2940625 5.07328125 19.088125 4.7890625 19.90625 C4 22 4 22 3 24 C2.34 24 1.68 24 1 24 C0.86271484 24.93585938 0.86271484 24.93585938 0.72265625 25.890625 C0 28 0 28 -3.5625 29.75 C-12.95337513 32.48900525 -24.21034934 32.39482533 -33 28 C-32.34 27.67 -31.68 27.34 -31 27 C-31 25.35 -31 23.7 -31 22 C-28 25.75 -28 25.75 -28 28 C-25.10391407 28.05413245 -22.20884805 28.09373641 -19.3125 28.125 C-18.49587891 28.14175781 -17.67925781 28.15851563 -16.83789062 28.17578125 C-10.67249094 28.23822263 -10.67249094 28.23822263 -5 26 C0.75915241 19.2075879 -0.19229342 8.37437826 0 0 Z " fill="#BAAA35" transform="translate(173,250)"/>
<path d="M0 0 C0.99 0 1.98 0 3 0 C3.66 0.66 4.32 1.32 5 2 C7.57061311 2.64767793 7.57061311 2.64767793 10 3 C9.67 4.65 9.34 6.3 9 8 C8.443125 7.814375 7.88625 7.62875 7.3125 7.4375 C4.59679918 6.92371876 2.6860481 7.44901578 0 8 C-0.99 7.67 -1.98 7.34 -3 7 C-3.33 7.99 -3.66 8.98 -4 10 C-4 9.34 -4 8.68 -4 8 C-6.31 8 -8.62 8 -11 8 C-11.33 6.68 -11.66 5.36 -12 4 C-15.87797662 3.56613908 -15.87797662 3.56613908 -17.75 5.5 C-18.1625 5.995 -18.575 6.49 -19 7 C-19 5.35 -19 3.7 -19 2 C-15.91899977 1.11971422 -14.45134255 0.81285797 -11.4375 2.0625 C-10.633125 2.371875 -9.82875 2.68125 -9 3 C-7.65022151 2.36729133 -6.31647119 1.69937532 -5 1 C-2.25 1.375 -2.25 1.375 0 2 C0 1.34 0 0.68 0 0 Z " fill="#D6D4D4" transform="translate(176,61)"/>
<path d="M0 0 C0.90492187 0.02320313 1.80984375 0.04640625 2.7421875 0.0703125 C4.10730469 0.09738281 4.10730469 0.09738281 5.5 0.125 C6.19867188 0.14820313 6.89734375 0.17140625 7.6171875 0.1953125 C7.6171875 1.8453125 7.6171875 3.4953125 7.6171875 5.1953125 C5.3071875 5.1953125 2.9971875 5.1953125 0.6171875 5.1953125 C0.6171875 6.8453125 0.6171875 8.4953125 0.6171875 10.1953125 C2.9271875 10.1953125 5.2371875 10.1953125 7.6171875 10.1953125 C7.6171875 11.8453125 7.6171875 13.4953125 7.6171875 15.1953125 C5.99254908 15.24926728 4.36740209 15.28808445 2.7421875 15.3203125 C1.83726563 15.34351563 0.93234375 15.36671875 0 15.390625 C-2.3828125 15.1953125 -2.3828125 15.1953125 -4.3828125 13.1953125 C-4.6484375 10.6640625 -4.6484375 10.6640625 -4.6328125 7.6953125 C-4.63796875 6.715625 -4.643125 5.7359375 -4.6484375 4.7265625 C-4.28955423 1.30661608 -3.46747818 0.28421952 0 0 Z " fill="#EA933A" transform="translate(28.3828125,316.8046875)"/>
<path d="M0 0 C0 0.33 0 0.66 0 1 C-1.28132813 1.12117188 -2.56265625 1.24234375 -3.8828125 1.3671875 C-17.36582235 2.66398271 -30.74635088 4.11778521 -44 7 C-44.7115625 7.15339844 -45.423125 7.30679687 -46.15625 7.46484375 C-49.51353754 8.20077091 -52.86210982 8.96741694 -56.20703125 9.7578125 C-61.793446 11.07301414 -67.29649218 12.33680142 -73 13 C-73 12.34 -73 11.68 -73 11 C-59.47967905 6.8814503 -45.95974913 4.15843972 -32 2 C-31.00726074 1.84225098 -30.01452148 1.68450195 -28.99169922 1.52197266 C-26.05918152 1.06070459 -23.12438005 0.62004426 -20.1875 0.1875 C-19.31125977 0.05134277 -18.43501953 -0.08481445 -17.53222656 -0.22509766 C-11.51568157 -1.06667714 -6.00973019 -0.85578301 0 0 Z " fill="#E78A7D" transform="translate(113,274)"/>
<path d="M0 0 C0.66 0 1.32 0 2 0 C2 0.66 2 1.32 2 2 C1.34 2 0.68 2 0 2 C0 2.66 0 3.32 0 4 C0.99 4 1.98 4 3 4 C3 3.34 3 2.68 3 2 C5.64 2 8.28 2 11 2 C11 3.65 11 5.3 11 7 C12.65 7 14.3 7 16 7 C16.33 8.32 16.66 9.64 17 11 C15.68 11 14.36 11 13 11 C13 11.66 13 12.32 13 13 C12.34 13 11.68 13 11 13 C10.67 12.34 10.34 11.68 10 11 C6.37 11 2.74 11 -1 11 C-1.09765625 3.28515625 -1.09765625 3.28515625 -1 1 C-0.67 0.67 -0.34 0.34 0 0 Z " fill="#82817F" transform="translate(40,319)"/>
<path d="M0 0 C0.99 0 1.98 0 3 0 C5 3 5 3 5 7 C5.66 6.67 6.32 6.34 7 6 C7 5.01 7 4.02 7 3 C9.875 2.375 9.875 2.375 13 2 C13.66 2.66 14.32 3.32 15 4 C14.625 6.125 14.625 6.125 14 8 C13.195625 8.12375 12.39125 8.2475 11.5625 8.375 C10.716875 8.58125 9.87125 8.7875 9 9 C8.67 9.66 8.34 10.32 8 11 C6.24871182 10.71617054 4.49899997 10.42260471 2.75 10.125 C1.28820312 9.88136719 1.28820312 9.88136719 -0.203125 9.6328125 C-2.77264117 9.05144152 -4.72071056 8.29159735 -7 7 C-7 5.68 -7 4.36 -7 3 C-5.5459375 2.814375 -5.5459375 2.814375 -4.0625 2.625 C-2.5465625 2.315625 -2.5465625 2.315625 -1 2 C-0.67 1.34 -0.34 0.68 0 0 Z " fill="#A7A6A3" transform="translate(144,47)"/>
<path d="M0 0 C1 2 1 2 0.5 5 C-1 8 -1 8 -4 9.3125 C-5.32619475 9.57989976 -6.66101628 9.80656333 -8 10 C-8.67675781 10.10957031 -9.35351562 10.21914063 -10.05078125 10.33203125 C-18.63269018 11.44367749 -27.36525497 11.08465436 -36 11 C-36 10.67 -36 10.34 -36 10 C-27.585 9.505 -27.585 9.505 -19 9 C-22.3721875 8.814375 -22.3721875 8.814375 -25.8125 8.625 C-32.625 8.25 -32.625 8.25 -36 6 C-34.22496094 6.03480469 -34.22496094 6.03480469 -32.4140625 6.0703125 C-23.98604078 6.18534951 -16.22050852 6.04342812 -8 4 C-5.67061142 3.61529154 -3.34144025 3.30540525 -1 3 C-0.67 2.01 -0.34 1.02 0 0 Z " fill="#DD7B65" transform="translate(182,276)"/>
<path d="M0 0 C1.77503906 0.03480469 1.77503906 0.03480469 3.5859375 0.0703125 C5.36871094 0.09738281 5.36871094 0.09738281 7.1875 0.125 C8.10273437 0.14820312 9.01796875 0.17140625 9.9609375 0.1953125 C9.9609375 0.8553125 9.9609375 1.5153125 9.9609375 2.1953125 C8.9709375 2.6903125 8.9709375 2.6903125 7.9609375 3.1953125 C7.30321322 6.22465741 7.30321322 6.22465741 6.9609375 9.1953125 C5.33629908 9.24926728 3.71115209 9.28808445 2.0859375 9.3203125 C1.18101563 9.34351563 0.27609375 9.36671875 -0.65625 9.390625 C-3.0390625 9.1953125 -3.0390625 9.1953125 -5.0390625 7.1953125 C-5.2890625 4.6953125 -5.2890625 4.6953125 -5.0390625 2.1953125 C-3.0390625 0.1953125 -3.0390625 0.1953125 0 0 Z " fill="#E6E5E2" transform="translate(77.0390625,28.8046875)"/>
<path d="M0 0 C0.33 0.66 0.66 1.32 1 2 C1.7425 2 2.485 2 3.25 2 C5.5 2 7.75 2 10 2 C10.38218767 3.65614657 10.71395102 5.32457024 11 7 C10 8 10 8 8.0390625 8.1328125 C7.24242188 8.13023438 6.44578125 8.12765625 5.625 8.125 C4.83351563 8.12757812 4.04203125 8.13015625 3.2265625 8.1328125 C1 8 1 8 -2 7 C-2 5.68 -2 4.36 -2 3 C-2.99 3 -3.98 3 -5 3 C-4.67 4.32 -4.34 5.64 -4 7 C-5.32 7 -6.64 7 -8 7 C-8 6.34 -8 5.68 -8 5 C-8.66 5 -9.32 5 -10 5 C-10.33 5.66 -10.66 6.32 -11 7 C-11 5.35 -11 3.7 -11 2 C-10.01 2.495 -10.01 2.495 -9 3 C-8.67 2.67 -8.34 2.34 -8 2 C-2.47058824 0 -2.47058824 0 0 0 Z " fill="#C1C0BF" transform="translate(115,61)"/>
<path d="M0 0 C0.66 0 1.32 0 2 0 C2.33 0.66 2.66 1.32 3 2 C5.02463255 2.65213292 5.02463255 2.65213292 7 3 C7 4.65 7 6.3 7 8 C3.32612505 8.85298376 -0.0447393 9.10789471 -3.8125 9.0625 C-5.27623047 9.04896484 -5.27623047 9.04896484 -6.76953125 9.03515625 C-7.87361328 9.01775391 -7.87361328 9.01775391 -9 9 C-8.67 8.01 -8.34 7.02 -8 6 C-7.34 6 -6.68 6 -6 6 C-5.505 5.34 -5.01 4.68 -4.5 4 C-4.005 3.34 -3.51 2.68 -3 2 C-2.34 2 -1.68 2 -1 2 C-0.67 1.34 -0.34 0.68 0 0 Z " fill="#CAC8C7" transform="translate(103,47)"/>
<path d="M0 0 C1 1 1 1 1.0625 3.5625 C1.041875 4.366875 1.02125 5.17125 1 6 C0.34 5.01 -0.32 4.02 -1 3 C-1.99 3 -2.98 3 -4 3 C-4.33 5.97 -4.66 8.94 -5 12 C-5.99 12 -6.98 12 -8 12 C-8 11.01 -8 10.02 -8 9 C-9.32 9 -10.64 9 -12 9 C-12.33 6.36 -12.66 3.72 -13 1 C-8.58300512 -0.10424872 -4.52642225 -0.15088074 0 0 Z " fill="#E2E1E0" transform="translate(101,29)"/>
<path d="M0 0 C1.2684375 0.0309375 1.2684375 0.0309375 2.5625 0.0625 C3.2225 0.0625 3.8825 0.0625 4.5625 0.0625 C6.5625 0.0625 8.5625 0.0625 10.5625 0.0625 C9.5725 3.0325 8.5825 6.0025 7.5625 9.0625 C6.9025 9.0625 6.2425 9.0625 5.5625 9.0625 C5.5625 7.7425 5.5625 6.4225 5.5625 5.0625 C3.2525 5.0625 0.9425 5.0625 -1.4375 5.0625 C-1.4375 5.7225 -1.4375 6.3825 -1.4375 7.0625 C0.2125 7.0625 1.8625 7.0625 3.5625 7.0625 C3.5625 7.7225 3.5625 8.3825 3.5625 9.0625 C0.6875 9.25 0.6875 9.25 -2.4375 9.0625 C-4.4375 6.0625 -4.4375 6.0625 -4.125 3.4375 C-3.15333956 0.08085486 -3.15333956 0.08085486 0 0 Z " fill="#4C4845" transform="translate(146.4375,28.9375)"/>
<path d="M0 0 C0.515625 0.61875 1.03125 1.2375 1.5625 1.875 C7.58334644 7.12394305 15.39790957 6.24668178 22.9375 6.125 C24.53561523 6.11146484 24.53561523 6.11146484 26.16601562 6.09765625 C28.77758034 6.07423414 31.38866937 6.04143452 34 6 C33.67 6.66 33.34 7.32 33 8 C20.9748016 10.81478718 7.34018842 9.74226061 -4 5 C-2.68 4.67 -1.36 4.34 0 4 C0 2.68 0 1.36 0 0 Z " fill="#64A568" transform="translate(137,274)"/>
<path d="M0 0 C1.43472656 -0.02126953 1.43472656 -0.02126953 2.8984375 -0.04296875 C5.65510017 0.19004428 7.27447395 0.77829836 9.625 2.1875 C6.55609813 3.72195094 3.92405734 2.73734289 0.625 2.1875 C-0.365 3.6725 -0.365 3.6725 -1.375 5.1875 C-2.509375 5.496875 -3.64375 5.80625 -4.8125 6.125 C-8.63663328 7.26553098 -9.32750894 7.95461939 -11.375 11.1875 C-12.035 11.1875 -12.695 11.1875 -13.375 11.1875 C-13.705 11.8475 -14.035 12.5075 -14.375 13.1875 C-15.035 13.1875 -15.695 13.1875 -16.375 13.1875 C-16.045 11.8675 -15.715 10.5475 -15.375 9.1875 C-14.715 9.1875 -14.055 9.1875 -13.375 9.1875 C-13.2821875 8.32125 -13.2821875 8.32125 -13.1875 7.4375 C-11.06565107 1.56161066 -5.62337896 0.03769021 0 0 Z " fill="#DDAB27" transform="translate(156.375,186.8125)"/>
<path d="M0 0 C2.33294775 -0.04241723 4.66702567 -0.04092937 7 0 C8 1 8 1 8.0625 3.5625 C8.041875 4.366875 8.02125 5.17125 8 6 C8.66 6 9.32 6 10 6 C10.33 4.35 10.66 2.7 11 1 C11.66 1 12.32 1 13 1 C12.34 3.64 11.68 6.28 11 9 C7.7 9 4.4 9 1 9 C0.67 6.03 0.34 3.06 0 0 Z " fill="#DEDCDA" transform="translate(165,29)"/>
<path d="M0 0 C3.46679688 0.04882812 3.46679688 0.04882812 6.93359375 0.09765625 C6.93359375 3.06765625 6.93359375 6.03765625 6.93359375 9.09765625 C5.28359375 9.09765625 3.63359375 9.09765625 1.93359375 9.09765625 C1.27359375 7.77765625 0.61359375 6.45765625 -0.06640625 5.09765625 C-0.39640625 6.41765625 -0.72640625 7.73765625 -1.06640625 9.09765625 C-1.72640625 9.09765625 -2.38640625 9.09765625 -3.06640625 9.09765625 C-3.1640625 2.9453125 -3.1640625 2.9453125 -3.06640625 1.09765625 C-2.06640625 0.09765625 -2.06640625 0.09765625 0 0 Z " fill="#DADADA" transform="translate(91.06640625,320.90234375)"/>
<path d="M0 0 C1.953125 0.52083333 3.90625 1.04166667 5.859375 1.5625 C8.28901861 2.13349349 8.28901861 2.13349349 12 2 C12.33 1.34 12.66 0.68 13 0 C13 2.64 13 5.28 13 8 C12.113125 7.814375 11.22625 7.62875 10.3125 7.4375 C7.12314551 7.0162645 5.07900171 7.23024957 2 8 C1.34 8 0.68 8 0 8 C0 5.36 0 2.72 0 0 Z " fill="#C0BFBD" transform="translate(43,61)"/>
<path d="M0 0 C2.12369693 0.23596633 4.24702696 0.47631528 6.3671875 0.7421875 C10.57721642 1.15444553 14.77471008 1.07938958 19 1 C18.67 2.65 18.34 4.3 18 6 C12.06 5.67 6.12 5.34 0 5 C-0.33 3.68 -0.66 2.36 -1 1 C-0.67 0.67 -0.34 0.34 0 0 Z " fill="#B7B7B7" transform="translate(206,322)"/>
<path d="M0 0 C0 1.65 0 3.3 0 5 C-0.33 3.68 -0.66 2.36 -1 1 C-1.66 1 -2.32 1 -3 1 C-3 2.32 -3 3.64 -3 5 C-4.56215548 5.16986545 -6.1247452 5.33573964 -7.6875 5.5 C-8.99267578 5.63921875 -8.99267578 5.63921875 -10.32421875 5.78125 C-12.89723339 5.99159864 -15.41984364 6.03719144 -18 6 C-18.33 4.35 -18.66 2.7 -19 1 C-18.67 1.99 -18.34 2.98 -18 4 C-16.35 3.67 -14.7 3.34 -13 3 C-13 2.01 -13 1.02 -13 0 C-12.34 0.33 -11.68 0.66 -11 1 C-10.67 0.67 -10.34 0.34 -10 0 C-6.46124467 -1.31065012 -3.63922283 -0.74438649 0 0 Z " fill="#BAB9B8" transform="translate(103,63)"/>
<path d="M0 0 C4.875 1.75 4.875 1.75 6 4 C6.45751634 10.29084967 6.45751634 10.29084967 4.75 12.9375 C3 14 3 14 -1 14 C-1 11.69 -1 9.38 -1 7 C-0.01 7.33 0.98 7.66 2 8 C2 7.01 2 6.02 2 5 C1.01 5 0.02 5 -1 5 C-0.67 3.35 -0.34 1.7 0 0 Z " fill="#E9F1F7" transform="translate(158,217)"/>
<path d="M0 0 C2.00720923 0.28674418 4.0085944 0.61866701 6 1 C6 2.32 6 3.64 6 5 C8.33075929 4.04134491 8.33075929 4.04134491 10 1 C10.66 1 11.32 1 12 1 C12 1.66 12 2.32 12 3 C12.66 3 13.32 3 14 3 C14.33 2.34 14.66 1.68 15 1 C15 2.65 15 4.3 15 6 C14.67 5.34 14.34 4.68 14 4 C13.34 4 12.68 4 12 4 C12 4.66 12 5.32 12 6 C3.96498906 8.43326039 3.96498906 8.43326039 -0.0625 6.625 C-0.701875 6.08875 -1.34125 5.5525 -2 5 C-1.125 1.125 -1.125 1.125 0 0 Z " fill="#B7B5B4" transform="translate(68,49)"/>
<path d="M0 0 C1.890625 0.2578125 1.890625 0.2578125 4 1 C5.046875 2.7421875 5.046875 2.7421875 5.75 4.875 C6.11351563 5.92300781 6.11351563 5.92300781 6.484375 6.9921875 C7 9 7 9 7 12 C6.01 11.67 5.02 11.34 4 11 C4 10.34 4 9.68 4 9 C2.68 9 1.36 9 0 9 C-0.33 9.99 -0.66 10.98 -1 12 C-1.99 12 -2.98 12 -4 12 C-3.52309796 10.37433394 -3.04340334 8.74948689 -2.5625 7.125 C-2.29566406 6.22007813 -2.02882813 5.31515625 -1.75390625 4.3828125 C-1 2 -1 2 0 0 Z " fill="#3F3836" transform="translate(118,26)"/>
<path d="M0 0 C0.66 0.66 1.32 1.32 2 2 C1.44444444 6.55555556 1.44444444 6.55555556 0 8 C-2.9375 8.1875 -2.9375 8.1875 -6 8 C-6.66 7.34 -7.32 6.68 -8 6 C-7.75 2.9375 -7.75 2.9375 -7 0 C-4.29393021 -1.35303489 -2.8671629 -0.7884698 0 0 Z " fill="#454140" transform="translate(187,30)"/>
<path d="M0 0 C0.33 0 0.66 0 1 0 C1 2.31 1 4.62 1 7 C-4.14089313 8.85072153 -6.95531271 9.21474076 -12 7 C-11.67 5.35 -11.34 3.7 -11 2 C-3.25 0.875 -3.25 0.875 -1 2 C-0.67 1.34 -0.34 0.68 0 0 Z " fill="#BAB9B8" transform="translate(155,61)"/>
<path d="M0 0 C0.33 0 0.66 0 1 0 C1 2.31 1 4.62 1 7 C-0.41433206 7.2236337 -1.83167618 7.42826476 -3.25 7.625 C-4.03890625 7.74101563 -4.8278125 7.85703125 -5.640625 7.9765625 C-8.32152459 8.00319395 -9.72694089 7.36592084 -12 6 C-11.67 4.68 -11.34 3.36 -11 2 C-10.67 2.66 -10.34 3.32 -10 4 C-9.34 4 -8.68 4 -8 4 C-8 3.34 -8 2.68 -8 2 C-6.2984375 1.7834375 -6.2984375 1.7834375 -4.5625 1.5625 C-1.19222799 1.38828522 -1.19222799 1.38828522 0 0 Z " fill="#C5C5C3" transform="translate(42,48)"/>
<path d="M0 0 C2.8125 -0.25 2.8125 -0.25 6 0 C8.04040776 2.04040776 9 3.08325244 9 6 C10.32 6 11.64 6 13 6 C13 7.32 13 8.64 13 10 C11.35 10 9.7 10 8 10 C7.67 12.97 7.34 15.94 7 19 C6.67 19 6.34 19 6 19 C6 16.03 6 13.06 6 10 C4.35 10 2.7 10 1 10 C1 9.01 1 8.02 1 7 C2.65 7 4.3 7 6 7 C5.67 5.35 5.34 3.7 5 2 C3.35 1.67 1.7 1.34 0 1 C0 0.67 0 0.34 0 0 Z " fill="#F7D693" transform="translate(149,192)"/>
<path d="M0 0 C2.47524576 2.90572328 3.69670231 5.15822926 4 9 C3.34 9.66 2.68 10.32 2 11 C1.30251417 12.31747324 0.63040043 13.64914193 0 15 C0 13.35 0 11.7 0 10 C-2.31 10 -4.62 10 -7 10 C-7 8.35 -7 6.7 -7 5 C-4.69 5 -2.38 5 0 5 C0 3.35 0 1.7 0 0 Z " fill="#FAF4DC" transform="translate(36,317)"/>
<path d="M0 0 C0.33 0 0.66 0 1 0 C1.33 5.28 1.66 10.56 2 16 C2.66 16 3.32 16 4 16 C4.33 15.01 4.66 14.02 5 13 C5.19335938 13.92683594 5.38671875 14.85367187 5.5859375 15.80859375 C5.84632813 17.00613281 6.10671875 18.20367187 6.375 19.4375 C6.63023437 20.63246094 6.88546875 21.82742188 7.1484375 23.05859375 C7.42945313 24.02925781 7.71046875 24.99992187 8 26 C8.66 26.33 9.32 26.66 10 27 C7.6875 26.8125 7.6875 26.8125 5 26 C-1.07934053 18.34453415 -0.23093017 9.25003609 0 0 Z " fill="#286F9A" transform="translate(139,250)"/>
<path d="M0 0 C1.258125 -0.020625 2.51625 -0.04125 3.8125 -0.0625 C4.52019531 -0.07410156 5.22789062 -0.08570313 5.95703125 -0.09765625 C8 0 8 0 11 1 C12.40664926 1.14492123 13.8181133 1.24628931 15.23046875 1.31640625 C16.43413086 1.37924805 16.43413086 1.37924805 17.66210938 1.44335938 C18.49548828 1.48267578 19.32886719 1.52199219 20.1875 1.5625 C21.03248047 1.60568359 21.87746094 1.64886719 22.74804688 1.69335938 C24.83184433 1.79931518 26.91590103 1.9001502 29 2 C25.02364597 4.69365918 20.86227914 4.29521842 16.25 4.25 C15.4765625 4.25773437 14.703125 4.26546875 13.90625 4.2734375 C8.62586154 4.25571808 4.07459428 3.45981479 -1 2 C-0.67 1.34 -0.34 0.68 0 0 Z " fill="#EA5F49" transform="translate(138,282)"/>
<path d="M0 0 C0.33 0.66 0.66 1.32 1 2 C2.32 2 3.64 2 5 2 C5 5 5 5 4 8 C3.4225 7.814375 2.845 7.62875 2.25 7.4375 C0.00967475 6.83231516 0.00967475 6.83231516 -2.125 7.5625 C-2.74375 7.706875 -3.3625 7.85125 -4 8 C-4.66 7.34 -5.32 6.68 -6 6 C-5.8125 4 -5.8125 4 -5 2 C-2 0 -2 0 0 0 Z " fill="#B2B2B0" transform="translate(119,48)"/>
<path d="M0 0 C2.375 -0.125 2.375 -0.125 5 0 C7.76223278 2.76223278 7.57856291 5.20706617 8 9 C5.36 9 2.72 9 0 9 C-0.33 7.68 -0.66 6.36 -1 5 C-0.01 4.34 0.98 3.68 2 3 C1.34 3 0.68 3 0 3 C0 2.01 0 1.02 0 0 Z " fill="#403A38" transform="translate(35,29)"/>
<path d="M0 0 C0.33 0 0.66 0 1 0 C1 5.61 1 11.22 1 17 C1.99 17 2.98 17 4 17 C4.66 15.02 5.32 13.04 6 11 C7 13 7 13 6.44140625 15.1640625 C6.15136719 15.97617187 5.86132812 16.78828125 5.5625 17.625 C5.27503906 18.44226563 4.98757812 19.25953125 4.69140625 20.1015625 C4.34916016 21.04128906 4.34916016 21.04128906 4 22 C1.69 22.33 -0.62 22.66 -3 23 C-2.68289062 22.19304687 -2.36578125 21.38609375 -2.0390625 20.5546875 C-0.81087411 16.35299039 -0.55200991 12.4764935 -0.375 8.125 C-0.33632812 7.34125 -0.29765625 6.5575 -0.2578125 5.75 C-0.16433378 3.83368633 -0.08111505 1.91687681 0 0 Z " fill="#C7A236" transform="translate(173,250)"/>
<path d="M0 0 C2.00720923 0.28674418 4.0085944 0.61866701 6 1 C6.625 3.375 6.625 3.375 7 6 C5 8 5 8 2.5 8.3125 C1.2625 8.1578125 1.2625 8.1578125 0 8 C-2 5 -2 5 -1.6875 2.875 C-1 1 -1 1 0 0 Z " fill="#FAE5E2" transform="translate(162,115)"/>
<path d="M0 0 C0.66 0 1.32 0 2 0 C2 0.99 2 1.98 2 3 C2.66 3 3.32 3 4 3 C4 5.31 4 7.62 4 10 C4.99 10 5.98 10 7 10 C7 7.69 7 5.38 7 3 C7.33 3 7.66 3 8 3 C8 5.64 8 8.28 8 11 C5.23735711 11.59732819 2.83967231 12 0 12 C0 8.04 0 4.08 0 0 Z " fill="#7B7B7B" transform="translate(79,318)"/>
<path d="M0 0 C2.0625 0.4375 2.0625 0.4375 4 1 C4 4 4 4 3 7 C0.03 7 -2.94 7 -6 7 C-6 5 -6 3 -6 1 C-4.7934375 1.0309375 -4.7934375 1.0309375 -3.5625 1.0625 C-1.06645115 1.29633621 -1.06645115 1.29633621 0 0 Z " fill="#BFBDBC" transform="translate(77,62)"/>
<path d="M0 0 C2.375 -0.125 2.375 -0.125 5 0 C5.66 0.66 6.32 1.32 7 2 C6.625 4.625 6.625 4.625 6 7 C3.625 7.625 3.625 7.625 1 8 C0.34 7.34 -0.32 6.68 -1 6 C-0.625 2.875 -0.625 2.875 0 0 Z " fill="#E67260" transform="translate(145,115)"/>
<path d="M0 0 C1.98 0 3.96 0 6 0 C6 0.99 6 1.98 6 3 C4.35 2.67 2.7 2.34 1 2 C2.25541557 4.51083114 3.50063488 4.87125446 6 6 C6.042721 7.66611905 6.04063832 9.33382885 6 11 C5 12 5 12 2.4375 12.0625 C1.633125 12.041875 0.82875 12.02125 0 12 C-0.33 11.01 -0.66 10.02 -1 9 C1.475 9.495 1.475 9.495 4 10 C3.154375 9.278125 2.30875 8.55625 1.4375 7.8125 C-1 5 -1 5 -0.8125 2.1875 C-0.544375 1.465625 -0.27625 0.74375 0 0 Z " fill="#3D3836" transform="translate(64,26)"/>
<path d="M0 0 C0.99 0.495 0.99 0.495 2 1 C2.33 0.67 2.66 0.34 3 0 C4.32 0 5.64 0 7 0 C7.33 0.33 7.66 0.66 8 1 C8.66 0.67 9.32 0.34 10 0 C10 1.65 10 3.3 10 5 C6.59437148 5.77842938 3.49234244 6.09978121 0 6 C0 4.02 0 2.04 0 0 Z " fill="#BDBCBA" transform="translate(57,63)"/>
<path d="M0 0 C0.33 1.32 0.66 2.64 1 4 C1.66 4 2.32 4 3 4 C3 4.66 3 5.32 3 6 C-1.13574827 6.0984702 -4.93631321 5.77403558 -9 5 C-9 3.68 -9 2.36 -9 1 C-6.04335481 -0.4783226 -3.25770263 -0.06032783 0 0 Z " fill="#B4B4B4" transform="translate(201,322)"/>
<path d="M0 0 C1.03253906 0.02707031 1.03253906 0.02707031 2.0859375 0.0546875 C3.7662381 0.10136252 5.44581163 0.17309061 7.125 0.25 C7.125 0.58 7.125 0.91 7.125 1.25 C5.83916016 1.27126953 5.83916016 1.27126953 4.52734375 1.29296875 C-3.00290615 1.60708289 -7.16796393 2.30390207 -12.875 7.25 C-13.535 7.25 -14.195 7.25 -14.875 7.25 C-15.535 8.57 -16.195 9.89 -16.875 11.25 C-17.865 11.25 -18.855 11.25 -19.875 11.25 C-19.01031695 10.1584143 -18.1325637 9.07718031 -17.25 8 C-16.76273438 7.39671875 -16.27546875 6.7934375 -15.7734375 6.171875 C-10.87789816 1.2158969 -6.88310694 -0.34682322 0 0 Z " fill="#839864" transform="translate(156.875,148.75)"/>
<path d="M0 0 C0.99 0 1.98 0 3 0 C3.66 0.66 4.32 1.32 5 2 C7.57061311 2.64767793 7.57061311 2.64767793 10 3 C9.67 4.65 9.34 6.3 9 8 C5.625 7.75 5.625 7.75 2 7 C0.05758039 4.4664092 0 3.21812786 0 0 Z " fill="#AEACAA" transform="translate(176,61)"/>
<path d="M0 0 C7.8465715 2.2260897 15.0674125 4.58835341 22 9 C18.45858043 10.20907496 18.07375628 10.03433482 14.375 8.3125 C13.35019531 7.75755859 13.35019531 7.75755859 12.3046875 7.19140625 C8.33946869 5.14158975 4.16138216 3.60315542 0 2 C0 1.34 0 0.68 0 0 Z " fill="#E78A7C" transform="translate(194,279)"/>
<path d="M0 0 C2.375 -0.125 2.375 -0.125 5 0 C7 2 7 2 7.125 5.625 C7.08375 6.73875 7.0425 7.8525 7 9 C6.01 8.67 5.02 8.34 4 8 C4 7.01 4 6.02 4 5 C3.01 5.99 2.02 6.98 1 8 C1.66 8.33 2.32 8.66 3 9 C1.68 8.67 0.36 8.34 -1 8 C-0.67 6.68 -0.34 5.36 0 4 C1.32 4 2.64 4 4 4 C4 3.34 4 2.68 4 2 C2.68 2.33 1.36 2.66 0 3 C0 2.01 0 1.02 0 0 Z " fill="#3F3937" transform="translate(54,29)"/>
<path d="M0 0 C0.66 0 1.32 0 2 0 C2 0.66 2 1.32 2 2 C1.34 2 0.68 2 0 2 C0 2.66 0 3.32 0 4 C0.99 4 1.98 4 3 4 C3.33 3.34 3.66 2.68 4 2 C4.33 2.99 4.66 3.98 5 5 C5.99 5.33 6.98 5.66 8 6 C8 7.32 8 8.64 8 10 C5.33333333 10 2.66666667 10 0 10 C-0.19412181 8.52168779 -0.38012131 7.04230684 -0.5625 5.5625 C-0.66691406 4.73878906 -0.77132812 3.91507812 -0.87890625 3.06640625 C-0.91886719 2.38449219 -0.95882812 1.70257813 -1 1 C-0.67 0.67 -0.34 0.34 0 0 Z " fill="#C4C3C1" transform="translate(40,319)"/>
<path d="M0 0 C2.62113708 0 4.50935112 -0.31292445 7 -1 C7.33 -0.34 7.66 0.32 8 1 C7.01 1.33 6.02 1.66 5 2 C4.01 3.485 4.01 3.485 3 5 C1.68 4.34 0.36 3.68 -1 3 C-1.33 3.66 -1.66 4.32 -2 5 C-2 4.01 -2 3.02 -2 2 C-5.87797662 1.56613908 -5.87797662 1.56613908 -7.75 3.5 C-8.1625 3.995 -8.575 4.49 -9 5 C-9 3.35 -9 1.7 -9 0 C-5.48926273 -1.17024576 -3.58876152 -0.67289278 0 0 Z " fill="#AFAEAC" transform="translate(166,63)"/>
<path d="M0 0 C0.33 2.31 0.66 4.62 1 7 C0.01 7 -0.98 7 -2 7 C-2 5.68 -2 4.36 -2 3 C-2.99 3 -3.98 3 -5 3 C-4.67 4.32 -4.34 5.64 -4 7 C-5.32 7 -6.64 7 -8 7 C-8 6.34 -8 5.68 -8 5 C-8.66 5 -9.32 5 -10 5 C-10.33 5.66 -10.66 6.32 -11 7 C-11 5.35 -11 3.7 -11 2 C-10.01 2.495 -10.01 2.495 -9 3 C-8.67 2.67 -8.34 2.34 -8 2 C-2.47058824 0 -2.47058824 0 0 0 Z " fill="#ABA9A8" transform="translate(115,61)"/>
<path d="M0 0 C6.15234375 -0.09765625 6.15234375 -0.09765625 8 0 C9 1 9 1 9.0625 3.5625 C9.041875 4.366875 9.02125 5.17125 9 6 C8.34 5.01 7.68 4.02 7 3 C6.01 3 5.02 3 4 3 C3.67 5.97 3.34 8.94 3 12 C2.34 12 1.68 12 1 12 C0.67 8.04 0.34 4.08 0 0 Z " fill="#322C2A" transform="translate(93,29)"/>
<path d="M0 0 C2.64 0 5.28 0 8 0 C8 0.66 8 1.32 8 2 C6.02 2 4.04 2 2 2 C2 3.65 2 5.3 2 7 C3.98 7 5.96 7 8 7 C8 7.66 8 8.32 8 9 C5.36 9 2.72 9 0 9 C0 6.03 0 3.06 0 0 Z " fill="#F9C81A" transform="translate(27,320)"/>
<path d="M0 0 C1.65 0 3.3 0 5 0 C5.02687279 1.81242052 5.04633715 3.62495233 5.0625 5.4375 C5.07410156 6.44683594 5.08570313 7.45617188 5.09765625 8.49609375 C5 11 5 11 4 12 C2.33382885 12.04063832 0.66611905 12.042721 -1 12 C-1.33 10.68 -1.66 9.36 -2 8 C-1.34 8 -0.68 8 0 8 C0 8.66 0 9.32 0 10 C0.99 10 1.98 10 3 10 C3 7.36 3 4.72 3 2 C2.01 2 1.02 2 0 2 C0 1.34 0 0.68 0 0 Z " fill="#352F2D" transform="translate(27,26)"/>
<path d="M0 0 C1.32 0 2.64 0 4 0 C4 2.97 4 5.94 4 9 C2.68 9 1.36 9 0 9 C-1.125 2.25 -1.125 2.25 0 0 Z " fill="#E3E6F0" transform="translate(152,236)"/>
<path d="M0 0 C0.66 0.33 1.32 0.66 2 1 C1.67 1.66 1.34 2.32 1 3 C0.34 3 -0.32 3 -1 3 C-1 4.32 -1 5.64 -1 7 C-1.99 7.495 -1.99 7.495 -3 8 C-3.41655799 10.1522163 -3.73508448 12.32390825 -4 14.5 C-4.26491552 16.67609175 -4.58344201 18.8477837 -5 21 C-5.66 21.33 -6.32 21.66 -7 22 C-6.97692846 13.78653026 -6.89423219 7.57515997 -1.27734375 1.2578125 C-0.85582031 0.84273437 -0.43429688 0.42765625 0 0 Z " fill="#47798C" transform="translate(150,215)"/>
<path d="M0 0 C0.33 0 0.66 0 1 0 C1 2.31 1 4.62 1 7 C-1.60582371 7.93065133 -2.64198224 8.14917407 -5.25 7.0625 C-5.8275 6.711875 -6.405 6.36125 -7 6 C-7 4.68 -7 3.36 -7 2 C-6.030625 1.855625 -5.06125 1.71125 -4.0625 1.5625 C-1.13513227 1.32437659 -1.13513227 1.32437659 0 0 Z " fill="#B9B7B7" transform="translate(144,48)"/>
<path d="M0 0 C0.99 0 1.98 0 3 0 C3.66 1.32 4.32 2.64 5 4 C5.66 2.68 6.32 1.36 7 0 C7.66 0 8.32 0 9 0 C8.44271087 3.34373475 7.64826111 6.03312999 6 9 C5.01 9 4.02 9 3 9 C2.01 6.03 1.02 3.06 0 0 Z " fill="#3B3735" transform="translate(43,29)"/>
<path d="M0 0 C1.65 0 3.3 0 5 0 C4.67 0.99 4.34 1.98 4 3 C3.34 3 2.68 3 2 3 C3.32 3.66 4.64 4.32 6 5 C5.67 6.32 5.34 7.64 5 9 C3.02 9 1.04 9 -1 9 C-1 8.34 -1 7.68 -1 7 C-0.01 6.67 0.98 6.34 2 6 C1.01 5.34 0.02 4.68 -1 4 C-0.67 2.68 -0.34 1.36 0 0 Z " fill="#3B3432" transform="translate(135,29)"/>
<path d="M0 0 C1.65 0.33 3.3 0.66 5 1 C5 3.31 5 5.62 5 8 C3.35 8.33 1.7 8.66 0 9 C-0.75 7.25 -0.75 7.25 -1 5 C0.9375 2.75 0.9375 2.75 3 1 C1.68 1.33 0.36 1.66 -1 2 C-0.67 1.34 -0.34 0.68 0 0 Z " fill="#777777" transform="translate(73,321)"/>
<path d="M0 0 C1.65 0 3.3 0 5 0 C4.67 0.99 4.34 1.98 4 3 C3.34 3 2.68 3 2 3 C3.32 3.66 4.64 4.32 6 5 C5.67 6.32 5.34 7.64 5 9 C3.35 9 1.7 9 0 9 C-0.33 8.34 -0.66 7.68 -1 7 C-0.01 6.67 0.98 6.34 2 6 C1.01 5.34 0.02 4.68 -1 4 C-0.67 2.68 -0.34 1.36 0 0 Z " fill="#3F3939" transform="translate(127,29)"/>
<path d="M0 0 C0 1.65 0 3.3 0 5 C-2.875 5.625 -2.875 5.625 -6 6 C-6.66 5.34 -7.32 4.68 -8 4 C-8 2.68 -8 1.36 -8 0 C-5.13822943 -1.43088528 -3.06624227 -0.59991697 0 0 Z " fill="#C7C5C4" transform="translate(136,50)"/>
<path d="M0 0 C0.639375 0.165 1.27875 0.33 1.9375 0.5 C4.04582216 1.24598544 4.04582216 1.24598544 6 0 C6.125 2.375 6.125 2.375 6 5 C4 7 4 7 1.375 7.125 C0.59125 7.08375 -0.1925 7.0425 -1 7 C-1.04254356 5.00045254 -1.04080783 2.99958364 -1 1 C-0.67 0.67 -0.34 0.34 0 0 Z " fill="#5C5756" transform="translate(97,31)"/>
<path d="M0 0 C2.62187494 1.04874998 3.79371361 1.64931313 5.25 4.125 C5.4975 4.74375 5.745 5.3625 6 6 C5.34 6 4.68 6 4 6 C4.061875 7.27875 4.12375 8.5575 4.1875 9.875 C4.29296875 12.0546875 4.29296875 12.0546875 4 14 C0.77208445 16.1519437 -0.28400809 16.20086443 -4 16 C-3.38125 15.71125 -2.7625 15.4225 -2.125 15.125 C0.13325765 14.06279958 0.13325765 14.06279958 2 12 C2.35173852 8.20122401 2.52701444 5.85639847 0.5 2.5625 C0.005 2.046875 -0.49 1.53125 -1 1 C-0.67 0.67 -0.34 0.34 0 0 Z " fill="#2D79A8" transform="translate(161,216)"/>
<path d="M0 0 C0.33 1.98 0.66 3.96 1 6 C0.34 6 -0.32 6 -1 6 C-1.33 5.67 -1.66 5.34 -2 5 C-4.05396726 5.40929986 -4.05396726 5.40929986 -6 6 C-6 5.34 -6 4.68 -6 4 C-6.66 4 -7.32 4 -8 4 C-8.33 4.66 -8.66 5.32 -9 6 C-9.33 4.68 -9.66 3.36 -10 2 C-9.34 1.67 -8.68 1.34 -8 1 C-8 1.66 -8 2.32 -8 3 C-7.34 3 -6.68 3 -6 3 C-5.67 2.34 -5.34 1.68 -5 1 C-3 0 -3 0 0 0 Z " fill="#B2B1B0" transform="translate(54,49)"/>
<path d="M0 0 C0.78375 0.04125 1.5675 0.0825 2.375 0.125 C2.705 1.115 3.035 2.105 3.375 3.125 C1.725 3.125 0.075 3.125 -1.625 3.125 C-1.625 4.115 -1.625 5.105 -1.625 6.125 C0.025 6.455 1.675 6.785 3.375 7.125 C3.045 7.785 2.715 8.445 2.375 9.125 C0 9.25 0 9.25 -2.625 9.125 C-4.625 7.125 -4.625 7.125 -4.875 4.625 C-4.51649553 1.03995533 -3.59522993 0.17120143 0 0 Z " fill="#3C3736" transform="translate(76.625,28.875)"/>
<path d="M0 0 C2.10827055 3.16240582 2.33817465 4.50657469 2.625 8.1875 C2.69976562 9.08855469 2.77453125 9.98960937 2.8515625 10.91796875 C2.90054688 11.60503906 2.94953125 12.29210937 3 13 C1.0625 12.6875 1.0625 12.6875 -1 12 C-2.09898702 8.70303895 -1.87124444 7.59505097 -1.0625 4.3125 C-0.86785156 3.50425781 -0.67320312 2.69601562 -0.47265625 1.86328125 C-0.31667969 1.24839844 -0.16070312 0.63351562 0 0 Z " fill="#E2A721" transform="translate(139,264)"/>
<path d="M0 0 C1.32 0 2.64 0 4 0 C4 2.97 4 5.94 4 9 C2.35 9 0.7 9 -1 9 C-1.1875 6.625 -1.1875 6.625 -1 4 C-0.01 3.34 0.98 2.68 2 2 C1.01 1.67 0.02 1.34 -1 1 C-0.67 0.67 -0.34 0.34 0 0 Z " fill="#767676" transform="translate(94,321)"/>
<path d="M0 0 C0.99 0.33 1.98 0.66 3 1 C3 2.65 3 4.3 3 6 C3.66 6 4.32 6 5 6 C5.33 4.35 5.66 2.7 6 1 C6.66 1 7.32 1 8 1 C7.34 3.64 6.68 6.28 6 9 C4.68 8.67 3.36 8.34 2 8 C0.47835901 5.10888212 0 3.28176588 0 0 Z " fill="#393534" transform="translate(170,29)"/>
<path d="M0 0 C1.98 0 3.96 0 6 0 C5.01 2.97 4.02 5.94 3 9 C2.34 9 1.68 9 1 9 C1 7.68 1 6.36 1 5 C0.34 5 -0.32 5 -1 5 C-0.67 3.35 -0.34 1.7 0 0 Z " fill="#5C5755" transform="translate(151,29)"/>
<path d="M0 0 C0 2.64 0 5.28 0 8 C-1.65 7.67 -3.3 7.34 -5 7 C-5 5.35 -5 3.7 -5 2 C-1.125 0 -1.125 0 0 0 Z " fill="#BEBDBC" transform="translate(134,61)"/>
<path d="M0 0 C0.2475 0.598125 0.495 1.19625 0.75 1.8125 C2.16444091 4.28777159 3.72860188 5.33430804 6 7 C6 7.66 6 8.32 6 9 C4.35 8.67 2.7 8.34 1 8 C0.67 8.99 0.34 9.98 0 11 C-0.33 11 -0.66 11 -1 11 C-1.14285714 3.57142857 -1.14285714 3.57142857 0 0 Z " fill="#EAE9E8" transform="translate(62,27)"/>
<path d="M0 0 C2.64 0 5.28 0 8 0 C8 1.32 8 2.64 8 4 C5.36 4 2.72 4 0 4 C0 2.68 0 1.36 0 0 Z " fill="#BCBCBC" transform="translate(183,323)"/>
<path d="M0 0 C0.66 0 1.32 0 2 0 C2 0.66 2 1.32 2 2 C2.66 2 3.32 2 4 2 C4 2.66 4 3.32 4 4 C3.34 4 2.68 4 2 4 C2 5.65 2 7.3 2 9 C2.66 9 3.32 9 4 9 C4 9.66 4 10.32 4 11 C2.68 10.67 1.36 10.34 0 10 C-1.125 2.25 -1.125 2.25 0 0 Z " fill="#3C3433" transform="translate(105,27)"/>
<path d="M0 0 C0.66 0 1.32 0 2 0 C2 0.66 2 1.32 2 2 C2.66 2 3.32 2 4 2 C4 2.66 4 3.32 4 4 C3.34 4 2.68 4 2 4 C2 5.65 2 7.3 2 9 C2.66 9 3.32 9 4 9 C4 9.66 4 10.32 4 11 C2.68 10.67 1.36 10.34 0 10 C-1.125 2.25 -1.125 2.25 0 0 Z " fill="#383330" transform="translate(160,27)"/>
<path d="M0 0 C1 2 1 2 0.0625 5.125 C-0.288125 6.07375 -0.63875 7.0225 -1 8 C-2.32 8 -3.64 8 -5 8 C-5.33 7.34 -5.66 6.68 -6 6 C-8.02463255 5.34786708 -8.02463255 5.34786708 -10 5 C-9.36191406 4.89042969 -8.72382813 4.78085937 -8.06640625 4.66796875 C-7.24011719 4.50941406 -6.41382813 4.35085938 -5.5625 4.1875 C-4.32693359 3.96126953 -4.32693359 3.96126953 -3.06640625 3.73046875 C-2.38449219 3.48941406 -1.70257813 3.24835938 -1 3 C-0.67 2.01 -0.34 1.02 0 0 Z " fill="#C87556" transform="translate(182,276)"/>
<path d="M0 0 C0.99 0 1.98 0 3 0 C3 2.31 3 4.62 3 7 C4.65 7.33 6.3 7.66 8 8 C8 8.99 8 9.98 8 11 C3.545 10.01 3.545 10.01 -1 9 C-0.34 8.67 0.32 8.34 1 8 C0.67 5.36 0.34 2.72 0 0 Z " fill="#D8D8D6" transform="translate(144,47)"/>
<path d="M0 0 C2.31 0 4.62 0 7 0 C6.67 1.98 6.34 3.96 6 6 C5.67 5.34 5.34 4.68 5 4 C2.47266765 3.34444881 2.47266765 3.34444881 0 3 C0 2.01 0 1.02 0 0 Z " fill="#999796" transform="translate(44,321)"/>
<path d="M0 0 C0.66 0 1.32 0 2 0 C2.33 0.66 2.66 1.32 3 2 C3.99 2 4.98 2 6 2 C6 2.66 6 3.32 6 4 C5.38125 4.103125 4.7625 4.20625 4.125 4.3125 C1.63473516 4.87525373 1.63473516 4.87525373 0 8 C-0.99 8.33 -1.98 8.66 -3 9 C-2.01 6.03 -1.02 3.06 0 0 Z " fill="#CDCBC9" transform="translate(52,29)"/>
<path d="M0 0 C0.33 1.32 0.66 2.64 1 4 C-2.69541586 4.95024979 -5.30458414 4.95024979 -9 4 C-8.34 3.67 -7.68 3.34 -7 3 C-7 2.34 -7 1.68 -7 1 C-6.401875 1.20625 -5.80375 1.4125 -5.1875 1.625 C-2.71549154 2.30671915 -2.71549154 2.30671915 0 0 Z " fill="#D5D5D5" transform="translate(224,323)"/>
<path d="M0 0 C0.99 0.495 0.99 0.495 2 1 C2 1.66 2 2.32 2 3 C3.32 3 4.64 3 6 3 C6 4.32 6 5.64 6 7 C4.02 7 2.04 7 0 7 C0 4.69 0 2.38 0 0 Z " fill="#F7CE84" transform="translate(156,195)"/>
<path d="M0 0 C1.65 0 3.3 0 5 0 C5.33 1.32 5.66 2.64 6 4 C4.68 4 3.36 4 2 4 C2 4.66 2 5.32 2 6 C1.34 6 0.68 6 0 6 C0 4.02 0 2.04 0 0 Z " fill="#9D9B9A" transform="translate(51,326)"/>
<path d="M0 0 C1.23556641 0.01740234 1.23556641 0.01740234 2.49609375 0.03515625 C3.32238281 0.04417969 4.14867187 0.05320312 5 0.0625 C5.63808594 0.07410156 6.27617187 0.08570312 6.93359375 0.09765625 C6.93359375 0.42765625 6.93359375 0.75765625 6.93359375 1.09765625 C5.17015625 1.12859375 5.17015625 1.12859375 3.37109375 1.16015625 C-2.03545458 1.77694608 -4.71427515 5.08557434 -8.06640625 9.09765625 C-8.06640625 6.09765625 -8.06640625 6.09765625 -5.62890625 3.47265625 C-4.78328125 2.68890625 -3.93765625 1.90515625 -3.06640625 1.09765625 C-2.06640625 0.09765625 -2.06640625 0.09765625 0 0 Z " fill="#FADFDD" transform="translate(145.06640625,100.90234375)"/>
<path d="M0 0 C2.0625 0.4375 2.0625 0.4375 4 1 C3.34 2.98 2.68 4.96 2 7 C0.68 6.34 -0.64 5.68 -2 5 C-1.125 1.125 -1.125 1.125 0 0 Z " fill="#D3D2D1" transform="translate(68,49)"/>
<path d="M0 0 C-0.33 1.32 -0.66 2.64 -1 4 C-2.65 4 -4.3 4 -6 4 C-6 2.68 -6 1.36 -6 0 C-3.50907189 -1.24546405 -2.58919267 -0.7767578 0 0 Z " fill="#9B9A99" transform="translate(59,321)"/>
<path d="M0 0 C1.65 0.33 3.3 0.66 5 1 C4.67 2.32 4.34 3.64 4 5 C2.35 4.67 0.7 4.34 -1 4 C-0.67 2.68 -0.34 1.36 0 0 Z " fill="#6CB684" transform="translate(161,166)"/>
<path d="M0 0 C2.125 0.9375 2.125 0.9375 4 2 C3.67 3.32 3.34 4.64 3 6 C1.68 6 0.36 6 -1 6 C-1.33 4.35 -1.66 2.7 -2 1 C-1.34 0.67 -0.68 0.34 0 0 Z " fill="#CFCFCD" transform="translate(155,49)"/>
<path d="M0 0 C1.67542976 0.28604898 3.34385343 0.61781233 5 1 C5.33 2.32 5.66 3.64 6 5 C4.02 5 2.04 5 0 5 C-0.5625 3.0625 -0.5625 3.0625 -1 1 C-0.67 0.67 -0.34 0.34 0 0 Z " fill="#696262" transform="translate(35,33)"/>
<path d="M0 0 C2 2 2 2 2.125 5.625 C2.08375 6.73875 2.0425 7.8525 2 9 C1.34 9 0.68 9 0 9 C0 8.34 0 7.68 0 7 C-0.66 7 -1.32 7 -2 7 C-2 5.35 -2 3.7 -2 2 C-1.34 2 -0.68 2 0 2 C0 1.34 0 0.68 0 0 Z " fill="#E1E0DF" transform="translate(164,29)"/>
<path d="M0 0 C1.98 0 3.96 0 6 0 C6 0.66 6 1.32 6 2 C5.01 2.495 5.01 2.495 4 3 C3.34227572 6.02934491 3.34227572 6.02934491 3 9 C2.34 9 1.68 9 1 9 C0.67 6.03 0.34 3.06 0 0 Z " fill="#3E3635" transform="translate(81,29)"/>
<path d="M0 0 C1.98 0.495 1.98 0.495 4 1 C3.67 2.98 3.34 4.96 3 7 C2.01 7 1.02 7 0 7 C-1.125 2.25 -1.125 2.25 0 0 Z " fill="#6C6663" transform="translate(118,26)"/>
<path d="M0 0 C2 2 2 2 2.5 5.0625 C2.665 6.031875 2.83 7.00125 3 8 C3.66 8.33 4.32 8.66 5 9 C2.625 8.8125 2.625 8.8125 0 8 C-1.3125 5.4375 -1.3125 5.4375 -2 3 C-1.34 3 -0.68 3 0 3 C0 2.01 0 1.02 0 0 Z " fill="#1A6CA9" transform="translate(144,268)"/>
<path d="M0 0 C2.0625 0.4375 2.0625 0.4375 4 1 C4 2.65 4 4.3 4 6 C2.33333333 6 0.66666667 6 -1 6 C-1.042721 4.33388095 -1.04063832 2.66617115 -1 1 C-0.67 0.67 -0.34 0.34 0 0 Z " fill="#B6B5B3" transform="translate(59,49)"/>
<path d="M0 0 C1.43088528 2.86177057 0.59991697 4.93375773 0 8 C-1.32 7.34 -2.64 6.68 -4 6 C-3.6875 4.125 -3.6875 4.125 -3 2 C-2.01 1.34 -1.02 0.68 0 0 Z " fill="#CDCDCC" transform="translate(117,48)"/>
<path d="M0 0 C1.32 0.33 2.64 0.66 4 1 C4 1.99 4 2.98 4 4 C4.66 4 5.32 4 6 4 C6 4.66 6 5.32 6 6 C4.02 6 2.04 6 0 6 C0 4.02 0 2.04 0 0 Z " fill="#CECECE" transform="translate(198,322)"/>
<path d="M0 0 C1.65 0 3.3 0 5 0 C4.67 1.65 4.34 3.3 4 5 C2.68 4.67 1.36 4.34 0 4 C0 2.68 0 1.36 0 0 Z " fill="#EBF8EF" transform="translate(149,166)"/>
<path d="M0 0 C0.99 0.33 1.98 0.66 3 1 C2.67 2.65 2.34 4.3 2 6 C0.02 6 -1.96 6 -4 6 C-3.67 5.01 -3.34 4.02 -3 3 C-2.01 3 -1.02 3 0 3 C0 2.01 0 1.02 0 0 Z " fill="#BDBBBA" transform="translate(94,63)"/>
<path d="M0 0 C2.475 0.495 2.475 0.495 5 1 C5 1.99 5 2.98 5 4 C3.68 4.33 2.36 4.66 1 5 C0.67 3.35 0.34 1.7 0 0 Z " fill="#D2D1CF" transform="translate(45,64)"/>
<path d="M0 0 C0.33 0.99 0.66 1.98 1 3 C3.50447516 4.21869929 3.50447516 4.21869929 6 5 C4.02 5.99 4.02 5.99 2 7 C1.67 6.01 1.34 5.02 1 4 C-1.50447516 2.78130071 -1.50447516 2.78130071 -4 2 C-2.68 1.34 -1.36 0.68 0 0 Z " fill="#CFCCCB" transform="translate(132,30)"/>
<path d="M0 0 C0.33 0 0.66 0 1 0 C1.12375 1.093125 1.2475 2.18625 1.375 3.3125 C1.75464801 7.07381802 1.75464801 7.07381802 4 10 C4 10.66 4 11.32 4 12 C3.34 12 2.68 12 2 12 C1.67 12.66 1.34 13.32 1 14 C0.06380187 10.84493858 -0.1057123 8.03413498 -0.0625 4.75 C-0.05347656 3.85796875 -0.04445312 2.9659375 -0.03515625 2.046875 C-0.02355469 1.37140625 -0.01195312 0.6959375 0 0 Z " fill="#D7ECDE" transform="translate(157,160)"/>
<path d="M0 0 C1.98 0 3.96 0 6 0 C6 0.66 6 1.32 6 2 C5.34 2 4.68 2 4 2 C4 3.98 4 5.96 4 8 C3.34 8 2.68 8 2 8 C2 5.69 2 3.38 2 1 C1.34 0.67 0.68 0.34 0 0 Z " fill="#C4C4C2" transform="translate(25,47)"/>
<path d="M0 0 C4 2 4 2 5.25 5.125 C5.4975 6.07375 5.745 7.0225 6 8 C5.01 8.33 4.02 8.66 3 9 C2.01 6.03 1.02 3.06 0 0 Z " fill="#E1DFE0" transform="translate(40,29)"/>
<path d="M0 0 C0 2.31 0 4.62 0 7 C-0.66 7 -1.32 7 -2 7 C-2 6.01 -2 5.02 -2 4 C-4.475 3.01 -4.475 3.01 -7 2 C-4.35261084 0.5393715 -3.10551666 0 0 0 Z " fill="#D4D4D2" transform="translate(143,30)"/>
<path d="M0 0 C0.99 0 1.98 0 3 0 C3.33 2.97 3.66 5.94 4 9 C3.01 9 2.02 9 1 9 C0.67 6.03 0.34 3.06 0 0 Z " fill="#383332" transform="translate(165,29)"/>
<path d="M0 0 C0.33 0.99 0.66 1.98 1 3 C0.34 3 -0.32 3 -1 3 C-1 3.99 -1 4.98 -1 6 C-2.32 6 -3.64 6 -5 6 C-5 4.68 -5 3.36 -5 2 C-3.35 1.34 -1.7 0.68 0 0 Z " fill="#E9AB19" transform="translate(175,271)"/>
<path d="M0 0 C0.66 0.33 1.32 0.66 2 1 C1.67 3.31 1.34 5.62 1 8 C0.01 8 -0.98 8 -2 8 C-2.125 5.125 -2.125 5.125 -2 2 C-1.34 1.34 -0.68 0.68 0 0 Z " fill="#E2E1E1" transform="translate(137,47)"/>
<path d="M0 0 C0.99 0 1.98 0 3 0 C3 0.66 3 1.32 3 2 C3.66 2 4.32 2 5 2 C5.33 1.34 5.66 0.68 6 0 C6 1.65 6 3.3 6 5 C5.67 4.34 5.34 3.68 5 3 C4.34 3 3.68 3 3 3 C3 3.66 3 4.32 3 5 C1.68 5 0.36 5 -1 5 C-0.67 3.35 -0.34 1.7 0 0 Z " fill="#A2A09F" transform="translate(77,50)"/>
<path d="M0 0 C0.99 0 1.98 0 3 0 C5.1875 2.5 5.1875 2.5 7 5 C5.35 5.66 3.7 6.32 2 7 C1.34 4.69 0.68 2.38 0 0 Z " fill="#DDD9D9" transform="translate(123,31)"/>
<path d="M0 0 C3 4 3 4 3 6 C4.32 5.67 5.64 5.34 7 5 C6.67 5.66 6.34 6.32 6 7 C4.66923011 7.34342449 3.33568021 7.67619874 2 8 C1.34 8.66 0.68 9.32 0 10 C0 6.7 0 3.4 0 0 Z " fill="#CCCAC8" transform="translate(32,26)"/>
<path d="M0 0 C0.99 0.33 1.98 0.66 3 1 C2.67 1.33 2.34 1.66 2 2 C1.63239269 4.32817964 1.29758419 6.6618385 1 9 C0.34 9 -0.32 9 -1 9 C-1.09765625 2.84765625 -1.09765625 2.84765625 -1 1 C-0.67 0.67 -0.34 0.34 0 0 Z " fill="#777777" transform="translate(89,321)"/>
<path d="M0 0 C0.33 0.99 0.66 1.98 1 3 C1.99 3.33 2.98 3.66 4 4 C1.03 4.66 -1.94 5.32 -5 6 C-5.33 5.34 -5.66 4.68 -6 4 C-4.7934375 3.566875 -4.7934375 3.566875 -3.5625 3.125 C-0.8673532 2.26737432 -0.8673532 2.26737432 0 0 Z " fill="#D2A735" transform="translate(169,274)"/>
<path d="M0 0 C1.32 0 2.64 0 4 0 C4 1.65 4 3.3 4 5 C2.68 5 1.36 5 0 5 C0 3.35 0 1.7 0 0 Z " fill="#E8E7E4" transform="translate(182,31)"/>
<path d="M0 0 C3 3.75 3 3.75 3 6 C3.66 6.33 4.32 6.66 5 7 C3.02 7 1.04 7 -1 7 C-1.33 6.34 -1.66 5.68 -2 5 C-1.34 5 -0.68 5 0 5 C0 3.35 0 1.7 0 0 Z " fill="#CDA432" transform="translate(142,272)"/>
<path d="M0 0 C0.33 0.99 0.66 1.98 1 3 C1.99 3 2.98 3 4 3 C4 3.99 4 4.98 4 6 C3.34 6 2.68 6 2 6 C1.67 7.65 1.34 9.3 1 11 C0.67 11 0.34 11 0 11 C0 7.37 0 3.74 0 0 Z " fill="#7AAACD" transform="translate(156,219)"/>
<path d="M0 0 C1.32 0 2.64 0 4 0 C3.67 1.65 3.34 3.3 3 5 C2.01 5 1.02 5 0 5 C0 3.35 0 1.7 0 0 Z " fill="#D5D4D3" transform="translate(182,64)"/>
<path d="M0 0 C2.0625 0.4375 2.0625 0.4375 4 1 C4 1.99 4 2.98 4 4 C2.68 4.33 1.36 4.66 0 5 C-0.5625 3.0625 -0.5625 3.0625 -1 1 C-0.67 0.67 -0.34 0.34 0 0 Z " fill="#DCDBDA" transform="translate(160,64)"/>
<path d="M0 0 C0.33 0.66 0.66 1.32 1 2 C1.66 2 2.32 2 3 2 C3.33 1.34 3.66 0.68 4 0 C4 3 4 3 3 6 C1.68 5.34 0.36 4.68 -1 4 C-0.67 2.68 -0.34 1.36 0 0 Z " fill="#B4B3B0" transform="translate(31,50)"/>
<path d="M0 0 C0.99 0 1.98 0 3 0 C2.67 2.64 2.34 5.28 2 8 C1.34 8 0.68 8 0 8 C0 5.36 0 2.72 0 0 Z " fill="#C0BFBE" transform="translate(84,47)"/>
<path d="M0 0 C0.33 0 0.66 0 1 0 C1 1.65 1 3.3 1 5 C0.67 4.34 0.34 3.68 0 3 C-0.99 3.99 -1.98 4.98 -3 6 C-2.34 6.33 -1.68 6.66 -1 7 C-2.32 6.67 -3.64 6.34 -5 6 C-4.67 4.68 -4.34 3.36 -4 2 C-2.68 2 -1.36 2 0 2 C0 1.34 0 0.68 0 0 Z " fill="#383432" transform="translate(58,31)"/>
<path d="M0 0 C0.99 0 1.98 0 3 0 C3 1.65 3 3.3 3 5 C1.68 5 0.36 5 -1 5 C-0.67 3.35 -0.34 1.7 0 0 Z " fill="#DDDBD9" transform="translate(97,31)"/>
<path d="M0 0 C0.99 0 1.98 0 3 0 C3.33 2.64 3.66 5.28 4 8 C3.01 8 2.02 8 1 8 C0.67 5.36 0.34 2.72 0 0 Z " fill="#2D2826" transform="translate(88,30)"/>
<path d="M0 0 C0.66 0 1.32 0 2 0 C2 0.66 2 1.32 2 2 C1.34 2 0.68 2 0 2 C0 2.66 0 3.32 0 4 C0.99 4 1.98 4 3 4 C3.33 4.99 3.66 5.98 4 7 C2.68 7 1.36 7 0 7 C-0.38133299 5.0085944 -0.71325582 3.00720923 -1 1 C-0.67 0.67 -0.34 0.34 0 0 Z " fill="#9C9A99" transform="translate(40,319)"/>
<path d="M0 0 C0.80824219 0.10183594 1.61648437 0.20367187 2.44921875 0.30859375 C3.06410156 0.39238281 3.67898437 0.47617187 4.3125 0.5625 C4.3125 0.8925 4.3125 1.2225 4.3125 1.5625 C2.68925914 1.78412329 1.063779 1.98939803 -0.5625 2.1875 C-1.91988281 2.36152344 -1.91988281 2.36152344 -3.3046875 2.5390625 C-4.09101562 2.54679687 -4.87734375 2.55453125 -5.6875 2.5625 C-6.3475 1.9025 -7.0075 1.2425 -7.6875 0.5625 C-4.59271121 -0.46909626 -3.16118607 -0.41232862 0 0 Z " fill="#ECA093" transform="translate(72.6875,278.4375)"/>
<path d="M0 0 C-0.75 4.75 -0.75 4.75 -3 7 C-3.33 6.34 -3.66 5.68 -4 5 C-4.66 4.67 -5.32 4.34 -6 4 C-2.25 0 -2.25 0 0 0 Z " fill="#DCAF31" transform="translate(149,189)"/>
<path d="M0 0 C0.99 0.495 0.99 0.495 2 1 C2.33 0.67 2.66 0.34 3 0 C3.66 0 4.32 0 5 0 C5 1.65 5 3.3 5 5 C4.34 5 3.68 5 3 5 C3 4.34 3 3.68 3 3 C2.34 3 1.68 3 1 3 C0.67 3.66 0.34 4.32 0 5 C0 3.35 0 1.7 0 0 Z " fill="#ACAAA8" transform="translate(135,63)"/>
<path d="M0 0 C1.65 0 3.3 0 5 0 C5 0.99 5 1.98 5 3 C3.35 3.33 1.7 3.66 0 4 C0 2.68 0 1.36 0 0 Z " fill="#E2E1E0" transform="translate(85,63)"/>
<path d="M0 0 C0.99 0 1.98 0 3 0 C2.67 1.32 2.34 2.64 2 4 C0.35 4 -1.3 4 -3 4 C-3.33 3.34 -3.66 2.68 -4 2 C-2.68 2 -1.36 2 0 2 C0 1.34 0 0.68 0 0 Z " fill="#4A4343" transform="translate(130,34)"/>
<path d="M0 0 C0.99 0 1.98 0 3 0 C4 2 5 4 6 6 C4.68 6 3.36 6 2 6 C1.34 4.02 0.68 2.04 0 0 Z " fill="#544D4C" transform="translate(43,29)"/>
<path d="M0 0 C0.33 0.99 0.66 1.98 1 3 C0 4 0 4 -3.0625 4.0625 C-4.5165625 4.0315625 -4.5165625 4.0315625 -6 4 C-6 3.34 -6 2.68 -6 2 C-4.02 1.34 -2.04 0.68 0 0 Z " fill="#524F4D" transform="translate(140,34)"/>
<path d="M0 0 C0.5625 1.9375 0.5625 1.9375 1 4 C0 5 0 5 -2.5625 5.0625 C-3.7690625 5.0315625 -3.7690625 5.0315625 -5 5 C-5.33 4.01 -5.66 3.02 -6 2 C-3.03 2.495 -3.03 2.495 0 3 C0 2.01 0 1.02 0 0 Z " fill="#342F2C" transform="translate(69,33)"/>
</svg>
