<?xml version="1.0" encoding="UTF-8"?>
<svg version="1.1" xmlns="http://www.w3.org/2000/svg" width="35" height="35">
<path d="M0 0 C4.88006234 2.62528299 8.1174457 6.04374335 9.86328125 11.28125 C10.5609433 18.463738 10.25864329 23.46036514 5.86328125 29.28125 C0.68922816 34.07671383 -3.49885434 34.63483707 -10.34375 34.5625 C-15.70872664 34.0222506 -18.84963691 31.66994356 -22.51171875 27.71875 C-25.91114242 22.61961449 -25.73412558 17.21383176 -25.13671875 11.28125 C-23.49502873 6.40079107 -20.38748178 3.11509202 -16.13671875 0.28125 C-11.04065361 -1.41743838 -5.14382507 -1.73028119 0 0 Z " fill="#6B6B6B" transform="translate(25.13671875,0.71875)"/>
<path d="M0 0 C3.44609791 1.85001045 5.56870292 3.53401499 6.79296875 7.24609375 C6.4545758 10.66386258 5.44955941 12.87660965 3.78515625 15.87890625 C-2.75625317 21.05396383 -12.89183116 19.42367718 -20.87207031 19.10180664 C-23.40183563 18.9994657 -23.40183563 18.9994657 -25.20703125 21.24609375 C-25.71156837 14.28067853 -25.41499342 9.93252911 -21.20703125 4.24609375 C-15.32462531 -1.20589225 -7.70002899 -2.63027539 0 0 Z " fill="#ACACAC" transform="translate(25.20703125,0.75390625)"/>
<path d="M0 0 C0.66 1.32 1.32 2.64 2 4 C1.34 4 0.68 4 0 4 C-0.2475 4.845625 -0.495 5.69125 -0.75 6.5625 C-1.1625 7.696875 -1.575 8.83125 -2 10 C-2.4228125 11.2065625 -2.845625 12.413125 -3.28125 13.65625 C-4.35449219 15.50024414 -4.35449219 15.50024414 -6 17 C-10.23779633 18.04471836 -14.40311396 17.97859959 -18.75 17.9375 C-20.51150391 17.96166992 -20.51150391 17.96166992 -22.30859375 17.98632812 C-25.2069095 18.02167344 -28.10167934 18.02505113 -31 18 C-31.33 17.01 -31.66 16.02 -32 15 C-31.34 14.01 -30.68 13.02 -30 12 C-27.56982422 11.56762695 -27.56982422 11.56762695 -24.5546875 11.48828125 C-23.47832031 11.45283203 -22.40195312 11.41738281 -21.29296875 11.38085938 C-20.16503906 11.35830078 -19.03710938 11.33574219 -17.875 11.3125 C-16.73933594 11.27833984 -15.60367187 11.24417969 -14.43359375 11.20898438 C-11.62249421 11.12630498 -8.81171447 11.05722063 -6 11 C-5.65066406 10.28972656 -5.30132813 9.57945313 -4.94140625 8.84765625 C-4.48636719 7.92855469 -4.03132813 7.00945313 -3.5625 6.0625 C-3.11003906 5.14597656 -2.65757813 4.22945312 -2.19140625 3.28515625 C-1 1 -1 1 0 0 Z " fill="#888888" transform="translate(32,7)"/>
<path d="M0 0 C0.33 0 0.66 0 1 0 C1.50453712 6.96541522 1.20796217 11.31356464 -3 17 C-7.04145306 21.26597823 -10.36307241 21.61783542 -16 22 C-15.4375 20.125 -15.4375 20.125 -14 18 C-12.845 17.71125 -11.69 17.4225 -10.5 17.125 C-9.345 16.75375 -8.19 16.3825 -7 16 C-5.73907048 13.39494261 -5.73907048 13.39494261 -5 10 C-3.42573664 6.61937035 -1.71458832 3.31138049 0 0 Z " fill="#FCFCFC" transform="translate(34,13)"/>
<path d="M0 0 C3.63 0 7.26 0 11 0 C11 1.65 11 3.3 11 5 C4.6 4.50769231 4.6 4.50769231 1.5625 1.9375 C1.046875 1.298125 0.53125 0.65875 0 0 Z " fill="#FFFFFF" transform="translate(5,30)"/>
<path d="M0 0 C0.33 0.66 0.66 1.32 1 2 C0.0390625 4.13671875 0.0390625 4.13671875 -1.375 6.6875 C-3.60249899 10.93887618 -4.68912695 14.23327995 -5 19 C-5.33 19 -5.66 19 -6 19 C-6.50607963 12.01328953 -6.08682784 7.7696393 -2 2 C-1.34 1.34 -0.68 0.68 0 0 Z " fill="#F8F8F8" transform="translate(6,3)"/>
</svg>
