<?xml version="1.0" encoding="UTF-8"?>
<svg version="1.1" xmlns="http://www.w3.org/2000/svg" width="35" height="35">
<path d="M0 0 C4.88006234 2.62528299 8.1174457 6.04374335 9.86328125 11.28125 C10.5609433 18.463738 10.25864329 23.46036514 5.86328125 29.28125 C0.68922816 34.07671383 -3.49885434 34.63483707 -10.34375 34.5625 C-15.70872664 34.0222506 -18.84963691 31.66994356 -22.51171875 27.71875 C-25.91114242 22.61961449 -25.73412558 17.21383176 -25.13671875 11.28125 C-23.49502873 6.40079107 -20.38748178 3.11509202 -16.13671875 0.28125 C-11.04065361 -1.41743838 -5.14382507 -1.73028119 0 0 Z " fill="#636363" transform="translate(25.13671875,0.71875)"/>
<path d="M0 0 C2.57297668 1.45711732 4.70366732 3.08647982 6.79296875 5.17578125 C6.98828125 8.43359375 6.98828125 8.43359375 6.91796875 12.30078125 C6.89992188 13.58210937 6.881875 14.8634375 6.86328125 16.18359375 C6.84007813 17.17101562 6.816875 18.1584375 6.79296875 19.17578125 C6.13296875 19.17578125 5.47296875 19.17578125 4.79296875 19.17578125 C4.79296875 21.81578125 4.79296875 24.45578125 4.79296875 27.17578125 C3.80296875 26.84578125 2.81296875 26.51578125 1.79296875 26.17578125 C1.79296875 23.86578125 1.79296875 21.55578125 1.79296875 19.17578125 C1.13296875 19.17578125 0.47296875 19.17578125 -0.20703125 19.17578125 C-0.20703125 18.51578125 -0.20703125 17.85578125 -0.20703125 17.17578125 C-1.52703125 17.50578125 -2.84703125 17.83578125 -4.20703125 18.17578125 C-4.20703125 17.18578125 -4.20703125 16.19578125 -4.20703125 15.17578125 C-5.52703125 15.17578125 -6.84703125 15.17578125 -8.20703125 15.17578125 C-8.20703125 14.18578125 -8.20703125 13.19578125 -8.20703125 12.17578125 C-9.52703125 12.17578125 -10.84703125 12.17578125 -12.20703125 12.17578125 C-12.20703125 13.49578125 -12.20703125 14.81578125 -12.20703125 16.17578125 C-11.54703125 16.50578125 -10.88703125 16.83578125 -10.20703125 17.17578125 C-13.17703125 17.17578125 -16.14703125 17.17578125 -19.20703125 17.17578125 C-19.48265042 14.90791483 -19.72674582 12.63619846 -19.95703125 10.36328125 C-20.09625 9.09871094 -20.23546875 7.83414062 -20.37890625 6.53125 C-20.20703125 3.17578125 -20.20703125 3.17578125 -18.41015625 1.2890625 C-12.85275697 -1.51919778 -5.90756092 -2.20618647 0 0 Z " fill="#959595" transform="translate(25.20703125,0.82421875)"/>
<path d="M0 0 C0.66 0.33 1.32 0.66 2 1 C2 4.96 2 8.92 2 13 C5.465 12.505 5.465 12.505 9 12 C9 10.68 9 9.36 9 8 C10.32 8 11.64 8 13 8 C13.33 8.66 13.66 9.32 14 10 C16.02463255 10.65213292 16.02463255 10.65213292 18 11 C18 11.66 18 12.32 18 13 C18.33 13.66 18.66 14.32 19 15 C18.22265625 17.1640625 18.22265625 17.1640625 17.0625 19.625 C16.68222656 20.44226563 16.30195313 21.25953125 15.91015625 22.1015625 C15.60980469 22.72804688 15.30945313 23.35453125 15 24 C15.66 24.33 16.32 24.66 17 25 C17.33 25.66 17.66 26.32 18 27 C16.37536158 27.05395478 14.75021459 27.09277195 13.125 27.125 C11.76761719 27.15980469 11.76761719 27.15980469 10.3828125 27.1953125 C8 27 8 27 6 25 C4.67405895 24.63837971 3.34061543 24.30271961 2 24 C0.06729418 22.06729418 0.37336945 18.61358612 0 16 C-0.33 15.67 -0.66 15.34 -1 15 C-1.09909302 12.66839945 -1.12970504 10.33370058 -1.125 8 C-1.12757812 6.72125 -1.13015625 5.4425 -1.1328125 4.125 C-1 1 -1 1 0 0 Z " fill="#878787" transform="translate(4,5)"/>
<path d="M0 0 C3.96 0.33 7.92 0.66 12 1 C11.01 1.495 11.01 1.495 10 2 C10.99 2.33 11.98 2.66 13 3 C13 3.99 13 4.98 13 6 C10.69 6 8.38 6 6 6 C6 4.68 6 3.36 6 2 C4.68 2 3.36 2 2 2 C2 3.32 2 4.64 2 6 C2.99 6 3.98 6 5 6 C5 6.66 5 7.32 5 8 C9.455 7.505 9.455 7.505 14 7 C14 5.68 14 4.36 14 3 C14.99 3.33 15.98 3.66 17 4 C17.6875 6.0625 17.6875 6.0625 18 8 C18.66 8 19.32 8 20 8 C20 6.35 20 4.7 20 3 C21.32 3 22.64 3 24 3 C23.814375 3.5775 23.62875 4.155 23.4375 4.75 C22.95261433 7.24369772 23.30093578 8.59211213 24 11 C24 11.99 24 12.98 24 14 C21.36 14.33 18.72 14.66 16 15 C16 14.01 16 13.02 16 12 C14.68 12 13.36 12 12 12 C12 11.01 12 10.02 12 9 C10.68 9 9.36 9 8 9 C8 10.32 8 11.64 8 13 C8.66 13.33 9.32 13.66 10 14 C7.03 14 4.06 14 1 14 C0.67 9.38 0.34 4.76 0 0 Z " fill="#D0D0D0" transform="translate(5,4)"/>
<path d="M0 0 C1.32 0 2.64 0 4 0 C4.33 0.66 4.66 1.32 5 2 C7.02463255 2.65213292 7.02463255 2.65213292 9 3 C9 3.66 9 4.32 9 5 C9.33 5.66 9.66 6.32 10 7 C9.22265625 9.1640625 9.22265625 9.1640625 8.0625 11.625 C7.49208984 12.85089844 7.49208984 12.85089844 6.91015625 14.1015625 C6.60980469 14.72804688 6.30945312 15.35453125 6 16 C6.66 16.33 7.32 16.66 8 17 C8.33 17.66 8.66 18.32 9 19 C7.37536158 19.05395478 5.75021459 19.09277195 4.125 19.125 C3.22007813 19.14820312 2.31515625 19.17140625 1.3828125 19.1953125 C-1 19 -1 19 -3 17 C-3 16.34 -3 15.68 -3 15 C-0.03 15.495 -0.03 15.495 3 16 C3 15.34 3 14.68 3 14 C2.01 13.67 1.02 13.34 0 13 C0.185625 11.783125 0.37125 10.56625 0.5625 9.3125 C0.98993182 5.97022061 0.92258883 3.28031583 0 0 Z " fill="#8E8E8E" transform="translate(13,13)"/>
<path d="M0 0 C0.763125 0.495 1.52625 0.99 2.3125 1.5 C2.3125 2.16 2.3125 2.82 2.3125 3.5 C-5.2775 3.5 -12.8675 3.5 -20.6875 3.5 C-19.6875 0.5 -19.6875 0.5 -17.46484375 -0.66796875 C-11.57345504 -2.43289954 -5.68007488 -2.31053893 0 0 Z " fill="#777777" transform="translate(26.6875,1.5)"/>
<path d="M0 0 C0.66 0 1.32 0 2 0 C2 0.66 2 1.32 2 2 C3.32 2 4.64 2 6 2 C6.33 4.97 6.66 7.94 7 11 C2.89441282 13.05279359 1.19793315 13.2216942 -3.25 13.125 C-4.32765625 13.10695313 -5.4053125 13.08890625 -6.515625 13.0703125 C-7.33546875 13.04710937 -8.1553125 13.02390625 -9 13 C-9 12.67 -9 12.34 -9 12 C-7.35 11.67 -5.7 11.34 -4 11 C-3.79503906 10.37351562 -3.59007812 9.74703125 -3.37890625 9.1015625 C-3.10949219 8.28429688 -2.84007812 7.46703125 -2.5625 6.625 C-2.29566406 5.81289063 -2.02882813 5.00078125 -1.75390625 4.1640625 C-1 2 -1 2 0 0 Z " fill="#686868" transform="translate(23,18)"/>
<path d="M0 0 C0.99 0.33 1.98 0.66 3 1 C3.6875 3.0625 3.6875 3.0625 4 5 C4.66 5 5.32 5 6 5 C6 3.35 6 1.7 6 0 C7.32 0 8.64 0 10 0 C9.814375 0.5775 9.62875 1.155 9.4375 1.75 C8.95261433 4.24369772 9.30093578 5.59211213 10 8 C10 8.99 10 9.98 10 11 C7.36 11.33 4.72 11.66 2 12 C1.67 11.34 1.34 10.68 1 10 C1.99 10 2.98 10 4 10 C4.33 9.34 4.66 8.68 5 8 C5.33 8 5.66 8 6 8 C5.195625 7.608125 4.39125 7.21625 3.5625 6.8125 C1 5 1 5 0.1875 2.3125 C0.0946875 1.1678125 0.0946875 1.1678125 0 0 Z " fill="#ECECEC" transform="translate(19,7)"/>
<path d="M0 0 C0.66 0 1.32 0 2 0 C2 0.99 2 1.98 2 3 C3.65 3.33 5.3 3.66 7 4 C6.67 4.99 6.34 5.98 6 7 C6.66 7.33 7.32 7.66 8 8 C8.33 8.66 8.66 9.32 9 10 C7.37536158 10.05395478 5.75021459 10.09277195 4.125 10.125 C3.22007813 10.14820313 2.31515625 10.17140625 1.3828125 10.1953125 C-1 10 -1 10 -3 8 C-3 7.34 -3 6.68 -3 6 C-0.03 6.495 -0.03 6.495 3 7 C3 6.34 3 5.68 3 5 C2.01 4.67 1.02 4.34 0 4 C0 2.68 0 1.36 0 0 Z " fill="#929292" transform="translate(13,22)"/>
<path d="M0 0 C1.32 0 2.64 0 4 0 C4 1.32 4 2.64 4 4 C4.66 4 5.32 4 6 4 C6.33 2.68 6.66 1.36 7 0 C7.66 0.99 8.32 1.98 9 3 C9.66 3.33 10.32 3.66 11 4 C11.33 2.68 11.66 1.36 12 0 C12.33 1.65 12.66 3.3 13 5 C9.52674819 6.1577506 6.63932552 6.06866652 3 6 C3 5.34 3 4.68 3 4 C2.01 4 1.02 4 0 4 C0 2.68 0 1.36 0 0 Z " fill="#878787" transform="translate(7,6)"/>
<path d="M0 0 C0.33 0 0.66 0 1 0 C1.33 2.97 1.66 5.94 2 9 C-2.10558718 11.05279359 -3.80206685 11.2216942 -8.25 11.125 C-9.32765625 11.10695313 -10.4053125 11.08890625 -11.515625 11.0703125 C-12.33546875 11.04710937 -13.1553125 11.02390625 -14 11 C-14 10.67 -14 10.34 -14 10 C-11.69 10 -9.38 10 -7 10 C-7 9.34 -7 8.68 -7 8 C-3.535 7.505 -3.535 7.505 0 7 C0 4.69 0 2.38 0 0 Z " fill="#777777" transform="translate(28,20)"/>
<path d="M0 0 C1.65 0 3.3 0 5 0 C5.12375 0.804375 5.2475 1.60875 5.375 2.4375 C5.684375 3.7059375 5.684375 3.7059375 6 5 C6.66 5.33 7.32 5.66 8 6 C8 6.66 8 7.32 8 8 C5.36 7.34 2.72 6.68 0 6 C0 4.02 0 2.04 0 0 Z " fill="#636363" transform="translate(8,21)"/>
<path d="M0 0 C0.33 0 0.66 0 1 0 C1 4.29 1 8.58 1 13 C0.34 13 -0.32 13 -1 13 C-1 15.64 -1 18.28 -1 21 C-1.99 20.67 -2.98 20.34 -4 20 C-4 17.69 -4 15.38 -4 13 C-4.66 13 -5.32 13 -6 13 C-6 12.34 -6 11.68 -6 11 C-3.03 11.495 -3.03 11.495 0 12 C0 8.04 0 4.08 0 0 Z " fill="#A2A2A2" transform="translate(31,7)"/>
<path d="M0 0 C0.66 0.66 1.32 1.32 2 2 C1.9765625 4.8203125 1.9765625 4.8203125 1.625 8.125 C1.51414062 9.22070312 1.40328125 10.31640625 1.2890625 11.4453125 C1.14597656 12.70988281 1.14597656 12.70988281 1 14 C0.01 13.67 -0.98 13.34 -2 13 C-2 12.01 -2 11.02 -2 10 C-2.66 9.34 -3.32 8.68 -4 8 C-3.34 7.67 -2.68 7.34 -2 7 C-2 6.01 -2 5.02 -2 4 C-1 1.8125 -1 1.8125 0 0 Z " fill="#707070" transform="translate(30,5)"/>
<path d="M0 0 C0.99 0.33 1.98 0.66 3 1 C2.34 1 1.68 1 1 1 C1 1.66 1 2.32 1 3 C2.65 2.67 4.3 2.34 6 2 C6.33 2.99 6.66 3.98 7 5 C7.66 5.66 8.32 6.32 9 7 C6.03 7 3.06 7 0 7 C0 4.69 0 2.38 0 0 Z " fill="#F0F0F0" transform="translate(6,11)"/>
<path d="M0 0 C3.96 0.33 7.92 0.66 12 1 C11.01 1.495 11.01 1.495 10 2 C10.99 2.33 11.98 2.66 13 3 C13 3.99 13 4.98 13 6 C10.69 6 8.38 6 6 6 C6 4.68 6 3.36 6 2 C4.35 2.33 2.7 2.66 1 3 C0.67 2.01 0.34 1.02 0 0 Z " fill="#C5C5C5" transform="translate(5,4)"/>
<path d="M0 0 C0.66 0.33 1.32 0.66 2 1 C2 1.99 2 2.98 2 4 C2.66 4 3.32 4 4 4 C4 4.99 4 5.98 4 7 C2.35 7 0.7 7 -1 7 C-1.33 6.34 -1.66 5.68 -2 5 C-1.0625 2.375 -1.0625 2.375 0 0 Z " fill="#717171" transform="translate(16,19)"/>
<path d="M0 0 C1.32 0 2.64 0 4 0 C4.33 1.98 4.66 3.96 5 6 C4.34 6 3.68 6 3 6 C3 5.34 3 4.68 3 4 C2.01 4 1.02 4 0 4 C0 2.68 0 1.36 0 0 Z " fill="#747474" transform="translate(7,6)"/>
<path d="M0 0 C0.66 0.66 1.32 1.32 2 2 C1.34 3.98 0.68 5.96 0 8 C-0.99 7.34 -1.98 6.68 -3 6 C-1.125 1.125 -1.125 1.125 0 0 Z " fill="#7D7D7D" transform="translate(30,5)"/>
</svg>
