<?xml version="1.0" encoding="UTF-8"?>
<svg version="1.1" xmlns="http://www.w3.org/2000/svg" width="40" height="40">
<path d="M0 0 C3.3 0 6.6 0 10 0 C12.17217622 4.45743506 14.32607746 8.92307121 16.46362305 13.3972168 C17.19305523 14.91750191 17.92739525 16.43544248 18.66674805 17.95092773 C19.72968826 20.13184945 20.77459617 22.32064 21.81640625 24.51171875 C22.14967422 25.18587326 22.4829422 25.86002777 22.8263092 26.55461121 C24.18290022 29.44623879 25.02772801 31.56200516 24.82397461 34.78051758 C24 37 24 37 22 40 C19.4109793 40.31694868 17.06507472 40.44410572 14.47265625 40.43359375 C13.35557533 40.44145653 13.35557533 40.44145653 12.21592712 40.44947815 C10.63981371 40.45590537 9.06365238 40.45455225 7.48754883 40.44604492 C5.07481404 40.43754339 2.6644532 40.4662678 0.25195312 40.49804688 C-1.27864512 40.49965918 -2.80924757 40.49908079 -4.33984375 40.49609375 C-5.06179428 40.50732773 -5.78374481 40.51856171 -6.52757263 40.53013611 C-9.67460898 40.48633617 -11.55835386 40.35829276 -14.04125977 38.34399414 C-15.81142857 34.01616356 -14.30032217 30.73756903 -12.60131836 26.56494141 C-12.0217365 25.32358285 -11.4342129 24.08590909 -10.83984375 22.8515625 C-10.53051407 22.19417084 -10.22118439 21.53677917 -9.90248108 20.85946655 C-8.92109627 18.77794394 -7.92950023 16.70148117 -6.9375 14.625 C-6.26689546 13.20735398 -5.59696649 11.78938817 -4.92773438 10.37109375 C-3.292948 6.9103143 -1.64899117 3.45403228 0 0 Z " fill="#FC7B23" transform="translate(15,0)"/>
<path d="M0 0 C0.66 0 1.32 0 2 0 C3.34277732 2.7663534 4.67255228 5.53876211 6 8.3125 C6.3815625 9.09818359 6.763125 9.88386719 7.15625 10.69335938 C7.5171875 11.45068359 7.878125 12.20800781 8.25 12.98828125 C8.58515625 13.68477783 8.9203125 14.38127441 9.265625 15.09887695 C10 17 10 17 10 20 C4.06 20 -1.88 20 -8 20 C-5.83836487 13.06001352 -3.1063786 6.56882431 0 0 Z " fill="#FDC72E" transform="translate(19,12)"/>
</svg>
