<?xml version="1.0" standalone="no"?>
<!DOCTYPE svg PUBLIC "-//W3C//DTD SVG 20010904//EN"
 "http://www.w3.org/TR/2001/REC-SVG-20010904/DTD/svg10.dtd">
<svg version="1.0" xmlns="http://www.w3.org/2000/svg"
 width="35.000000pt" height="35.000000pt" viewBox="0 0 35.000000 35.000000"
 preserveAspectRatio="xMidYMid meet">

<g transform="translate(0.000000,35.000000) scale(0.100000,-0.100000)"
fill="#000000" stroke="none">
<path d="M104 326 c-17 -8 -44 -31 -60 -51 -23 -31 -28 -48 -29 -96 0 -65 18
-98 75 -136 70 -48 186 -19 225 57 22 44 19 126 -7 168 -38 61 -134 88 -204
58z m39 -47 c-2 -10 10 -15 44 -16 64 -3 71 -18 48 -104 -5 -19 -2 -28 9 -32
37 -14 -25 -67 -78 -67 -14 0 -38 11 -53 25 -27 24 -27 26 -10 39 15 12 16 18
8 35 -15 28 -14 63 4 88 8 12 12 29 8 39 -4 12 -2 15 8 12 8 -3 13 -11 12 -19z"/>
<path d="M147 223 c-15 -15 -6 -52 14 -58 28 -9 53 16 44 44 -6 20 -43 29 -58
14z"/>
<path d="M158 103 c6 -2 18 -2 25 0 6 3 1 5 -13 5 -14 0 -19 -2 -12 -5z"/>
</g>
</svg>
