<?xml version="1.0" standalone="no"?>
<!DOCTYPE svg PUBLIC "-//W3C//DTD SVG 20010904//EN"
 "http://www.w3.org/TR/2001/REC-SVG-20010904/DTD/svg10.dtd">
<svg version="1.0" xmlns="http://www.w3.org/2000/svg"
 width="32.000000pt" height="32.000000pt" viewBox="0 0 32.000000 32.000000"
 preserveAspectRatio="xMidYMid meet">

<g transform="translate(0.000000,32.000000) scale(0.100000,-0.100000)"
fill="#000000" stroke="none">
<path d="M88 300 c-106 -57 -115 -201 -17 -270 95 -68 233 -4 246 114 14 121
-122 214 -229 156z m151 -39 c38 -28 58 -87 44 -133 -10 -35 -11 -36 -85 -17
-38 10 -54 9 -95 -4 -26 -9 -52 -12 -56 -8 -5 5 -11 26 -13 47 -14 111 112
181 205 115z m-25 -184 c27 -12 27 -13 11 -27 -10 -9 -38 -15 -65 -15 -27 0
-55 6 -65 15 -16 14 -16 15 11 27 37 15 71 15 108 0z"/>
<path d="M122 238 c-15 -15 -15 -61 0 -76 15 -15 61 -15 76 0 15 15 15 61 0
76 -7 7 -24 12 -38 12 -14 0 -31 -5 -38 -12z m58 -38 c0 -13 -7 -20 -20 -20
-13 0 -20 7 -20 20 0 13 7 20 20 20 13 0 20 -7 20 -20z"/>
</g>
</svg>
